<svg width="101" height="100" viewBox="0 0 101 100" fill="none" xmlns="http://www.w3.org/2000/svg">
<circle cx="50.5" cy="50" r="50" fill="#F7009E" fill-opacity="0.1"/>
<circle cx="49.6667" cy="49.6667" r="36.6667" fill="#F7009E" fill-opacity="0.1"/>
<path d="M64.9852 50C64.9852 58.5521 58.0522 65.485 49.5002 65.485C40.9481 65.485 34.0151 58.5521 34.0151 50C34.0151 41.4479 40.9481 34.515 49.5002 34.515C54.2265 34.515 58.4587 36.6324 61.2991 39.971L50.0341 51.7256L42.662 45.6625L42.6519 45.6544C42.2092 45.3085 41.6954 45.1254 41.1659 45.1254C40.2729 45.1254 39.4343 45.6534 39.0294 46.4713C38.6265 47.2857 38.7274 48.22 39.3002 48.9709L39.3082 48.9814L47.5956 59.2621C47.6016 59.2692 47.6072 59.2757 47.6127 59.2823V59.2828C48.2647 60.1107 49.2581 60.5858 50.3377 60.5858C51.4405 60.5858 52.446 60.0936 53.0965 59.2359C53.3093 58.9656 54.9919 56.7998 59.8 50.6097C61.1897 48.8206 62.7347 46.8328 64.1602 45.0004C64.6952 46.5686 64.9852 48.2503 64.9852 50Z" fill="#F7009E" fill-opacity="0.45"/>
<path d="M68.0045 40.0622C67.3787 40.8655 66.5255 41.9612 65.5558 43.2067C66.4403 45.2943 66.9294 47.5902 66.9294 50C66.9294 59.6261 59.1261 67.4299 49.5 67.4299C39.8739 67.4299 32.0701 59.6261 32.0701 50C32.0701 40.3739 39.8739 32.5706 49.5 32.5706C54.7487 32.5706 59.4554 34.8906 62.6503 38.5611L65.1292 35.9743C61.2848 31.6927 55.7068 29 49.5 29C37.9017 29 28.5 38.4022 28.5 50C28.5 61.5983 37.9017 71 49.5 71C61.0978 71 70.5 61.5983 70.5 50C70.5 46.4047 69.5964 43.0207 68.0045 40.0622Z" fill="#F7009E" fill-opacity="0.2"/>
<path d="M68.1829 36.2201C67.6435 35.6978 66.7829 35.7117 66.2607 36.251C66.2607 36.251 54.5506 48.511 50.1117 53.095L42.0309 46.4491C40.7441 45.4431 39.1054 47.0524 40.1019 48.3593L48.4048 58.6586C49.3786 59.8951 51.3431 59.8831 52.295 58.6238C52.4124 58.4811 68.1796 38.188 68.3106 38.0309C68.7274 37.4904 68.6848 36.7061 68.1829 36.2201Z" fill="#F7009E"/>
</svg>
