<svg width="20" height="24" viewBox="0 0 20 24" fill="none" xmlns="http://www.w3.org/2000/svg">
<g clip-path="url(#clip0_26587_12211)">
<path d="M16.9662 1.86808C15.8776 0.605932 13.9098 0.0648193 11.3924 0.0648193H4.08613C3.83704 0.0647803 3.59611 0.155154 3.40668 0.319684C3.21726 0.484215 3.09176 0.712103 3.05277 0.962356L0.0105801 20.5889C-0.0498887 20.9759 0.244721 21.3264 0.630346 21.3264H5.14097L6.27378 14.0174L6.23863 14.2463C6.31933 13.7296 6.75371 13.3486 7.26808 13.3486H9.41152C13.6223 13.3486 16.9194 11.6088 17.8825 6.57605C17.9111 6.4272 17.9359 6.28233 17.9573 6.14079C17.8357 6.07531 17.8357 6.07531 17.9573 6.14079C18.2441 4.28063 17.9553 3.01444 16.9662 1.86808Z" fill="#27346A"/>
<path d="M7.99972 5.4707C8.123 5.41088 8.2579 5.37992 8.39449 5.3801H14.1225C14.8007 5.3801 15.4334 5.425 16.0115 5.51965C16.1733 5.54591 16.3342 5.57724 16.4941 5.61359C16.7207 5.66446 16.9447 5.72671 17.1652 5.8001C17.4494 5.89666 17.7141 6.00911 17.9574 6.14079C18.2441 4.27992 17.9553 3.01444 16.9662 1.86808C15.877 0.605932 13.9098 0.0648193 11.3924 0.0648193H4.0855C3.57105 0.0648193 3.13339 0.445799 3.05277 0.962356L0.0105805 20.5882C-0.0498882 20.9758 0.244721 21.3258 0.629721 21.3258H5.14097L7.49121 6.16527C7.51433 6.01626 7.5727 5.8752 7.66128 5.75421C7.74986 5.63322 7.866 5.53593 7.99972 5.4707Z" fill="#27346A"/>
<path d="M17.8825 6.57613C16.9194 11.6082 13.6223 13.3487 9.41147 13.3487H7.26741C6.75303 13.3487 6.31858 13.7297 6.23866 14.2464L4.82936 23.3342C4.77671 23.6729 5.03421 23.9798 5.37108 23.9798H9.17343C9.39124 23.9797 9.60188 23.9006 9.76747 23.7567C9.93307 23.6128 10.0427 23.4135 10.0768 23.1946L10.1138 22.9975L10.8305 18.3775L10.8766 18.1221C10.9107 17.9033 11.0203 17.704 11.1859 17.5601C11.3515 17.4161 11.5621 17.337 11.7799 17.3369H12.349C16.0323 17.3369 18.9165 15.8148 19.7593 11.4124C20.1111 9.57271 19.9291 8.03671 18.9984 6.95782C18.7162 6.63104 18.3656 6.36116 17.9573 6.14087C17.9351 6.28312 17.9112 6.42728 17.8825 6.57613Z" fill="#2790C3"/>
<path d="M16.9493 5.73198C16.7992 5.68738 16.6476 5.64788 16.4948 5.61357C16.3349 5.5778 16.1739 5.54669 16.0122 5.52027C15.4335 5.42499 14.8013 5.38001 14.1224 5.38001H8.39512C8.25844 5.37977 8.12349 5.41099 8.00035 5.47132C7.86646 5.53631 7.75016 5.63354 7.66154 5.75456C7.57291 5.87559 7.51464 6.01678 7.49176 6.16589L6.27441 14.0174L6.23926 14.2463C6.31934 13.7296 6.75371 13.3486 7.26816 13.3486H9.41223C13.623 13.3486 16.92 11.6088 17.8832 6.57603C17.9118 6.42719 17.9359 6.28295 17.958 6.14077C17.7142 6.00991 17.4501 5.89656 17.1658 5.80072C17.0941 5.77653 17.0219 5.75361 16.9494 5.73198" fill="#1F264F"/>
</g>
<defs>
<clipPath id="clip0_26587_12211">
<rect width="20" height="24" fill="white"/>
</clipPath>
</defs>
</svg>
