<svg width="244" height="244" viewBox="0 0 244 244" fill="none" xmlns="http://www.w3.org/2000/svg">
<rect width="244" height="244" rx="122" fill="#F7009E" fill-opacity="0.3"/>
<g filter="url(#filter0_d_25348_19797)">
<circle cx="122" cy="122" r="90.5615" fill="url(#paint0_linear_25348_19797)"/>
</g>
<g clip-path="url(#clip0_25348_19797)">
<path d="M46.792 100.855C49.2597 100.855 51.7275 100.855 54.27 100.855C54.2887 106.224 54.3074 111.593 54.3267 117.124C54.5136 116.975 54.7006 116.826 54.8932 116.672C56.8941 115.113 59.2465 114.584 61.7481 114.638C61.7862 114.639 61.8244 114.64 61.8637 114.641C63.2213 114.673 64.613 114.985 65.827 115.599C65.8785 115.622 65.93 115.645 65.983 115.67C66.4648 115.894 66.89 116.188 67.3216 116.495C67.4078 116.555 67.4955 116.614 67.5832 116.672C67.5832 116.709 67.5832 116.747 67.5832 116.785C67.6151 116.8 67.6469 116.814 67.6797 116.829C67.825 116.906 67.9488 116.996 68.0789 117.096C68.1242 117.13 68.1695 117.164 68.2161 117.2C68.2503 117.231 68.2845 117.262 68.3197 117.293C68.3197 117.331 68.3197 117.368 68.3197 117.406C68.3571 117.406 68.3945 117.406 68.433 117.406C68.433 117.444 68.433 117.481 68.433 117.519C68.4704 117.519 68.5078 117.519 68.5463 117.519C68.5463 117.557 68.5463 117.594 68.5463 117.632C68.5837 117.632 68.6211 117.632 68.6596 117.632C68.6596 117.67 68.6596 117.707 68.6596 117.745C68.697 117.745 68.7344 117.745 68.7729 117.745C68.8615 117.841 68.9459 117.94 69.0279 118.042C69.0728 118.097 69.1178 118.152 69.1642 118.209C69.2594 118.336 69.3327 118.448 69.3961 118.593C69.4335 118.593 69.4709 118.593 69.5094 118.593C69.597 118.706 69.6778 118.819 69.7572 118.939C69.7901 118.987 69.7901 118.987 69.8236 119.036C69.8676 119.101 69.9112 119.166 69.9546 119.231C70.0179 119.325 70.0834 119.418 70.1489 119.51C70.2459 119.666 70.2459 119.666 70.2459 119.835C70.2833 119.835 70.3207 119.835 70.3592 119.835C70.9037 120.835 70.9037 120.835 71.0956 121.36C71.1452 121.486 71.1948 121.612 71.2444 121.738C71.3401 121.987 71.426 122.232 71.4922 122.49C71.5109 122.49 71.5296 122.49 71.5489 122.49C71.5726 122.402 71.5726 122.402 71.5969 122.312C71.8242 121.492 72.1424 120.742 72.5686 120.005C72.6034 119.943 72.6381 119.88 72.6739 119.816C72.727 119.723 72.727 119.723 72.781 119.627C72.8135 119.57 72.8459 119.512 72.8793 119.453C72.9076 119.412 72.936 119.37 72.9652 119.327C73.0026 119.327 73.0399 119.327 73.0785 119.327C73.1004 119.265 73.1004 119.265 73.1227 119.202C73.1944 119.039 73.2776 118.921 73.3901 118.783C73.5006 118.646 73.6037 118.513 73.7016 118.367C73.739 118.367 73.7764 118.367 73.8149 118.367C73.8523 118.273 73.8897 118.18 73.9282 118.084C73.9656 118.084 74.003 118.084 74.0415 118.084C74.0568 118.051 74.072 118.017 74.0877 117.983C74.155 117.858 74.2233 117.775 74.323 117.676C74.3554 117.643 74.3877 117.611 74.4211 117.577C74.4547 117.544 74.4884 117.511 74.5231 117.477C74.5568 117.443 74.5904 117.409 74.6251 117.374C74.6736 117.326 74.6736 117.326 74.7231 117.277C74.7527 117.247 74.7822 117.218 74.8127 117.188C74.8913 117.124 74.8913 117.124 75.0046 117.124C75.0046 117.087 75.0046 117.049 75.0046 117.011C75.0981 116.974 75.1916 116.936 75.2879 116.898C75.2879 116.861 75.2879 116.823 75.2879 116.785C75.4162 116.677 75.4162 116.677 75.5853 116.556C75.6405 116.515 75.6957 116.475 75.7526 116.433C75.8891 116.347 75.9802 116.301 76.1377 116.277C76.1377 116.239 76.1377 116.202 76.1377 116.164C76.3851 116.031 76.6329 115.899 76.8812 115.768C76.967 115.723 77.0526 115.677 77.1381 115.631C78.7201 114.806 80.4957 114.603 82.2561 114.638C82.2971 114.639 82.3381 114.64 82.3804 114.641C84.2279 114.681 85.8782 115.256 87.468 116.164C87.468 116.201 87.468 116.238 87.468 116.277C87.5271 116.297 87.5271 116.297 87.5873 116.317C87.7809 116.403 87.9415 116.517 88.1089 116.644C88.1401 116.667 88.1712 116.689 88.2033 116.713C88.2816 116.772 88.3567 116.834 88.4311 116.898C88.4311 116.935 88.4311 116.973 88.4311 117.011C88.4855 117.037 88.4855 117.037 88.5409 117.064C88.6577 117.124 88.6577 117.124 88.7144 117.18C88.7331 116.565 88.7518 115.95 88.771 115.316C91.2388 115.316 93.7066 115.316 96.2491 115.316C96.2503 118.036 96.2514 120.755 96.252 123.474C96.2521 123.795 96.2521 124.115 96.2522 124.436C96.2522 124.5 96.2522 124.564 96.2522 124.629C96.2525 125.665 96.2529 126.7 96.2535 127.735C96.254 128.796 96.2543 129.858 96.2544 130.919C96.2545 131.574 96.2547 132.23 96.2552 132.885C96.2555 133.334 96.2556 133.783 96.2555 134.232C96.2555 134.491 96.2555 134.75 96.2558 135.01C96.2561 135.247 96.2561 135.484 96.2559 135.721C96.2559 135.807 96.256 135.893 96.2562 135.979C96.2564 136.096 96.2562 136.212 96.2561 136.328C96.2561 136.425 96.2561 136.425 96.2561 136.525C96.2491 136.669 96.2491 136.669 96.1924 136.725C96.0979 136.731 96.0032 136.732 95.9086 136.732C95.8471 136.732 95.7856 136.733 95.7222 136.733C95.6542 136.733 95.5861 136.733 95.516 136.732C95.4448 136.733 95.3736 136.733 95.3003 136.733C95.1045 136.733 94.9087 136.733 94.7128 136.733C94.5083 136.733 94.3038 136.733 94.0993 136.733C93.7559 136.733 93.4124 136.733 93.0689 136.733C92.6713 136.732 92.2736 136.732 91.876 136.733C91.5351 136.733 91.1943 136.733 90.8535 136.733C90.6497 136.733 90.4458 136.733 90.242 136.733C90.0149 136.733 89.7878 136.733 89.5607 136.732C89.4587 136.733 89.4587 136.733 89.3545 136.733C89.2931 136.733 89.2316 136.732 89.1682 136.732C89.1144 136.732 89.0607 136.732 89.0053 136.732C88.8843 136.725 88.8843 136.725 88.8277 136.669C88.8186 136.502 88.813 136.336 88.8098 136.169C88.8086 136.119 88.8074 136.069 88.8062 136.017C88.8025 135.857 88.7991 135.696 88.7958 135.535C88.7934 135.427 88.7909 135.318 88.7884 135.21C88.7823 134.943 88.7766 134.676 88.771 134.409C88.7336 134.409 88.6963 134.409 88.6577 134.409C88.6437 134.442 88.6297 134.474 88.6152 134.508C88.5341 134.654 88.4433 134.752 88.3178 134.861C88.2804 134.861 88.243 134.861 88.2045 134.861C88.2045 134.898 88.2045 134.936 88.2045 134.974C88.1671 134.974 88.1297 134.974 88.0912 134.974C88.0912 135.011 88.0912 135.049 88.0912 135.087C87.9837 135.185 87.9837 135.185 87.8434 135.292C87.7974 135.327 87.7513 135.363 87.7039 135.4C87.5813 135.482 87.5813 135.482 87.468 135.482C87.468 135.52 87.468 135.557 87.468 135.595C87.332 135.697 87.1966 135.79 87.0538 135.881C87.0106 135.909 86.9674 135.937 86.9229 135.965C85.8489 136.636 84.697 137.054 83.4458 137.234C83.386 137.244 83.3263 137.253 83.2647 137.264C81.9899 137.419 80.6795 137.386 79.4235 137.121C79.3837 137.112 79.3439 137.104 79.3029 137.096C78.6963 136.972 78.1248 136.795 77.554 136.556C77.5154 136.54 77.4769 136.524 77.4372 136.507C76.4719 136.1 75.6373 135.52 74.8609 134.822C74.709 134.687 74.552 134.557 74.3961 134.426C74.3248 134.353 74.3248 134.353 74.3248 134.24C74.2874 134.24 74.25 134.24 74.2115 134.24C74.1137 134.145 74.1137 134.145 74.0061 134.021C73.9704 133.98 73.9346 133.94 73.8977 133.898C73.8149 133.788 73.8149 133.788 73.8149 133.675C73.7775 133.675 73.7402 133.675 73.7016 133.675C73.6642 133.582 73.6269 133.488 73.5883 133.392C73.5509 133.392 73.5136 133.392 73.475 133.392C73.3966 133.296 73.3966 133.296 73.3064 133.161C73.2733 133.111 73.2402 133.062 73.206 133.011C73.1709 132.957 73.1359 132.904 73.0997 132.849C73.0639 132.794 73.0282 132.74 72.9913 132.684C72.6033 132.092 72.2487 131.517 72.0069 130.848C71.9527 130.701 71.8921 130.561 71.825 130.42C71.6967 130.14 71.6225 129.849 71.5489 129.551C71.406 129.694 71.3871 129.806 71.3329 130C71.2416 130.307 71.1289 130.59 70.9908 130.88C70.9346 131.001 70.8878 131.12 70.8443 131.246C70.6653 131.736 70.3715 132.175 70.0759 132.602C70.021 132.684 70.021 132.684 69.965 132.769C69.3841 133.632 68.6599 134.531 67.8098 135.143C67.7725 135.143 67.7351 135.143 67.6965 135.143C67.6965 135.181 67.6965 135.218 67.6965 135.256C66.5907 136.126 65.3143 136.709 63.9575 137.064C63.9135 137.076 63.8694 137.087 63.8241 137.099C63.699 137.129 63.5742 137.154 63.4476 137.177C63.3935 137.187 63.3393 137.197 63.2834 137.207C61.8594 137.429 60.3828 137.409 58.9721 137.121C58.9115 137.11 58.8508 137.099 58.7882 137.088C57.6695 136.867 56.5319 136.317 55.6299 135.625C55.5209 135.537 55.5209 135.537 55.4031 135.482C55.4031 135.445 55.4031 135.408 55.4031 135.369C55.3701 135.354 55.3371 135.339 55.3031 135.324C55.1724 135.254 55.0747 135.178 54.964 135.08C54.9119 135.034 54.9119 135.034 54.8587 134.988C54.6576 134.8 54.4641 134.604 54.27 134.409C54.2679 134.511 54.2679 134.511 54.2657 134.616C54.2604 134.868 54.2547 135.119 54.2489 135.371C54.2465 135.481 54.2441 135.59 54.2419 135.699C54.2386 135.856 54.235 136.012 54.2313 136.169C54.2299 136.243 54.2299 136.243 54.2284 136.318C54.2198 136.662 54.2198 136.662 54.1567 136.725C51.7264 136.725 49.296 136.725 46.792 136.725C46.792 124.888 46.792 113.051 46.792 100.855ZM56.4795 121.643C56.4795 121.68 56.4795 121.717 56.4795 121.756C56.4488 121.761 56.4181 121.765 56.3865 121.77C56.2065 121.827 56.0792 121.924 55.9271 122.035C55.8713 122.075 55.8155 122.115 55.758 122.156C55.7157 122.192 55.6733 122.228 55.6297 122.264C55.6297 122.302 55.6297 122.339 55.6297 122.377C55.5923 122.377 55.5549 122.377 55.5164 122.377C55.5164 122.415 55.5164 122.452 55.5164 122.49C55.479 122.49 55.4416 122.49 55.4031 122.49C55.4031 122.528 55.4031 122.565 55.4031 122.603C55.3657 122.603 55.3283 122.603 55.2898 122.603C55.2032 122.705 55.1213 122.81 55.0419 122.917C54.9764 123.005 54.9764 123.005 54.9096 123.094C54.6676 123.435 54.5052 123.771 54.3763 124.167C54.3616 124.212 54.3469 124.257 54.3317 124.303C54.219 124.656 54.1413 125.002 54.1001 125.371C54.0926 125.423 54.085 125.476 54.0773 125.529C53.935 126.707 54.2947 127.924 54.8932 128.93C54.9306 128.93 54.968 128.93 55.0065 128.93C55.0346 129.042 55.0346 129.042 55.0632 129.156C55.1006 129.156 55.1379 129.156 55.1765 129.156C55.1928 129.19 55.2092 129.223 55.226 129.258C55.2925 129.393 55.2925 129.393 55.4031 129.551C55.4405 129.551 55.4779 129.551 55.5164 129.551C55.5164 129.588 55.5164 129.626 55.5164 129.664C55.5538 129.664 55.5912 129.664 55.6297 129.664C55.6297 129.701 55.6297 129.739 55.6297 129.777C55.7232 129.814 55.8166 129.852 55.9129 129.89C55.9129 129.927 55.9129 129.965 55.9129 130.003C55.9951 130.08 55.9951 130.08 56.1006 130.151C56.1529 130.189 56.1529 130.189 56.2062 130.228C56.3145 130.299 56.3145 130.299 56.4795 130.286C56.4795 130.323 56.4795 130.36 56.4795 130.399C57.7805 130.973 59.1652 131.186 60.5584 130.794C60.5939 130.784 60.6294 130.775 60.666 130.765C61.1733 130.623 61.6037 130.424 62.0313 130.116C62.0772 130.084 62.1231 130.052 62.1703 130.019C62.3327 129.905 62.3327 129.905 62.4846 129.777C62.4846 129.74 62.4846 129.703 62.4846 129.664C62.522 129.664 62.5593 129.664 62.5979 129.664C62.5979 129.627 62.5979 129.59 62.5979 129.551C62.6353 129.551 62.6726 129.551 62.7112 129.551C62.8141 129.441 62.8141 129.441 62.9165 129.304C62.9523 129.258 62.9881 129.212 63.025 129.165C63.1183 129.052 63.1183 129.052 63.1077 128.93C63.1451 128.93 63.1825 128.93 63.221 128.93C63.6667 128.195 63.9583 127.362 63.9965 126.501C63.9986 126.454 64.0006 126.407 64.0028 126.359C64.0561 124.936 63.7102 123.657 62.7404 122.585C62.6934 122.535 62.6463 122.485 62.5979 122.434C62.5567 122.39 62.5155 122.346 62.4731 122.3C62.3803 122.195 62.3803 122.195 62.258 122.208C62.258 122.171 62.258 122.133 62.258 122.095C60.6165 120.769 58.3103 120.672 56.4795 121.643ZM79.9749 122.93C79.7008 123.279 79.515 123.649 79.3562 124.061C79.3427 124.096 79.3292 124.131 79.3153 124.167C79.0935 124.772 78.9963 125.367 79.0021 126.01C79.0025 126.077 79.0029 126.143 79.0033 126.212C79.018 127.012 79.2298 127.683 79.5368 128.421C79.5746 128.516 79.6124 128.61 79.6501 128.704C79.6875 128.704 79.7249 128.704 79.7634 128.704C79.7757 128.756 79.7757 128.756 79.7882 128.81C79.8162 128.932 79.8162 128.932 79.8767 129.043C79.9141 129.043 79.9515 129.043 79.99 129.043C80.0053 129.076 80.0205 129.109 80.0362 129.143C80.4773 129.972 81.4369 130.479 82.295 130.755C83.6265 131.152 85.1429 131.084 86.3917 130.455C86.5486 130.368 86.6973 130.274 86.8449 130.173C86.8831 130.147 86.9213 130.122 86.9606 130.096C87.0567 130.031 87.1494 129.961 87.2414 129.89C87.2414 129.853 87.2414 129.816 87.2414 129.777C87.2894 129.758 87.2894 129.758 87.3384 129.738C87.5017 129.645 87.6047 129.532 87.7301 129.392C87.774 129.344 87.818 129.296 87.8633 129.246C87.9733 129.105 88.0347 128.985 88.0912 128.817C88.1286 128.817 88.166 128.817 88.2045 128.817C88.9113 127.498 89.2058 125.984 88.771 124.524C88.6117 124.05 88.4121 123.594 88.1479 123.168C88.1268 123.133 88.1057 123.098 88.0839 123.062C88.0335 122.982 87.9779 122.905 87.9213 122.829C87.8839 122.829 87.8465 122.829 87.808 122.829C87.808 122.792 87.808 122.755 87.808 122.716C87.7706 122.716 87.7332 122.716 87.6947 122.716C87.6798 122.683 87.6649 122.65 87.6495 122.616C87.474 122.293 87.1588 122.051 86.8449 121.869C86.8075 121.869 86.7701 121.869 86.7316 121.869C86.7316 121.832 86.7316 121.794 86.7316 121.756C86.6266 121.703 86.5215 121.65 86.4164 121.597C86.3579 121.568 86.2995 121.538 86.2392 121.508C84.0143 120.431 81.5447 121.093 79.9749 122.93Z" fill="black"/>
<path d="M135 114.864C135.037 114.872 135.074 114.881 135.112 114.889C136.295 115.152 137.316 115.614 138.346 116.245C138.386 116.269 138.425 116.293 138.466 116.318C138.559 116.376 138.649 116.439 138.739 116.503C138.739 116.54 138.739 116.577 138.739 116.616C138.768 116.628 138.798 116.641 138.828 116.654C139.016 116.756 139.201 116.87 139.362 117.011C139.362 117.048 139.362 117.086 139.362 117.124C139.4 117.124 139.437 117.124 139.476 117.124C139.494 116.527 139.513 115.931 139.532 115.316C142.019 115.316 144.505 115.316 147.067 115.316C147.069 118.101 147.072 120.886 147.073 123.671C147.073 124 147.073 124.33 147.073 124.66C147.073 124.758 147.073 124.758 147.073 124.858C147.074 125.918 147.075 126.977 147.076 128.036C147.077 129.124 147.077 130.213 147.078 131.301C147.078 131.972 147.078 132.642 147.079 133.313C147.08 133.774 147.08 134.235 147.08 134.697C147.08 134.962 147.08 135.227 147.08 135.492C147.083 136.444 147.079 137.394 147.017 138.344C147.013 138.411 147.009 138.477 147.004 138.546C146.956 139.195 146.833 139.823 146.67 140.453C146.658 140.503 146.645 140.553 146.632 140.604C146.292 141.917 145.647 143.213 144.744 144.238C144.707 144.238 144.669 144.238 144.631 144.238C144.631 144.275 144.631 144.313 144.631 144.351C144.593 144.351 144.556 144.351 144.518 144.351C144.503 144.384 144.488 144.417 144.473 144.451C144.399 144.587 144.316 144.68 144.206 144.789C144.172 144.823 144.137 144.858 144.102 144.894C144.008 144.972 144.008 144.972 143.894 144.972C143.894 145.01 143.894 145.047 143.894 145.085C143.857 145.085 143.82 145.085 143.781 145.085C143.781 145.123 143.781 145.16 143.781 145.198C143.688 145.236 143.594 145.273 143.498 145.311C143.498 145.349 143.498 145.386 143.498 145.424C142.788 146.036 141.909 146.503 141.062 146.893C141.001 146.921 141.001 146.921 140.939 146.95C139.735 147.501 138.459 147.819 137.153 148.023C137.09 148.033 137.026 148.044 136.961 148.055C136.16 148.17 135.35 148.155 134.543 148.153C134.371 148.153 134.2 148.154 134.029 148.155C133.018 148.161 132.033 148.137 131.034 147.966C130.956 147.953 130.956 147.953 130.877 147.94C128.628 147.56 126.528 146.773 124.803 145.255C124.731 145.195 124.731 145.195 124.658 145.133C124.617 145.099 124.576 145.064 124.534 145.029C124.499 145 124.464 144.971 124.428 144.941C124.35 144.859 124.35 144.859 124.293 144.69C124.255 144.69 124.218 144.69 124.18 144.69C123.896 144.381 123.896 144.381 123.896 144.238C123.859 144.238 123.822 144.238 123.783 144.238C123.713 144.155 123.713 144.155 123.635 144.037C123.607 143.995 123.578 143.952 123.549 143.908C123.503 143.839 123.503 143.839 123.457 143.768C123.411 143.699 123.411 143.699 123.364 143.627C123.146 143.294 122.943 142.956 122.763 142.6C122.736 142.548 122.708 142.496 122.68 142.443C122.48 142.058 122.48 142.058 122.48 141.866C122.581 141.818 122.581 141.818 122.684 141.77C123.281 141.49 123.874 141.202 124.463 140.905C124.943 140.663 125.424 140.427 125.911 140.199C126.233 140.048 126.551 139.892 126.863 139.723C127.215 139.532 127.572 139.353 127.933 139.179C127.985 139.153 128.037 139.127 128.09 139.101C128.139 139.078 128.188 139.054 128.238 139.03C128.282 139.009 128.325 138.988 128.37 138.966C128.485 138.928 128.485 138.928 128.655 138.985C128.765 139.12 128.765 139.12 128.882 139.288C129.032 139.506 129.032 139.506 129.207 139.704C129.278 139.775 129.278 139.775 129.278 139.888C129.316 139.888 129.353 139.888 129.392 139.888C129.392 139.926 129.392 139.963 129.392 140.001C129.429 140.001 129.466 140.001 129.505 140.001C129.505 140.039 129.505 140.076 129.505 140.114C129.542 140.114 129.58 140.114 129.618 140.114C129.618 140.152 129.618 140.189 129.618 140.227C129.664 140.249 129.664 140.249 129.711 140.272C129.869 140.353 130.019 140.444 130.17 140.538C130.226 140.572 130.282 140.607 130.34 140.642C130.382 140.673 130.424 140.704 130.468 140.736C130.468 140.773 130.468 140.81 130.468 140.849C130.498 140.855 130.527 140.861 130.558 140.867C130.735 140.916 130.897 140.989 131.066 141.061C132.485 141.64 134.306 141.94 135.793 141.47C135.831 141.458 135.869 141.446 135.909 141.434C137.114 141.055 138.315 140.388 138.966 139.267C139.334 138.509 139.487 137.748 139.481 136.908C139.481 136.864 139.481 136.82 139.481 136.774C139.481 136.634 139.48 136.494 139.479 136.354C139.479 136.259 139.479 136.163 139.478 136.067C139.478 135.835 139.477 135.602 139.476 135.369C139.438 135.369 139.401 135.369 139.362 135.369C139.362 135.407 139.362 135.444 139.362 135.482C139.325 135.482 139.287 135.482 139.249 135.482C139.249 135.52 139.249 135.557 139.249 135.595C137.278 137.366 134.115 137.446 131.627 137.318C130.34 137.243 129.138 136.946 127.975 136.386C127.91 136.355 127.844 136.324 127.776 136.292C127.433 136.128 127.111 135.961 126.817 135.718C126.722 135.64 126.722 135.64 126.559 135.595C126.559 135.558 126.559 135.521 126.559 135.482C126.516 135.466 126.472 135.45 126.428 135.433C126.276 135.369 126.276 135.369 126.106 135.256C126.106 135.219 126.106 135.182 126.106 135.143C126.076 135.131 126.045 135.119 126.014 135.106C125.83 135.003 125.683 134.866 125.529 134.723C125.482 134.682 125.482 134.682 125.435 134.639C125.292 134.508 125.205 134.427 125.143 134.24C125.067 134.201 124.992 134.164 124.916 134.127C124.807 134.021 124.807 134.021 124.704 133.901C124.669 133.861 124.634 133.822 124.598 133.781C124.519 133.675 124.519 133.675 124.519 133.562C124.482 133.562 124.445 133.562 124.406 133.562C124.369 133.469 124.331 133.375 124.293 133.279C124.255 133.279 124.218 133.279 124.18 133.279C124.087 133.155 124.002 133.031 123.918 132.902C123.892 132.863 123.867 132.825 123.841 132.785C123.765 132.668 123.689 132.55 123.613 132.432C123.591 132.399 123.57 132.366 123.548 132.332C121.854 129.725 121.497 126.232 122.129 123.233C122.29 122.52 122.476 121.827 122.803 121.171C122.865 121.045 122.914 120.925 122.958 120.792C123.075 120.47 123.264 120.183 123.443 119.892C123.477 119.836 123.477 119.836 123.512 119.779C123.586 119.66 123.659 119.541 123.733 119.422C123.768 119.367 123.768 119.367 123.803 119.31C123.958 119.064 124.115 118.823 124.293 118.593C124.33 118.593 124.368 118.593 124.406 118.593C124.42 118.562 124.433 118.531 124.447 118.5C124.539 118.331 124.653 118.191 124.774 118.042C124.842 117.958 124.842 117.958 124.911 117.873C124.95 117.831 124.989 117.789 125.029 117.745C125.067 117.745 125.104 117.745 125.143 117.745C125.143 117.708 125.143 117.671 125.143 117.632C125.18 117.632 125.217 117.632 125.256 117.632C125.256 117.595 125.256 117.558 125.256 117.519C125.293 117.519 125.331 117.519 125.369 117.519C125.369 117.482 125.369 117.445 125.369 117.406C125.465 117.318 125.565 117.234 125.667 117.152C125.722 117.107 125.777 117.062 125.834 117.016C125.961 116.921 126.074 116.848 126.219 116.785C126.219 116.748 126.219 116.71 126.219 116.672C126.355 116.568 126.491 116.471 126.633 116.375C126.675 116.347 126.716 116.319 126.759 116.291C127.079 116.077 127.405 115.885 127.749 115.712C127.813 115.677 127.813 115.677 127.879 115.641C129.961 114.533 132.721 114.353 135 114.864ZM130.895 122.759C130.657 123.016 130.657 123.016 130.581 123.338C130.544 123.338 130.506 123.338 130.468 123.338C130.021 124.204 129.784 125.074 129.788 126.049C129.788 126.088 129.788 126.127 129.788 126.168C129.791 127.181 130.096 128.049 130.581 128.93C130.619 128.93 130.656 128.93 130.695 128.93C130.714 128.974 130.714 128.974 130.733 129.018C130.835 129.206 130.949 129.39 131.091 129.551C131.128 129.551 131.166 129.551 131.204 129.551C131.204 129.588 131.204 129.626 131.204 129.664C131.242 129.664 131.279 129.664 131.318 129.664C131.318 129.701 131.318 129.739 131.318 129.777C131.927 130.316 132.627 130.65 133.414 130.85C133.488 130.87 133.488 130.87 133.564 130.889C134.434 131.072 135.45 131.043 136.303 130.794C136.358 130.778 136.358 130.778 136.414 130.762C137.027 130.576 137.499 130.28 138.003 129.89C138.059 129.853 138.115 129.816 138.173 129.777C138.173 129.74 138.173 129.703 138.173 129.664C138.21 129.664 138.247 129.664 138.286 129.664C138.286 129.627 138.286 129.59 138.286 129.551C138.323 129.551 138.361 129.551 138.399 129.551C139.312 128.545 139.788 127.29 139.757 125.931C139.745 125.724 139.727 125.52 139.702 125.315C139.694 125.238 139.694 125.238 139.685 125.16C139.6 124.585 139.405 123.967 139.136 123.451C139.098 123.451 139.061 123.451 139.022 123.451C139.016 123.418 139.011 123.385 139.004 123.352C138.96 123.205 138.895 123.116 138.799 122.995C138.698 122.866 138.604 122.74 138.512 122.603C138.475 122.603 138.438 122.603 138.399 122.603C138.399 122.566 138.399 122.529 138.399 122.49C138.362 122.49 138.324 122.49 138.286 122.49C138.286 122.453 138.286 122.416 138.286 122.377C138.248 122.377 138.211 122.377 138.173 122.377C138.173 122.34 138.173 122.303 138.173 122.264C137.453 121.65 136.675 121.242 135.737 121.078C135.685 121.068 135.634 121.058 135.582 121.047C133.793 120.802 132.098 121.417 130.895 122.759Z" fill="black"/>
<path d="M118.116 116.219C118.206 116.269 118.297 116.319 118.388 116.368C118.613 116.492 118.82 116.625 119.022 116.784C119.022 116.821 119.022 116.859 119.022 116.897C119.052 116.909 119.082 116.92 119.113 116.932C119.309 117.045 119.455 117.199 119.613 117.36C119.645 117.391 119.677 117.422 119.71 117.454C120.268 118.014 120.268 118.014 120.268 118.253C120.306 118.253 120.343 118.253 120.382 118.253C120.827 118.837 121.103 119.566 121.306 120.265C121.32 120.312 121.333 120.359 121.348 120.408C121.591 121.291 121.587 122.149 121.584 123.059C121.584 123.208 121.584 123.357 121.584 123.506C121.584 123.827 121.584 124.147 121.583 124.467C121.583 124.93 121.582 125.393 121.582 125.855C121.582 126.607 121.581 127.358 121.58 128.109C121.579 128.838 121.578 129.567 121.578 130.297C121.578 130.342 121.578 130.388 121.578 130.435C121.577 130.79 121.577 131.146 121.577 131.502C121.576 133.243 121.574 134.983 121.571 136.724C119.122 136.724 116.673 136.724 114.15 136.724C114.147 135.845 114.145 134.966 114.142 134.06C114.14 133.503 114.138 132.946 114.135 132.388C114.132 131.504 114.129 130.62 114.126 129.735C114.124 129.091 114.122 128.447 114.119 127.803C114.118 127.462 114.117 127.121 114.116 126.78C114.115 126.459 114.114 126.137 114.112 125.816C114.112 125.699 114.111 125.581 114.111 125.464C114.11 123.959 113.908 122.684 112.847 121.529C112.69 121.378 112.534 121.232 112.337 121.134C112.337 121.096 112.337 121.059 112.337 121.021C112.271 121 112.271 121 112.203 120.978C111.99 120.905 111.784 120.823 111.576 120.738C110.806 120.439 109.752 120.413 108.977 120.724C108.772 120.815 108.58 120.918 108.387 121.032C108.202 121.134 108.202 121.134 108.032 121.134C108.032 121.171 108.032 121.208 108.032 121.247C107.948 121.318 107.948 121.318 107.833 121.398C107.394 121.694 107.394 121.694 107.069 122.094C107.031 122.094 106.994 122.094 106.955 122.094C106.94 122.127 106.925 122.16 106.909 122.194C106.842 122.319 106.768 122.421 106.679 122.532C106.053 123.36 106.015 124.268 106.019 125.265C106.018 125.39 106.018 125.514 106.017 125.639C106.016 125.975 106.016 126.312 106.016 126.648C106.016 127 106.015 127.353 106.014 127.705C106.012 128.296 106.011 128.886 106.011 129.477C106.01 130.085 106.009 130.693 106.008 131.301C106.008 131.338 106.008 131.376 106.008 131.415C106.007 131.824 106.006 132.234 106.005 132.644C106.005 132.716 106.005 132.787 106.005 132.861C106.004 133.004 106.004 133.147 106.004 133.291C106.003 133.71 106.002 134.13 106.002 134.549C106.001 134.81 106.001 135.07 106 135.33C106 135.451 106 135.572 106 135.693C106 135.857 106 136.022 106 136.186C106 136.259 106 136.259 106 136.333C105.999 136.661 105.999 136.661 105.936 136.724C103.486 136.724 101.037 136.724 98.5142 136.724C98.5142 129.659 98.5142 122.594 98.5142 115.315C100.982 115.315 103.45 115.315 105.992 115.315C106.011 116.024 106.03 116.732 106.049 117.462C106.105 117.387 106.161 117.313 106.219 117.236C106.256 117.236 106.294 117.236 106.332 117.236C106.332 117.199 106.332 117.161 106.332 117.123C106.585 116.897 106.585 116.897 106.729 116.897C106.729 116.86 106.729 116.823 106.729 116.784C106.841 116.689 106.954 116.6 107.072 116.512C107.106 116.487 107.14 116.461 107.175 116.435C107.271 116.363 107.368 116.291 107.465 116.219C107.506 116.189 107.547 116.159 107.588 116.127C108.438 115.506 109.508 115.023 110.531 114.789C110.571 114.78 110.61 114.771 110.65 114.762C113.105 114.247 116.013 114.917 118.116 116.219Z" fill="black"/>
<path d="M165.42 114.865C165.464 114.876 165.508 114.888 165.553 114.9C166.468 115.15 167.287 115.475 168.083 115.994C167.896 116.504 167.649 116.98 167.403 117.463C167.095 118.07 166.797 118.682 166.501 119.295C166.291 119.73 166.079 120.164 165.861 120.594C165.761 120.791 165.665 120.99 165.571 121.189C165.548 121.238 165.525 121.286 165.502 121.336C165.458 121.429 165.415 121.523 165.372 121.617C165.254 121.868 165.128 122.095 164.967 122.321C164.602 122.115 164.602 122.115 164.448 122.016C163.735 121.565 163.018 121.363 162.191 121.248C162.129 121.237 162.066 121.227 162.002 121.216C160.797 121.073 159.645 121.21 158.63 121.905C158.509 121.982 158.509 121.982 158.395 121.982C158.395 122.019 158.395 122.057 158.395 122.095C158.33 122.154 158.263 122.21 158.194 122.264C157.39 122.956 156.907 124.221 156.809 125.258C156.801 125.422 156.8 125.585 156.8 125.748C156.8 125.795 156.8 125.842 156.799 125.891C156.798 126.048 156.798 126.205 156.797 126.362C156.797 126.475 156.796 126.588 156.796 126.701C156.794 127.007 156.793 127.314 156.792 127.62C156.791 127.94 156.789 128.26 156.788 128.58C156.785 129.186 156.782 129.792 156.78 130.398C156.776 131.217 156.773 132.036 156.769 132.855C156.763 134.145 156.758 135.435 156.752 136.725C154.285 136.725 151.817 136.725 149.274 136.725C149.274 129.66 149.274 122.595 149.274 115.316C151.742 115.316 154.21 115.316 156.752 115.316C156.771 116.286 156.79 117.255 156.809 118.254C156.921 118.086 156.921 118.086 157.036 117.915C157.073 117.859 157.111 117.803 157.149 117.745C157.186 117.745 157.224 117.745 157.262 117.745C157.285 117.695 157.285 117.695 157.308 117.644C157.377 117.517 157.448 117.432 157.551 117.33C157.585 117.295 157.62 117.26 157.656 117.224C157.712 117.169 157.712 117.169 157.769 117.113C157.807 117.076 157.845 117.038 157.884 117C158.7 116.202 158.7 116.202 159.132 116.051C159.132 116.014 159.132 115.976 159.132 115.938C159.244 115.901 159.356 115.863 159.472 115.825C159.472 115.788 159.472 115.75 159.472 115.712C161.317 114.739 163.36 114.31 165.42 114.865Z" fill="black"/>
<path d="M187.798 111.361C187.96 111.503 188.116 111.646 188.251 111.813C188.251 111.851 188.251 111.888 188.251 111.926C188.289 111.926 188.326 111.926 188.364 111.926C188.364 111.964 188.364 112.001 188.364 112.039C188.402 112.039 188.439 112.039 188.478 112.039C188.478 112.077 188.478 112.114 188.478 112.152C188.515 112.152 188.553 112.152 188.591 112.152C188.681 112.241 188.681 112.241 188.782 112.361C188.818 112.402 188.853 112.443 188.889 112.486C188.963 112.575 189.036 112.665 189.108 112.756C189.214 112.891 189.214 112.891 189.347 113.018C189.488 113.159 189.613 113.304 189.738 113.459C189.876 113.628 190.013 113.798 190.154 113.965C190.2 114.02 190.246 114.076 190.294 114.133C190.358 114.209 190.358 114.209 190.424 114.287C190.517 114.412 190.517 114.412 190.517 114.525C190.555 114.525 190.592 114.525 190.631 114.525C190.631 114.581 190.631 114.637 190.631 114.694C190.668 114.694 190.705 114.694 190.744 114.694C190.828 114.803 190.905 114.912 190.981 115.026C191.027 115.094 191.072 115.161 191.118 115.228C191.152 115.279 191.152 115.279 191.187 115.331C191.312 115.515 191.445 115.694 191.576 115.874C191.649 115.992 191.674 116.086 191.707 116.219C191.744 116.238 191.782 116.257 191.82 116.276C191.901 116.384 191.979 116.495 192.054 116.608C192.095 116.668 192.136 116.729 192.178 116.791C192.273 116.954 192.273 116.954 192.273 117.123C192.311 117.123 192.348 117.123 192.387 117.123C192.425 117.195 192.463 117.267 192.5 117.339C192.521 117.379 192.542 117.419 192.564 117.46C192.613 117.575 192.613 117.575 192.613 117.745C192.651 117.745 192.688 117.745 192.727 117.745C193.009 118.123 193.204 118.574 193.412 118.996C193.464 119.102 193.517 119.207 193.57 119.313C193.588 119.348 193.606 119.382 193.624 119.418C193.673 119.515 193.721 119.611 193.77 119.707C193.845 119.861 193.914 120.016 193.981 120.173C194.039 120.309 194.102 120.443 194.164 120.578C194.32 120.918 194.461 121.263 194.6 121.61C194.624 121.669 194.647 121.728 194.672 121.789C194.809 122.131 194.935 122.475 195.05 122.826C195.108 123.005 195.169 123.182 195.23 123.36C195.482 124.099 195.717 124.837 195.899 125.596C195.916 125.665 195.933 125.734 195.951 125.804C196.086 126.356 196.194 126.909 196.285 127.47C196.307 127.603 196.329 127.736 196.351 127.87C196.419 128.278 196.481 128.686 196.522 129.099C196.541 129.228 196.56 129.358 196.579 129.487C196.641 129.945 196.665 130.401 196.684 130.862C196.69 130.979 196.698 131.095 196.706 131.21C196.749 131.809 196.758 132.404 196.756 133.004C196.756 133.167 196.756 133.33 196.757 133.493C196.757 133.598 196.757 133.703 196.756 133.808C196.757 133.856 196.757 133.904 196.757 133.954C196.756 134.242 196.731 134.518 196.692 134.804C196.693 134.877 196.694 134.949 196.695 135.024C196.7 135.407 196.648 135.787 196.605 136.167C196.59 136.299 196.575 136.431 196.561 136.563C196.366 138.331 195.963 140.08 195.471 141.787C195.455 141.843 195.439 141.898 195.423 141.956C195.331 142.267 195.225 142.566 195.101 142.866C195.03 143.042 194.972 143.22 194.915 143.401C194.706 144.038 194.45 144.649 194.163 145.256C194.097 145.401 194.037 145.546 193.98 145.695C193.687 146.441 193.275 147.147 192.897 147.852C192.859 147.852 192.822 147.852 192.783 147.852C192.773 147.9 192.773 147.9 192.762 147.948C192.723 148.091 192.67 148.224 192.613 148.361C192.576 148.361 192.539 148.361 192.5 148.361C192.494 148.402 192.488 148.442 192.482 148.484C192.44 148.659 192.378 148.78 192.273 148.926C192.236 148.926 192.199 148.926 192.16 148.926C192.16 148.982 192.16 149.038 192.16 149.095C192.123 149.095 192.085 149.095 192.047 149.095C192.041 149.126 192.035 149.156 192.029 149.187C191.98 149.356 191.902 149.504 191.82 149.66C191.783 149.66 191.745 149.66 191.707 149.66C191.693 149.709 191.68 149.758 191.666 149.808C191.585 150.021 191.482 150.161 191.339 150.338C191.288 150.402 191.236 150.467 191.186 150.531C191.159 150.564 191.133 150.597 191.106 150.631C190.976 150.8 190.853 150.973 190.73 151.146C190.683 151.212 190.636 151.278 190.589 151.344C190.547 151.403 190.504 151.463 190.461 151.524C190.395 151.616 190.329 151.708 190.262 151.8C190.237 151.834 190.212 151.869 190.186 151.905C190.165 151.928 190.143 151.952 190.121 151.976C190.083 151.976 190.046 151.976 190.007 151.976C189.993 152.02 189.979 152.065 189.965 152.11C189.882 152.283 189.833 152.292 189.667 152.372C189.622 152.487 189.622 152.487 189.611 152.597C189.573 152.597 189.536 152.597 189.498 152.597C189.485 152.628 189.472 152.658 189.459 152.689C189.358 152.87 189.24 153.009 189.101 153.162C189.064 153.162 189.026 153.162 188.988 153.162C188.975 153.193 188.962 153.223 188.949 153.254C188.849 153.435 188.731 153.574 188.591 153.727C188.554 153.727 188.516 153.727 188.478 153.727C188.466 153.757 188.455 153.787 188.443 153.817C188.33 154.014 188.177 154.161 188.017 154.32C187.971 154.368 187.971 154.368 187.924 154.418C187.574 154.77 187.181 154.974 186.679 154.984C186.226 154.978 185.911 154.831 185.589 154.518C185.589 154.481 185.589 154.443 185.589 154.405C185.551 154.405 185.514 154.405 185.475 154.405C185.475 154.368 185.475 154.33 185.475 154.292C185.419 154.273 185.363 154.255 185.305 154.236C185.051 153.879 185.03 153.471 185.079 153.049C185.121 152.885 185.176 152.753 185.249 152.597C185.265 152.557 185.281 152.516 185.298 152.474C185.392 152.324 185.519 152.213 185.645 152.089C185.694 152.039 185.743 151.989 185.793 151.938C185.841 151.889 185.889 151.84 185.939 151.789C185.988 151.739 186.036 151.689 186.087 151.638C186.212 151.524 186.212 151.524 186.325 151.524C186.339 151.48 186.353 151.436 186.367 151.39C186.451 151.215 186.499 151.211 186.665 151.129C186.703 151.035 186.741 150.941 186.778 150.846C186.92 150.687 186.92 150.687 187.061 150.564C187.099 150.564 187.136 150.564 187.175 150.564C187.193 150.489 187.212 150.415 187.231 150.338C187.269 150.338 187.306 150.338 187.345 150.338C187.363 150.263 187.382 150.189 187.401 150.112C187.439 150.112 187.476 150.112 187.515 150.112C187.534 150.069 187.534 150.069 187.554 150.025C187.658 149.831 187.784 149.655 187.911 149.477C187.937 149.44 187.962 149.403 187.989 149.365C188.054 149.273 188.124 149.184 188.195 149.095C188.232 149.095 188.269 149.095 188.308 149.095C188.327 149.021 188.345 148.946 188.364 148.869C188.402 148.869 188.439 148.869 188.478 148.869C188.495 148.825 188.513 148.781 188.531 148.735C188.591 148.587 188.591 148.587 188.648 148.474C188.685 148.474 188.723 148.474 188.761 148.474C188.773 148.427 188.784 148.381 188.796 148.333C188.864 148.161 188.919 148.067 189.03 147.927C189.201 147.709 189.329 147.481 189.459 147.237C189.566 147.039 189.681 146.848 189.798 146.656C189.984 146.35 190.165 146.042 190.34 145.731C190.361 145.694 190.382 145.657 190.404 145.619C190.576 145.312 190.733 144.999 190.878 144.679C191.027 144.35 191.027 144.35 191.088 144.219C191.282 143.8 191.459 143.376 191.633 142.949C191.66 142.882 191.688 142.814 191.716 142.745C191.87 142.367 192.011 141.991 192.127 141.599C192.187 141.4 192.248 141.201 192.31 141.002C192.537 140.279 192.734 139.555 192.897 138.814C192.911 138.75 192.911 138.75 192.926 138.685C193.075 138.021 193.178 137.351 193.275 136.679C193.282 136.637 193.288 136.595 193.294 136.552C193.377 135.988 193.431 135.429 193.463 134.86C193.471 134.753 193.471 134.753 193.479 134.643C193.519 134.07 193.533 133.5 193.534 132.926C193.534 132.878 193.534 132.831 193.534 132.783C193.533 131.241 193.383 129.715 193.123 128.195C193.112 128.127 193.112 128.127 193.1 128.058C192.703 125.734 191.989 123.356 190.892 121.261C190.747 120.983 190.645 120.705 190.574 120.399C190.536 120.399 190.499 120.399 190.461 120.399C190.438 120.352 190.438 120.352 190.415 120.304C190.117 119.697 189.78 119.115 189.404 118.553C189.333 118.431 189.296 118.334 189.271 118.196C189.234 118.196 189.196 118.196 189.158 118.196C188.988 117.872 188.988 117.872 188.988 117.745C188.95 117.745 188.913 117.745 188.874 117.745C188.796 117.628 188.725 117.513 188.655 117.392C188.522 117.163 188.391 116.965 188.195 116.784C188.025 116.585 188.025 116.585 188.025 116.389C187.968 116.37 187.912 116.352 187.855 116.332C187.787 116.188 187.787 116.188 187.741 116.05C187.704 116.05 187.667 116.05 187.628 116.05C187.628 115.994 187.628 115.938 187.628 115.88C187.572 115.862 187.516 115.843 187.458 115.824C187.231 115.572 187.231 115.572 187.231 115.429C187.175 115.41 187.119 115.391 187.061 115.372C186.974 115.276 186.891 115.177 186.81 115.076C186.767 115.022 186.724 114.968 186.679 114.912C186.596 114.807 186.513 114.701 186.43 114.595C186.33 114.464 186.33 114.464 186.198 114.373C186.165 114.348 186.132 114.324 186.098 114.299C186.098 114.262 186.098 114.224 186.098 114.186C186.061 114.186 186.024 114.186 185.985 114.186C185.702 113.876 185.702 113.876 185.702 113.734C185.664 113.734 185.627 113.734 185.589 113.734C185.589 113.697 185.589 113.659 185.589 113.621C185.532 113.602 185.476 113.584 185.419 113.564C185.147 113.158 185.074 112.744 185.135 112.265C185.172 112.101 185.226 111.962 185.305 111.813C185.323 111.779 185.341 111.745 185.36 111.71C185.591 111.334 185.989 111.11 186.41 110.998C186.956 110.907 187.359 111.03 187.798 111.361Z" fill="black"/>
<path d="M181.691 117.275C182.057 117.539 182.333 117.898 182.606 118.252C182.692 118.371 182.692 118.371 182.813 118.422C182.813 118.459 182.813 118.497 182.813 118.535C182.851 118.535 182.888 118.535 182.927 118.535C182.997 118.631 183.066 118.727 183.133 118.825C183.214 118.942 183.214 118.942 183.352 119.068C183.502 119.222 183.6 119.378 183.71 119.561C183.776 119.672 183.776 119.672 183.886 119.774C184.07 119.958 184.213 120.175 184.343 120.399C184.343 120.436 184.343 120.474 184.343 120.512C184.38 120.512 184.418 120.512 184.456 120.512C184.527 120.604 184.527 120.604 184.606 120.731C184.65 120.801 184.65 120.801 184.694 120.872C184.724 120.921 184.754 120.97 184.786 121.021C184.815 121.068 184.845 121.115 184.875 121.164C184.934 121.259 184.993 121.353 185.051 121.448C185.107 121.538 185.163 121.627 185.221 121.716C185.247 121.755 185.273 121.795 185.3 121.836C185.334 121.888 185.334 121.888 185.37 121.942C185.419 122.037 185.419 122.037 185.419 122.207C185.457 122.225 185.494 122.244 185.533 122.263C185.611 122.396 185.684 122.529 185.756 122.666C185.775 122.703 185.795 122.739 185.815 122.777C185.941 123.016 186.05 123.258 186.156 123.506C186.209 123.612 186.264 123.718 186.319 123.824C186.473 124.128 186.599 124.436 186.717 124.755C186.764 124.878 186.815 124.999 186.868 125.119C187.075 125.615 187.222 126.135 187.381 126.648C187.398 126.703 187.415 126.757 187.433 126.813C187.526 127.119 187.604 127.421 187.662 127.735C187.683 127.843 187.712 127.948 187.742 128.053C187.799 128.251 187.841 128.447 187.88 128.649C187.903 128.769 187.928 128.889 187.953 129.009C188.076 129.61 188.134 130.21 188.183 130.821C188.194 130.952 188.209 131.082 188.224 131.213C188.445 133.154 188.314 135.261 187.883 137.165C187.842 137.348 187.809 137.532 187.774 137.716C187.686 138.158 187.567 138.588 187.441 139.02C187.403 139.152 187.366 139.283 187.33 139.415C186.995 140.615 186.49 141.77 185.929 142.881C185.901 142.939 185.901 142.939 185.872 142.998C185.741 143.262 185.601 143.521 185.455 143.778C185.433 143.817 185.411 143.856 185.388 143.896C185.323 144.01 185.258 144.123 185.193 144.237C185.158 144.298 185.124 144.358 185.088 144.421C185.043 144.498 185.043 144.498 184.998 144.576C184.972 144.62 184.947 144.664 184.92 144.71C184.898 144.74 184.876 144.771 184.853 144.802C184.815 144.802 184.778 144.802 184.74 144.802C184.724 144.868 184.724 144.868 184.708 144.936C184.593 145.225 184.412 145.456 184.23 145.706C184.192 145.762 184.155 145.818 184.116 145.875C184.079 145.875 184.042 145.875 184.003 145.875C183.987 145.918 183.97 145.961 183.953 146.006C183.89 146.158 183.89 146.158 183.776 146.327C183.739 146.327 183.702 146.327 183.663 146.327C183.663 146.383 183.663 146.439 183.663 146.496C183.589 146.573 183.513 146.648 183.437 146.722C183.4 146.777 183.364 146.832 183.327 146.888C183.208 147.064 183.079 147.196 182.927 147.344C182.875 147.406 182.825 147.468 182.774 147.531C182.731 147.581 182.688 147.631 182.643 147.683C182.606 147.683 182.569 147.683 182.53 147.683C182.516 147.725 182.502 147.767 182.488 147.81C182.411 147.978 182.331 148.072 182.19 148.191C182.153 148.191 182.115 148.191 182.077 148.191C182.077 148.228 182.077 148.266 182.077 148.304C182.04 148.304 182.002 148.304 181.964 148.304C181.964 148.341 181.964 148.379 181.964 148.417C181.926 148.417 181.889 148.417 181.85 148.417C181.85 148.454 181.85 148.492 181.85 148.53C181.813 148.53 181.776 148.53 181.737 148.53C181.718 148.586 181.7 148.642 181.68 148.7C181.252 148.957 180.814 149.048 180.321 148.982C180.158 148.938 180.021 148.883 179.867 148.812C179.867 148.775 179.867 148.738 179.867 148.7C179.834 148.685 179.801 148.67 179.767 148.654C179.42 148.468 179.19 148.168 179.074 147.796C178.979 147.294 179.074 146.893 179.301 146.44C179.338 146.44 179.376 146.44 179.414 146.44C179.429 146.406 179.444 146.372 179.459 146.337C179.532 146.205 179.6 146.143 179.719 146.052C179.856 145.94 179.958 145.839 180.052 145.688C180.151 145.536 180.151 145.536 180.321 145.48C180.359 145.386 180.397 145.292 180.434 145.197C180.547 145.067 180.547 145.067 180.661 144.971C180.698 144.971 180.735 144.971 180.774 144.971C180.793 144.897 180.811 144.822 180.831 144.745C180.868 144.745 180.905 144.745 180.944 144.745C180.967 144.698 180.967 144.698 180.99 144.65C181.063 144.507 181.138 144.37 181.227 144.237C181.265 144.237 181.302 144.237 181.34 144.237C181.34 144.181 181.34 144.125 181.34 144.068C181.378 144.068 181.415 144.068 181.454 144.068C181.454 144.03 181.454 143.993 181.454 143.955C181.491 143.955 181.529 143.955 181.567 143.955C181.586 143.861 181.604 143.768 181.624 143.672C181.661 143.672 181.698 143.672 181.737 143.672C181.751 143.634 181.765 143.595 181.779 143.556C181.864 143.358 181.967 143.18 182.077 142.994C182.114 142.994 182.152 142.994 182.19 142.994C182.204 142.957 182.218 142.92 182.233 142.881C182.322 142.669 182.425 142.465 182.53 142.26C182.568 142.26 182.605 142.26 182.643 142.26C182.675 142.153 182.675 142.153 182.707 142.045C182.796 141.778 182.922 141.547 183.059 141.302C183.553 140.399 183.956 139.41 184.23 138.419C184.249 138.35 184.268 138.282 184.287 138.212C184.412 137.756 184.523 137.298 184.626 136.837C184.635 136.802 184.643 136.768 184.652 136.732C184.742 136.358 184.792 135.979 184.842 135.597C184.856 135.485 184.871 135.373 184.886 135.261C184.914 135.052 184.94 134.843 184.966 134.634C184.972 134.585 184.979 134.535 184.985 134.485C185.033 134.068 185.034 133.651 185.033 133.232C185.033 133.194 185.034 133.155 185.034 133.115C185.034 132.45 185.001 131.792 184.945 131.129C184.94 131.065 184.934 131.001 184.929 130.935C184.924 130.879 184.919 130.822 184.913 130.764C184.909 130.623 184.909 130.623 184.966 130.454C184.929 130.454 184.891 130.454 184.853 130.454C184.848 130.408 184.843 130.362 184.838 130.314C184.678 128.966 184.343 127.59 183.833 126.33C183.814 126.284 183.796 126.237 183.776 126.189C183.516 125.544 183.252 124.909 182.909 124.302C182.757 124.03 182.757 124.03 182.757 123.845C182.719 123.845 182.682 123.845 182.643 123.845C182.614 123.783 182.585 123.721 182.555 123.658C182.302 123.155 181.971 122.694 181.652 122.231C181.567 122.094 181.567 122.094 181.567 121.981C181.53 121.981 181.492 121.981 181.454 121.981C181.227 121.675 181.227 121.675 181.227 121.529C181.19 121.529 181.152 121.529 181.114 121.529C180.984 121.384 180.944 121.332 180.944 121.134C180.888 121.115 180.832 121.096 180.774 121.077C180.774 121.04 180.774 121.002 180.774 120.964C180.69 120.936 180.69 120.936 180.604 120.908C180.596 120.871 180.588 120.835 180.579 120.798C180.569 120.76 180.558 120.721 180.547 120.682C180.496 120.656 180.496 120.656 180.444 120.631C180.303 120.56 180.234 120.484 180.133 120.364C180.082 120.304 180.082 120.304 180.03 120.243C179.995 120.201 179.96 120.16 179.924 120.117C179.854 120.035 179.783 119.954 179.712 119.873C179.68 119.837 179.649 119.801 179.617 119.764C179.53 119.665 179.53 119.665 179.439 119.581C179.183 119.312 179.115 118.977 179.106 118.616C179.117 118.313 179.155 118.068 179.301 117.801C179.328 117.75 179.328 117.75 179.355 117.697C179.558 117.368 179.897 117.15 180.263 117.03C180.765 116.944 181.253 117.009 181.691 117.275Z" fill="black"/>
<path d="M169.727 129.211C169.963 129.409 170.186 129.619 170.407 129.833C170.441 129.864 170.476 129.896 170.511 129.929C170.577 130.002 170.577 130.002 170.577 130.115C170.614 130.115 170.652 130.115 170.69 130.115C170.69 130.171 170.69 130.227 170.69 130.285C170.728 130.285 170.765 130.285 170.804 130.285C171.437 131.078 171.687 132.1 171.678 133.095C171.678 133.164 171.677 133.233 171.677 133.305C171.66 134.241 171.399 135.018 170.917 135.82C170.879 135.82 170.842 135.82 170.804 135.82C170.793 135.858 170.783 135.895 170.772 135.933C170.656 136.174 170.488 136.371 170.294 136.555C170.256 136.555 170.219 136.555 170.18 136.555C170.18 136.592 170.18 136.629 170.18 136.668C170.143 136.668 170.106 136.668 170.067 136.668C170.067 136.705 170.067 136.742 170.067 136.781C169.871 136.95 169.871 136.95 169.727 136.95C169.727 136.987 169.727 137.025 169.727 137.063C169.367 137.329 168.948 137.511 168.537 137.684C168.494 137.703 168.45 137.722 168.404 137.741C167.913 137.926 167.392 137.929 166.873 137.928C166.809 137.929 166.745 137.93 166.679 137.931C165.45 137.931 164.388 137.451 163.503 136.619C163.042 136.157 163.042 136.157 163.042 135.99C163.005 135.99 162.967 135.99 162.929 135.99C162.142 135.017 161.91 133.699 162.034 132.484C162.178 131.4 162.687 130.5 163.439 129.72C163.473 129.683 163.507 129.647 163.543 129.609C163.619 129.53 163.698 129.455 163.779 129.381C163.816 129.381 163.853 129.381 163.892 129.381C163.892 129.343 163.892 129.306 163.892 129.268C165.469 127.891 168.11 128.007 169.727 129.211Z" fill="black"/>
<path d="M175.561 123.223C175.561 123.26 175.561 123.297 175.561 123.336C175.598 123.336 175.636 123.336 175.674 123.336C175.674 123.373 175.674 123.41 175.674 123.449C175.706 123.462 175.738 123.475 175.771 123.489C175.93 123.578 176.041 123.687 176.17 123.816C176.215 123.861 176.26 123.906 176.307 123.952C176.411 124.07 176.411 124.07 176.411 124.183C176.467 124.202 176.523 124.22 176.581 124.24C176.672 124.34 176.672 124.34 176.761 124.462C176.791 124.502 176.821 124.542 176.852 124.584C176.921 124.691 176.921 124.691 176.921 124.804C176.958 124.804 176.995 124.804 177.034 124.804C177.034 124.86 177.034 124.916 177.034 124.974C177.071 124.974 177.109 124.974 177.147 124.974C177.39 125.27 177.585 125.601 177.77 125.934C177.82 126.011 177.869 126.087 177.919 126.164C178.035 126.345 178.1 126.52 178.167 126.725C178.192 126.748 178.217 126.77 178.243 126.793C178.382 126.943 178.449 127.122 178.528 127.308C178.545 127.348 178.563 127.388 178.58 127.429C178.742 127.81 178.883 128.197 179.017 128.589C179.04 128.656 179.04 128.656 179.064 128.723C179.255 129.278 179.418 129.837 179.504 130.418C179.519 130.515 179.536 130.612 179.556 130.709C179.592 130.896 179.607 131.083 179.624 131.272C179.638 131.413 179.638 131.413 179.668 131.55C179.821 132.333 179.768 133.169 179.728 133.962C179.726 134.007 179.724 134.052 179.722 134.098C179.708 134.337 179.684 134.567 179.64 134.803C179.625 134.892 179.61 134.982 179.595 135.072C179.353 136.477 178.959 137.841 178.28 139.103C178.222 139.212 178.165 139.321 178.108 139.431C177.635 140.339 177.635 140.339 177.374 140.677C177.336 140.677 177.299 140.677 177.26 140.677C177.245 140.718 177.23 140.759 177.214 140.801C177.147 140.96 177.075 141.1 176.977 141.242C176.94 141.242 176.902 141.242 176.864 141.242C176.848 141.276 176.833 141.309 176.817 141.343C176.753 141.464 176.685 141.556 176.596 141.66C176.566 141.695 176.536 141.73 176.505 141.767C176.472 141.803 176.44 141.84 176.407 141.878C176.374 141.916 176.341 141.953 176.307 141.992C175.871 142.485 175.467 142.936 174.775 142.986C174.228 143.013 173.957 142.884 173.553 142.526C173.465 142.429 173.465 142.429 173.408 142.259C173.371 142.259 173.333 142.259 173.295 142.259C173.022 141.843 173.018 141.448 173.068 140.96C173.169 140.512 173.491 140.206 173.805 139.887C173.848 139.842 173.848 139.842 173.893 139.796C173.996 139.692 174.102 139.591 174.208 139.491C174.365 139.325 174.463 139.135 174.573 138.937C174.6 138.896 174.627 138.855 174.654 138.813C174.692 138.813 174.729 138.813 174.768 138.813C174.784 138.761 174.8 138.708 174.817 138.654C174.881 138.474 174.881 138.474 174.994 138.305C175.032 138.305 175.069 138.305 175.108 138.305C175.122 138.259 175.136 138.212 175.151 138.165C175.232 137.934 175.334 137.72 175.44 137.5C176.138 136.037 176.492 134.538 176.492 132.917C176.492 132.874 176.492 132.83 176.492 132.785C176.492 131.965 176.388 131.192 176.184 130.397C176.168 130.333 176.168 130.333 176.152 130.268C176.046 129.845 175.908 129.439 175.731 129.041C175.715 129.005 175.699 128.969 175.682 128.932C175.486 128.495 175.291 128.069 175.013 127.678C174.711 127.253 174.711 127.253 174.711 127.064C174.674 127.064 174.636 127.064 174.598 127.064C174.371 126.818 174.371 126.818 174.371 126.612C174.334 126.612 174.296 126.612 174.258 126.612C174.258 126.556 174.258 126.5 174.258 126.443C174.174 126.415 174.174 126.415 174.088 126.386C173.997 126.298 173.997 126.298 173.907 126.192C173.877 126.157 173.847 126.122 173.816 126.086C173.748 125.991 173.748 125.991 173.748 125.878C173.711 125.878 173.673 125.878 173.635 125.878C173.635 125.84 173.635 125.803 173.635 125.765C173.597 125.765 173.56 125.765 173.521 125.765C173.173 125.395 173.09 124.988 173.054 124.497C173.081 124.107 173.237 123.724 173.521 123.449C174.208 122.979 174.795 122.841 175.561 123.223Z" fill="black"/>
</g>
<defs>
<filter id="filter0_d_25348_19797" x="27.4385" y="31.4385" width="189.123" height="189.123" filterUnits="userSpaceOnUse" color-interpolation-filters="sRGB">
<feFlood flood-opacity="0" result="BackgroundImageFix"/>
<feColorMatrix in="SourceAlpha" type="matrix" values="0 0 0 0 0 0 0 0 0 0 0 0 0 0 0 0 0 0 127 0" result="hardAlpha"/>
<feOffset dy="4"/>
<feGaussianBlur stdDeviation="2"/>
<feComposite in2="hardAlpha" operator="out"/>
<feColorMatrix type="matrix" values="0 0 0 0 0 0 0 0 0 0 0 0 0 0 0 0 0 0 0.25 0"/>
<feBlend mode="normal" in2="BackgroundImageFix" result="effect1_dropShadow_25348_19797"/>
<feBlend mode="normal" in="SourceGraphic" in2="effect1_dropShadow_25348_19797" result="shape"/>
</filter>
<linearGradient id="paint0_linear_25348_19797" x1="122" y1="31.4385" x2="122" y2="212.562" gradientUnits="userSpaceOnUse">
<stop stop-color="#FF7DD0"/>
<stop offset="1" stop-color="#F7009E"/>
</linearGradient>
<clipPath id="clip0_25348_19797">
<rect width="150" height="130" fill="white" transform="translate(47 57)"/>
</clipPath>
</defs>
</svg>
