<svg width="25" height="25" viewBox="0 0 25 25" fill="none" xmlns="http://www.w3.org/2000/svg">
<g clip-path="url(#clip0_26208_145)">
<path d="M11.8188 19.4783C11.8192 18.292 12.1393 17.1278 12.7453 16.1081C13.3514 15.0884 14.2211 14.2509 15.263 13.6837C16.3048 13.1165 17.4803 12.8405 18.6657 12.8849C19.8511 12.9293 21.0026 13.2923 21.9992 13.9358C22.0062 13.4469 22.0099 12.9252 22.0099 12.3622C22.0099 9.46766 21.9115 7.66109 21.717 5.78984H21.7446C21.6371 4.74712 21.2388 3.75556 20.5953 2.92808C19.9518 2.10059 19.0889 1.47044 18.1048 1.10938C18.0527 1.08969 18.0007 1.07094 17.9482 1.05313C17.5593 0.922396 17.1572 0.834838 16.7492 0.792031L16.7102 0.787813C15.1535 0.627969 14.9037 0.5 11.621 0.5C8.33837 0.5 7.80727 0.627969 6.25196 0.790156L6.21306 0.794375C5.78471 0.839359 5.363 0.933736 4.95634 1.07563V1.05453C3.94235 1.39929 3.04848 2.02754 2.38068 2.86483C1.71287 3.70212 1.29914 4.71333 1.18852 5.77859C0.993525 7.65359 0.89415 9.46203 0.89415 12.3622C0.89415 15.2623 0.993525 17.0708 1.18852 18.9458C1.32168 20.2253 1.89083 21.42 2.80049 22.3296C3.71015 23.2392 4.90497 23.8082 6.18446 23.9412L6.22337 23.9455C7.78009 24.1077 8.02946 24.2356 11.3121 24.2356C12.3996 24.2356 13.1871 24.2216 13.8054 24.1967C13.1758 23.5829 12.6756 22.8491 12.3344 22.0386C11.9931 21.2282 11.8179 20.3576 11.8188 19.4783ZM6.33446 6.74141H16.5677C16.8639 6.74141 17.1479 6.85904 17.3573 7.06844C17.5667 7.27784 17.6843 7.56184 17.6843 7.85797C17.6843 8.1541 17.5667 8.4381 17.3573 8.6475C17.1479 8.85689 16.8639 8.97453 16.5677 8.97453H6.33681C6.04068 8.97453 5.75667 8.85689 5.54728 8.6475C5.33788 8.4381 5.22024 8.1541 5.22024 7.85797C5.22024 7.56184 5.33788 7.27784 5.54728 7.06844C5.75667 6.85904 6.04068 6.74141 6.33681 6.74141H6.33446ZM6.33446 13.7525C6.04223 13.7465 5.76399 13.6262 5.55943 13.4174C5.35488 13.2086 5.24031 12.928 5.24031 12.6357C5.24031 12.3434 5.35488 12.0628 5.55943 11.854C5.76399 11.6452 6.04223 11.5249 6.33446 11.5189H12.1709C12.3195 11.5159 12.4672 11.5425 12.6053 11.5973C12.7435 11.652 12.8693 11.7338 12.9755 11.8378C13.0816 11.9418 13.166 12.0659 13.2235 12.203C13.2811 12.34 13.3108 12.4871 13.3108 12.6357C13.3108 12.7843 13.2811 12.9314 13.2235 13.0685C13.166 13.2055 13.0816 13.3296 12.9755 13.4336C12.8693 13.5376 12.7435 13.6194 12.6053 13.6742C12.4672 13.7289 12.3195 13.7555 12.1709 13.7525H6.33446Z" fill="url(#paint0_linear_26208_145)"/>
<path d="M18.4174 14.4565C17.4242 14.4565 16.4533 14.7511 15.6275 15.3029C14.8017 15.8546 14.158 16.6389 13.778 17.5565C13.3979 18.4741 13.2984 19.4838 13.4922 20.458C13.686 21.4321 14.1642 22.3269 14.8665 23.0292C15.5688 23.7315 16.4636 24.2097 17.4377 24.4035C18.4119 24.5973 19.4216 24.4978 20.3392 24.1177C21.2568 23.7376 22.041 23.094 22.5928 22.2682C23.1446 21.4424 23.4391 20.4715 23.4391 19.4783C23.4391 18.1464 22.9101 16.8691 21.9683 15.9274C21.0266 14.9856 19.7493 14.4565 18.4174 14.4565ZM20.4077 20.2133H18.3176C18.1591 20.2133 18.0071 20.1503 17.895 20.0382C17.7829 19.9261 17.7199 19.7741 17.7199 19.6156V16.4047C17.7199 16.2462 17.7829 16.0941 17.895 15.9821C18.0071 15.87 18.1591 15.807 18.3176 15.807C18.4761 15.807 18.6281 15.87 18.7402 15.9821C18.8523 16.0941 18.9152 16.2462 18.9152 16.4047V19.0179H20.4077C20.5662 19.0179 20.7183 19.0809 20.8303 19.193C20.9424 19.3051 21.0054 19.4571 21.0054 19.6156C21.0054 19.7741 20.9424 19.9261 20.8303 20.0382C20.7183 20.1503 20.5662 20.2133 20.4077 20.2133Z" fill="url(#paint1_linear_26208_145)"/>
</g>
<defs>
<linearGradient id="paint0_linear_26208_145" x1="11.452" y1="0.5" x2="11.452" y2="24.2356" gradientUnits="userSpaceOnUse">
<stop stop-color="#FF7DD0"/>
<stop offset="1" stop-color="#F7009E"/>
</linearGradient>
<linearGradient id="paint1_linear_26208_145" x1="18.4174" y1="14.4565" x2="18.4174" y2="24.5" gradientUnits="userSpaceOnUse">
<stop stop-color="#FF7DD0"/>
<stop offset="1" stop-color="#F7009E"/>
</linearGradient>
<clipPath id="clip0_26208_145">
<rect width="24" height="24" fill="white" transform="translate(0.166656 0.5)"/>
</clipPath>
</defs>
</svg>
