<svg width="25" height="25" viewBox="0 0 25 25" fill="none" xmlns="http://www.w3.org/2000/svg">
<path fill-rule="evenodd" clip-rule="evenodd" d="M3.16833 8.375C2.62833 9.502 2.81833 10.821 3.19833 13.458L3.47633 15.395C3.96333 18.783 4.20733 20.476 5.38233 21.488C6.55733 22.5 8.28033 22.5 11.7273 22.5H13.9393C17.3863 22.5 19.1093 22.5 20.2843 21.488C21.4593 20.476 21.7033 18.783 22.1903 15.395L22.4693 13.458C22.8493 10.821 23.0393 9.502 22.4983 8.375C21.9573 7.248 20.8073 6.562 18.5063 5.192L17.1213 4.367C15.0333 3.122 13.9873 2.5 12.8333 2.5C11.6793 2.5 10.6343 3.122 8.54533 4.367L7.16033 5.192C4.86033 6.562 3.70933 7.248 3.16833 8.375ZM9.08333 18.5C9.08333 18.3011 9.16234 18.1103 9.303 17.9697C9.44365 17.829 9.63441 17.75 9.83333 17.75H15.8333C16.0322 17.75 16.223 17.829 16.3637 17.9697C16.5043 18.1103 16.5833 18.3011 16.5833 18.5C16.5833 18.6989 16.5043 18.8897 16.3637 19.0303C16.223 19.171 16.0322 19.25 15.8333 19.25H9.83333C9.63441 19.25 9.44365 19.171 9.303 19.0303C9.16234 18.8897 9.08333 18.6989 9.08333 18.5Z" fill="url(#paint0_linear_26208_429)"/>
<defs>
<linearGradient id="paint0_linear_26208_429" x1="12.8337" y1="2.5" x2="12.8337" y2="22.5" gradientUnits="userSpaceOnUse">
<stop stop-color="#FF7DD0"/>
<stop offset="1" stop-color="#F7009E"/>
</linearGradient>
</defs>
</svg>
