<svg width="21" height="23" viewBox="0 0 21 23" fill="none" xmlns="http://www.w3.org/2000/svg">
<path d="M10.4375 1.5H10.5625C12.6528 1.49998 14.2247 1.50148 15.4375 1.68262C16.6632 1.86573 17.5227 2.23277 18.1816 2.96484C18.8405 3.69703 19.1702 4.65203 19.335 6.01367C19.4985 7.36487 19.5 9.11714 19.5 11.4482C19.5 13.7803 19.4984 15.6355 19.335 16.9863C19.1702 18.3479 18.8405 19.303 18.1816 20.0352C17.5227 20.7672 16.6633 21.1343 15.4375 21.3174C14.2247 21.4985 12.6528 21.5 10.5625 21.5H10.4375C8.34726 21.5 6.77532 21.4985 5.56249 21.3174C4.33673 21.1343 3.47721 20.7672 2.81835 20.0352C2.15941 19.303 1.8298 18.3479 1.66503 16.9863C1.50158 15.6354 1.49998 13.7802 1.49999 11.4482C1.49998 9.11705 1.50153 7.36488 1.66503 6.01367C1.8298 4.65205 2.15939 3.69704 2.81835 2.96484C3.47721 2.23278 4.33675 1.86573 5.56249 1.68262C6.47218 1.54675 7.58392 1.51194 8.96484 1.50293L10.4375 1.5ZM14.5 1.78125L13.7822 1.75C12.8671 1.7111 11.7841 1.71094 10.5 1.71094C9.2159 1.71094 8.13296 1.7111 7.21777 1.75L6.49999 1.78125V9.32617C6.5 9.98341 6.52564 10.5032 6.57226 10.8311L6.69823 11.7168L7.54882 11.4375C7.79636 11.3562 8.06275 11.2026 8.32616 11.0225L8.34667 11.0088L8.36718 10.9932C8.62704 10.7888 9.03298 10.4754 9.40527 10.2021C9.59198 10.0651 9.76515 9.94201 9.90429 9.84863C10.0692 9.73797 10.1219 9.71394 10.0996 9.72266L10.1338 9.70898L10.167 9.69238C10.2904 9.62949 10.3925 9.59863 10.5 9.59863C10.6074 9.59863 10.7096 9.62949 10.833 9.69238L10.8652 9.70898L10.8975 9.72168C10.8747 9.71271 10.9266 9.73616 11.0908 9.84668C11.2298 9.94019 11.4036 10.0639 11.5908 10.2012C11.9642 10.475 12.3729 10.7891 12.6348 10.9941L12.6533 11.0088L12.6738 11.0225C12.9421 11.2059 13.2178 11.3612 13.4619 11.4414L14.3125 11.7207L14.4385 10.834C14.4861 10.499 14.5 9.96649 14.5 9.32617V1.78125Z" fill="url(#paint0_linear_26208_829)" stroke="url(#paint1_linear_26208_829)" stroke-width="1.5"/>
<defs>
<linearGradient id="paint0_linear_26208_829" x1="10.5" y1="0.75" x2="10.5" y2="22.25" gradientUnits="userSpaceOnUse">
<stop stop-color="#FF7DD0"/>
<stop offset="1" stop-color="#F7009E"/>
</linearGradient>
<linearGradient id="paint1_linear_26208_829" x1="10.5" y1="0.75" x2="10.5" y2="22.25" gradientUnits="userSpaceOnUse">
<stop stop-color="#FF7DD0"/>
<stop offset="1" stop-color="#F7009E"/>
</linearGradient>
</defs>
</svg>
