<svg width="20" height="20" viewBox="0 0 20 20" fill="none" xmlns="http://www.w3.org/2000/svg">
<g clip-path="url(#clip0_25330_3603)">
<path d="M3.36255 11.1041C6.26418 9.06943 10.3366 9.14759 13.8499 11.7975V11.7985C15.0817 12.8952 16.1083 14.5224 16.3176 16.193L16.3489 16.528C16.3798 17.3727 16.2009 18.1822 15.6741 18.8453L15.5637 18.9762C15.0423 19.5331 14.3317 19.859 13.5823 19.9537L13.259 19.9801C13.1482 19.9817 13.0369 19.9821 12.926 19.9821C12.8629 19.9823 12.8627 19.9828 12.7981 19.983C12.6569 19.9835 12.5155 19.9829 12.3743 19.983C12.2728 19.9833 12.171 19.9837 12.0696 19.984C11.7656 19.9848 11.4615 19.9856 11.1575 19.986C11.0426 19.9861 10.9276 19.9858 10.8127 19.986C10.3057 19.9867 9.79834 19.9876 9.29126 19.9879H8.82642C8.32848 19.9882 7.8302 19.9896 7.33228 19.9908C6.81991 19.9921 6.30754 19.9927 5.79517 19.9928C5.5079 19.9929 5.22015 19.9937 4.93286 19.9948C4.66241 19.9957 4.39181 19.9952 4.12134 19.9948C4.02271 19.9947 3.92407 19.9952 3.82544 19.9957C2.6854 20.0016 1.63779 19.8337 0.792236 19.0104H0.793213C0.180372 18.3764 0.00274478 17.5497 0.00708008 16.692L0.0266113 16.3541C0.0898124 15.682 0.293691 15.0321 0.576416 14.4166L0.723877 14.1119C0.735383 14.0885 0.747179 14.0648 0.759033 14.0406C1.25473 13.0322 2.02255 12.1393 2.90845 11.4401L3.29517 11.152C3.31741 11.1362 3.33963 11.1204 3.36255 11.1041Z" fill="#F8FAFC" stroke="#F8FAFC" stroke-width="0.046875"/>
<path d="M8.33032 0.00927734C9.50996 0.00879975 10.5418 0.50634 11.3899 1.30615L11.3909 1.30713H11.3918V1.30811H11.3928L11.3938 1.30908V1.31006H11.3948V1.31104H11.3958V1.31201H11.3967L11.3987 1.31396L11.3997 1.31494H11.4006V1.31592H11.4016V1.31689H11.4026V1.31787H11.4036L11.4045 1.31885V1.31982H11.4055V1.3208H11.4065L11.4084 1.32275L11.4094 1.32373H11.4104V1.32471H11.4114V1.32568H11.4124V1.32666H11.4133L11.4143 1.32764V1.32861H11.4153V1.32959H11.4163V1.33057H11.4172L11.4192 1.33252H11.4202V1.3335H11.4211V1.33447H11.4221V1.33545H11.4231V1.33643H11.4241L11.425 1.3374V1.33838H11.426V1.33936H11.427L11.428 1.34033L11.429 1.34131L11.4299 1.34229H11.4309V1.34326H11.4319V1.34424H11.4329V1.34521H11.4338L11.4348 1.34619V1.34717H11.4358V1.34814H11.4368V1.34912H11.4377L11.4387 1.3501L11.4397 1.35107H11.4407V1.35205H11.4417V1.35303H11.4426V1.354H11.4436L11.4446 1.35498V1.35596H11.4456V1.35693H11.4465V1.35791H11.4475L11.4504 1.36084H11.4514V1.36182H11.4524V1.36279H11.4534V1.36377H11.4543L11.4553 1.36475V1.36572H11.4563V1.3667H11.4573V1.36768H11.4583L11.4592 1.36865L11.4602 1.36963H11.4612V1.37061H11.4622V1.37158H11.4631V1.37256H11.4641V1.37354H11.4651L11.4661 1.37451V1.37549H11.467V1.37646H11.468V1.37744H11.469L11.6233 1.53174C12.313 2.26653 12.6546 3.26795 12.7405 4.26318L12.7551 4.47607C12.7837 5.72288 12.325 6.87746 11.4768 7.78564C10.6655 8.62611 9.56527 9.12863 8.39575 9.16455C7.18207 9.18229 6.10702 8.85288 5.17114 8.06787L5.07349 7.98877H5.07446C4.25878 7.29965 3.75456 6.25867 3.60376 5.20752L3.57837 4.99756C3.49642 3.78593 3.82232 2.59135 4.60962 1.65283C5.5503 0.58671 6.74826 0.00774829 8.17603 0.0112305L8.33032 0.00927734Z" fill="#F8FAFC" stroke="#F8FAFC" stroke-width="0.046875"/>
<path d="M17.2534 3.96977C17.5556 4.18392 17.7034 4.4863 17.7734 4.8438C17.7867 5.04107 17.7845 5.23702 17.7807 5.43462C17.7801 5.48741 17.7796 5.54021 17.7791 5.593C17.7777 5.72089 17.7758 5.84874 17.7734 5.97661C17.808 5.976 17.8427 5.97538 17.8783 5.97475C18.0087 5.97273 18.139 5.97127 18.2693 5.97017C18.3254 5.96959 18.3814 5.96879 18.4375 5.96777C18.8942 5.95965 19.282 5.98182 19.6465 6.28499C19.9513 6.59844 20.0134 6.91273 20.015 7.33064C20.0103 7.59616 19.9692 7.79304 19.8046 8.00786C19.7852 8.03329 19.7659 8.05872 19.7459 8.08492C19.5384 8.32038 19.2566 8.47106 18.9421 8.49224C18.7648 8.49809 18.5879 8.49374 18.4106 8.48882C18.3486 8.48783 18.2865 8.48694 18.2245 8.48615C18.0741 8.48402 17.9237 8.48066 17.7734 8.47661C17.774 8.51006 17.7746 8.54352 17.7752 8.57798C17.7773 8.70393 17.7787 8.82987 17.7798 8.95583C17.7804 9.01 17.7812 9.06417 17.7822 9.11834C17.7912 9.60528 17.7451 10.0081 17.4218 10.3907C17.1652 10.6435 16.8622 10.7436 16.5063 10.7593C16.1127 10.746 15.8159 10.5938 15.5468 10.3125C15.2929 10.0381 15.229 9.73579 15.2305 9.37306C15.2306 9.34733 15.2306 9.32159 15.2307 9.29508C15.2309 9.2135 15.2314 9.13192 15.2319 9.05034C15.2321 8.99477 15.2322 8.9392 15.2324 8.88364C15.2328 8.74796 15.2335 8.61229 15.2343 8.47661C15.1977 8.47784 15.1611 8.47906 15.1234 8.48033C14.9854 8.48436 14.8474 8.48728 14.7093 8.48948C14.65 8.49065 14.5907 8.49224 14.5314 8.49429C14.0925 8.50906 13.7345 8.47202 13.3897 8.1649C13.1234 7.89031 12.9935 7.53805 12.9992 7.1581C13.0353 6.78739 13.1993 6.49578 13.4765 6.25005C13.7497 6.05063 14.0032 5.96604 14.3455 5.96898C14.3711 5.96909 14.3967 5.9692 14.4231 5.96931C14.5039 5.96975 14.5847 5.97073 14.6655 5.97173C14.7207 5.97212 14.7759 5.97248 14.8311 5.97279C14.9655 5.97365 15.0999 5.97499 15.2343 5.97661C15.2337 5.94434 15.2331 5.91207 15.2325 5.87882C15.2304 5.75724 15.229 5.63567 15.2279 5.51408C15.227 5.43631 15.2255 5.35856 15.224 5.28081C15.2203 4.79126 15.2966 4.4439 15.6323 4.07719C16.0822 3.63891 16.7417 3.66227 17.2534 3.96977Z" fill="#F8FAFC"/>
</g>
<defs>
<clipPath id="clip0_25330_3603">
<rect width="20" height="20" fill="white"/>
</clipPath>
</defs>
</svg>
