<svg width="33" height="32" viewBox="0 0 33 32" fill="none" xmlns="http://www.w3.org/2000/svg">
<g clip-path="url(#clip0_25401_8850)">
<path fill-rule="evenodd" clip-rule="evenodd" d="M26.7024 5V27C26.7024 27.5523 26.2547 28 25.7024 28C25.1501 28 24.7024 27.5523 24.7024 27V18.3463L9.75614 27.6938C9.14319 28.0785 8.36986 28.1009 7.73565 27.7523C7.10144 27.4037 6.70597 26.7387 6.70239 26.015V5.985C6.70597 5.26129 7.10144 4.59635 7.73565 4.2477C8.36986 3.89906 9.14319 3.92147 9.75614 4.30625L24.7024 13.6538V5C24.7024 4.44772 25.1501 4 25.7024 4C26.2547 4 26.7024 4.44772 26.7024 5Z" fill="white"/>
</g>
<defs>
<clipPath id="clip0_25401_8850">
<rect width="32" height="32" fill="white" transform="translate(0.702393)"/>
</clipPath>
</defs>
</svg>
