<svg width="67" height="25" viewBox="0 0 67 25" fill="none" xmlns="http://www.w3.org/2000/svg">
<path d="M0 -0.000732422C1.10252 -0.000732422 2.20505 -0.000732422 3.34098 -0.000732422C3.34934 2.3978 3.35769 4.79634 3.36629 7.26756C3.44982 7.20093 3.53334 7.13431 3.6194 7.06566C4.51334 6.3693 5.56432 6.13262 6.68197 6.15713C6.69901 6.15744 6.71605 6.15776 6.7336 6.15809C7.34018 6.17234 7.96194 6.31181 8.50432 6.58616C8.52732 6.5966 8.55033 6.60704 8.57403 6.6178C8.78927 6.71811 8.97921 6.84932 9.17204 6.98638C9.21056 7.01346 9.24973 7.0396 9.28895 7.06566C9.28895 7.08232 9.28895 7.09897 9.28895 7.11614C9.30317 7.12264 9.3174 7.12915 9.33205 7.13585C9.39695 7.17019 9.45226 7.21022 9.51041 7.25494C9.53064 7.2703 9.55087 7.28565 9.57171 7.30147C9.58698 7.31526 9.60225 7.32906 9.61798 7.34327C9.61798 7.35993 9.61798 7.37658 9.61798 7.39374C9.63469 7.39374 9.65139 7.39374 9.6686 7.39374C9.6686 7.4104 9.6686 7.42706 9.6686 7.44422C9.68531 7.44422 9.70201 7.44422 9.71923 7.44422C9.71923 7.46088 9.71923 7.47753 9.71923 7.49469C9.73593 7.49469 9.75264 7.49469 9.76985 7.49469C9.76985 7.51135 9.76985 7.52801 9.76985 7.54517C9.78655 7.54517 9.80326 7.54517 9.82047 7.54517C9.86006 7.58789 9.89775 7.63238 9.93437 7.67766C9.95446 7.70226 9.97456 7.72685 9.99527 7.75219C10.0378 7.80887 10.0706 7.85928 10.0989 7.92372C10.1156 7.92372 10.1323 7.92372 10.1495 7.92372C10.1886 7.9745 10.2247 8.02508 10.2602 8.0783C10.2749 8.09987 10.2749 8.09987 10.2899 8.12187C10.3095 8.15078 10.329 8.17977 10.3484 8.20885C10.3767 8.25089 10.406 8.29227 10.4352 8.33363C10.4785 8.40323 10.4785 8.40323 10.4785 8.47894C10.4952 8.47894 10.512 8.47894 10.5292 8.47894C10.7724 8.92569 10.7724 8.92569 10.8582 9.16034C10.8803 9.2166 10.9025 9.27286 10.9246 9.32912C10.9674 9.44018 11.0058 9.54985 11.0354 9.66508C11.0437 9.66508 11.0521 9.66508 11.0607 9.66508C11.0713 9.62566 11.0713 9.62566 11.0821 9.58543C11.1837 9.21919 11.3258 8.88406 11.5163 8.55465C11.5318 8.52684 11.5473 8.49902 11.5633 8.47036C11.587 8.42854 11.587 8.42854 11.6112 8.38588C11.6257 8.36028 11.6402 8.33467 11.6551 8.30829C11.6677 8.28965 11.6804 8.27101 11.6934 8.25181C11.7101 8.25181 11.7269 8.25181 11.7441 8.25181C11.7539 8.22419 11.7539 8.22419 11.7638 8.19601C11.7959 8.12295 11.833 8.07065 11.8833 8.0089C11.9327 7.94775 11.9787 7.8882 12.0225 7.82277C12.0392 7.82277 12.0559 7.82277 12.0731 7.82277C12.0898 7.78113 12.1065 7.73949 12.1237 7.69659C12.1404 7.69659 12.1571 7.69659 12.1743 7.69659C12.1811 7.68162 12.1879 7.66664 12.195 7.65122C12.225 7.5955 12.2555 7.55866 12.3001 7.51402C12.3146 7.49954 12.329 7.48506 12.3439 7.47015C12.3589 7.45534 12.374 7.44054 12.3895 7.42529C12.4045 7.4101 12.4196 7.39491 12.4351 7.37925C12.4567 7.35773 12.4567 7.35773 12.4789 7.33578C12.4921 7.32268 12.5053 7.30957 12.5189 7.29607C12.554 7.26756 12.554 7.26756 12.6046 7.26756C12.6046 7.2509 12.6046 7.23425 12.6046 7.21708C12.6464 7.20043 12.6881 7.18377 12.7312 7.16661C12.7312 7.14995 12.7312 7.1333 12.7312 7.11614C12.7885 7.06793 12.7885 7.06793 12.8641 7.01361C12.8887 6.99562 12.9134 6.97763 12.9388 6.95909C12.9998 6.92044 13.0405 6.89985 13.1108 6.889C13.1108 6.87234 13.1108 6.85569 13.1108 6.83853C13.2214 6.77929 13.3321 6.72034 13.443 6.66176C13.4814 6.64146 13.5196 6.62098 13.5578 6.60045C14.2646 6.23176 15.0579 6.14123 15.8444 6.15713C15.8627 6.15744 15.881 6.15776 15.8999 6.15809C16.7253 6.17621 17.4626 6.43316 18.1729 6.83853C18.1729 6.85518 18.1729 6.87184 18.1729 6.889C18.1993 6.89798 18.1993 6.89798 18.2262 6.90714C18.3127 6.94531 18.3845 6.99632 18.4593 7.05304C18.4732 7.06323 18.4871 7.07341 18.5014 7.0839C18.5364 7.11015 18.5699 7.13825 18.6032 7.16661C18.6032 7.18327 18.6032 7.19992 18.6032 7.21708C18.6275 7.2288 18.6275 7.2288 18.6522 7.24074C18.7044 7.26756 18.7044 7.26756 18.7298 7.2928C18.7381 7.01796 18.7465 6.74313 18.7551 6.45997C19.8576 6.45997 20.9601 6.45997 22.0961 6.45997C22.0966 7.67483 22.0971 8.8897 22.0973 10.1046C22.0974 10.2478 22.0974 10.3911 22.0974 10.5344C22.0975 10.5629 22.0975 10.5914 22.0975 10.6208C22.0976 11.0833 22.0978 11.5458 22.098 12.0082C22.0982 12.4824 22.0984 12.9566 22.0984 13.4308C22.0985 13.7236 22.0986 14.0164 22.0988 14.3093C22.0989 14.5098 22.099 14.7103 22.0989 14.9108C22.0989 15.0267 22.0989 15.1426 22.0991 15.2585C22.0992 15.3644 22.0992 15.4703 22.0991 15.5762C22.0991 15.6146 22.0991 15.6531 22.0992 15.6916C22.0993 15.7436 22.0992 15.7955 22.0992 15.8475C22.0992 15.891 22.0992 15.891 22.0992 15.9353C22.0961 15.9996 22.0961 15.9996 22.0707 16.0248C22.0285 16.0273 21.9862 16.028 21.9439 16.028C21.9164 16.0281 21.889 16.0282 21.8607 16.0283C21.8303 16.0282 21.7999 16.0282 21.7685 16.0281C21.7367 16.0282 21.7049 16.0282 21.6722 16.0282C21.5847 16.0284 21.4972 16.0283 21.4097 16.0282C21.3183 16.0282 21.227 16.0282 21.1356 16.0283C20.9822 16.0283 20.8287 16.0282 20.6752 16.0281C20.4976 16.028 20.3199 16.028 20.1423 16.0282C19.99 16.0283 19.8377 16.0283 19.6854 16.0282C19.5944 16.0282 19.5033 16.0282 19.4123 16.0283C19.3108 16.0284 19.2093 16.0282 19.1079 16.0281C19.0623 16.0282 19.0623 16.0282 19.0158 16.0283C18.9883 16.0282 18.9608 16.0281 18.9325 16.028C18.9085 16.028 18.8845 16.028 18.8597 16.028C18.8057 16.0248 18.8057 16.0248 18.7804 15.9996C18.7763 15.925 18.7738 15.851 18.7724 15.7763C18.7718 15.7539 18.7713 15.7316 18.7708 15.7085C18.7691 15.6368 18.7676 15.565 18.7661 15.4933C18.765 15.4448 18.7639 15.3962 18.7628 15.3477C18.7601 15.2285 18.7576 15.1093 18.7551 14.9901C18.7384 14.9901 18.7217 14.9901 18.7044 14.9901C18.6982 15.0047 18.6919 15.0193 18.6855 15.0343C18.6492 15.0994 18.6087 15.1431 18.5526 15.192C18.5359 15.192 18.5192 15.192 18.502 15.192C18.502 15.2087 18.502 15.2253 18.502 15.2425C18.4853 15.2425 18.4686 15.2425 18.4513 15.2425C18.4513 15.2591 18.4513 15.2758 18.4513 15.293C18.4033 15.3365 18.4033 15.3365 18.3406 15.3844C18.3201 15.4004 18.2995 15.4163 18.2783 15.4328C18.2235 15.4696 18.2235 15.4696 18.1729 15.4696C18.1729 15.4863 18.1729 15.5029 18.1729 15.5201C18.1122 15.5655 18.0517 15.6071 17.9878 15.6479C17.9685 15.6602 17.9492 15.6725 17.9294 15.6852C17.4496 15.9849 16.9349 16.1717 16.3759 16.252C16.3492 16.2564 16.3225 16.2609 16.295 16.2655C15.7254 16.3349 15.14 16.3202 14.5788 16.2015C14.5611 16.1979 14.5433 16.1943 14.525 16.1906C14.2539 16.135 13.9986 16.0561 13.7436 15.9491C13.7264 15.942 13.7092 15.9348 13.6914 15.9275C13.2601 15.7454 12.8873 15.4863 12.5404 15.1745C12.4725 15.1141 12.4024 15.0562 12.3327 14.9978C12.3009 14.9649 12.3009 14.9649 12.3009 14.9144C12.2842 14.9144 12.2675 14.9144 12.2503 14.9144C12.2066 14.872 12.2066 14.872 12.1585 14.8166C12.1425 14.7985 12.1265 14.7803 12.1101 14.7616C12.0731 14.7125 12.0731 14.7125 12.0731 14.662C12.0564 14.662 12.0397 14.662 12.0225 14.662C12.0058 14.6204 11.9891 14.5788 11.9719 14.5358C11.9552 14.5358 11.9384 14.5358 11.9212 14.5358C11.8862 14.4928 11.8862 14.4928 11.8459 14.4323C11.8311 14.4102 11.8163 14.3881 11.8011 14.3654C11.7854 14.3415 11.7697 14.3176 11.7536 14.2929C11.7376 14.2687 11.7216 14.2445 11.7051 14.2195C11.5318 13.955 11.3734 13.698 11.2653 13.3991C11.2411 13.3333 11.2141 13.271 11.1841 13.2077C11.1267 13.083 11.0936 12.9526 11.0607 12.8197C10.9968 12.8834 10.9884 12.9335 10.9642 13.02C10.9234 13.1575 10.8731 13.284 10.8113 13.4133C10.7862 13.4674 10.7653 13.5206 10.7459 13.5768C10.666 13.7958 10.5347 13.9919 10.4026 14.1825C10.3781 14.2195 10.3781 14.2195 10.3531 14.2572C10.0935 14.6428 9.76997 15.0444 9.39019 15.3182C9.37348 15.3182 9.35678 15.3182 9.33957 15.3182C9.33957 15.3349 9.33957 15.3515 9.33957 15.3687C8.84553 15.7573 8.27526 16.0176 7.66908 16.1763C7.6494 16.1814 7.62973 16.1866 7.60946 16.1919C7.5536 16.2054 7.49784 16.2165 7.44128 16.2267C7.41707 16.2311 7.39286 16.2355 7.36792 16.24C6.73171 16.3395 6.07201 16.3305 5.44175 16.2015C5.41464 16.1967 5.38753 16.1918 5.35959 16.1868C4.85975 16.0884 4.3515 15.8427 3.94853 15.5335C3.89984 15.4939 3.89984 15.4939 3.84719 15.4696C3.84719 15.453 3.84719 15.4363 3.84719 15.4191C3.83245 15.4124 3.8177 15.4057 3.8025 15.3988C3.74412 15.3677 3.70046 15.3336 3.65104 15.2898C3.62774 15.2694 3.62774 15.2694 3.60398 15.2486C3.51415 15.1646 3.4277 15.0773 3.34098 14.9901C3.34003 15.0358 3.34003 15.0358 3.33906 15.0824C3.33669 15.1949 3.33415 15.3075 3.33156 15.42C3.33046 15.4688 3.32941 15.5176 3.3284 15.5664C3.32694 15.6364 3.32533 15.7063 3.32368 15.7763C3.32305 15.8092 3.32305 15.8092 3.3224 15.8428C3.31856 15.9967 3.31856 15.9967 3.29036 16.0248C2.20454 16.0248 1.11872 16.0248 0 16.0248C0 10.7364 0 5.44796 0 -0.000732422ZM4.32809 9.28653C4.32809 9.30318 4.32809 9.31984 4.32809 9.337C4.31439 9.33912 4.30069 9.34123 4.28657 9.34341C4.20616 9.36876 4.14925 9.41206 4.08132 9.46161C4.05639 9.47954 4.03146 9.49746 4.00578 9.51593C3.98686 9.53184 3.96793 9.54775 3.94844 9.56414C3.94844 9.58079 3.94844 9.59745 3.94844 9.61461C3.93173 9.61461 3.91503 9.61461 3.89781 9.61461C3.89781 9.63127 3.89781 9.64792 3.89781 9.66508C3.88111 9.66508 3.8644 9.66508 3.84719 9.66508C3.84719 9.68174 3.84719 9.6984 3.84719 9.71556C3.83049 9.71556 3.81378 9.71556 3.79657 9.71556C3.75789 9.76091 3.72131 9.80805 3.68584 9.85594C3.65657 9.89503 3.65657 9.89503 3.62672 9.93491C3.5186 10.0873 3.44603 10.2375 3.38844 10.4143C3.38188 10.4343 3.37531 10.4543 3.36855 10.4749C3.31818 10.6326 3.28346 10.7875 3.26505 10.9522C3.26169 10.9755 3.25833 10.9988 3.25487 11.0229C3.1913 11.5492 3.35201 12.0928 3.6194 12.5421C3.6361 12.5421 3.65281 12.5421 3.67002 12.5421C3.68255 12.5921 3.68255 12.5921 3.69533 12.6431C3.71204 12.6431 3.72874 12.6431 3.74595 12.6431C3.75326 12.6582 3.76057 12.6733 3.7681 12.6888C3.79777 12.7489 3.79777 12.7489 3.84719 12.8197C3.8639 12.8197 3.8806 12.8197 3.89781 12.8197C3.89781 12.8364 3.89781 12.853 3.89781 12.8702C3.91452 12.8702 3.93122 12.8702 3.94844 12.8702C3.94844 12.8869 3.94844 12.9035 3.94844 12.9207C3.9902 12.9373 4.03196 12.954 4.07499 12.9711C4.07499 12.9878 4.07499 13.0045 4.07499 13.0216C4.11169 13.056 4.11169 13.056 4.15883 13.0879C4.18217 13.1048 4.18217 13.1048 4.20599 13.122C4.25437 13.154 4.25437 13.154 4.32809 13.1478C4.32809 13.1645 4.32809 13.1811 4.32809 13.1983C4.90934 13.4547 5.528 13.55 6.15045 13.3749C6.16632 13.3706 6.18219 13.3663 6.19853 13.3618C6.42518 13.2987 6.61747 13.2098 6.80852 13.0721C6.82901 13.0578 6.8495 13.0436 6.87061 13.0289C6.94316 12.9777 6.94316 12.9777 7.011 12.9207C7.011 12.904 7.011 12.8874 7.011 12.8702C7.02771 12.8702 7.04441 12.8702 7.06163 12.8702C7.06163 12.8535 7.06163 12.8369 7.06163 12.8197C7.07833 12.8197 7.09503 12.8197 7.11225 12.8197C7.15822 12.7707 7.15822 12.7707 7.204 12.7093C7.21998 12.6888 7.23597 12.6683 7.25244 12.6472C7.29414 12.5966 7.29414 12.5966 7.28942 12.5421C7.30612 12.5421 7.32283 12.5421 7.34004 12.5421C7.53914 12.214 7.66944 11.8415 7.68648 11.4569C7.68741 11.436 7.68835 11.4152 7.68931 11.3936C7.71314 10.7578 7.5586 10.1864 7.1253 9.70728C7.10428 9.68503 7.08327 9.66277 7.06163 9.63985C7.04322 9.6202 7.02482 9.60055 7.00586 9.5803C6.96442 9.53323 6.96442 9.53323 6.90976 9.5389C6.90976 9.52224 6.90976 9.50559 6.90976 9.48843C6.17639 8.89608 5.14604 8.85253 4.32809 9.28653ZM14.8252 9.86146C14.7027 10.0177 14.6197 10.1828 14.5488 10.367C14.5428 10.3825 14.5367 10.398 14.5305 10.414C14.4314 10.6844 14.388 10.9503 14.3906 11.2377C14.3908 11.2674 14.3909 11.2971 14.3911 11.3277C14.3977 11.6853 14.4923 11.9851 14.6295 12.315C14.6464 12.357 14.6633 12.3991 14.6801 12.4412C14.6968 12.4412 14.7135 12.4412 14.7307 12.4412C14.7362 12.4646 14.7362 12.4646 14.7418 12.4885C14.7543 12.5429 14.7543 12.5429 14.7813 12.5926C14.798 12.5926 14.8147 12.5926 14.8319 12.5926C14.8388 12.6073 14.8456 12.6221 14.8526 12.6372C15.0497 13.0075 15.4784 13.2342 15.8618 13.3576C16.4567 13.535 17.1341 13.5047 17.692 13.2235C17.7621 13.1848 17.8286 13.1428 17.8945 13.0973C17.9116 13.086 17.9286 13.0748 17.9462 13.0631C17.9891 13.034 18.0306 13.0027 18.0717 12.9711C18.0717 12.9545 18.0717 12.9378 18.0717 12.9207C18.0931 12.9119 18.0931 12.9119 18.115 12.903C18.188 12.8617 18.234 12.811 18.29 12.7487C18.3096 12.7272 18.3293 12.7057 18.3495 12.6836C18.3987 12.6205 18.4261 12.567 18.4513 12.4916C18.468 12.4916 18.4848 12.4916 18.502 12.4916C18.8178 11.9025 18.9493 11.2262 18.7551 10.5736C18.6839 10.3618 18.5947 10.1582 18.4767 9.96793C18.4672 9.95232 18.4578 9.9367 18.4481 9.92061C18.4255 9.8848 18.4007 9.85044 18.3754 9.81651C18.3587 9.81651 18.342 9.81651 18.3248 9.81651C18.3248 9.79985 18.3248 9.7832 18.3248 9.76603C18.3081 9.76603 18.2914 9.76603 18.2742 9.76603C18.2675 9.7512 18.2609 9.73636 18.254 9.72108C18.1756 9.57687 18.0348 9.46878 17.8945 9.38748C17.8778 9.38748 17.8611 9.38748 17.8439 9.38748C17.8439 9.37082 17.8439 9.35416 17.8439 9.337C17.797 9.31328 17.7501 9.28963 17.7031 9.26602C17.677 9.25285 17.6508 9.23967 17.6239 9.2261C16.6299 8.74515 15.5265 9.04082 14.8252 9.86146Z" fill="white"/>
<path d="M39.409 6.25925C39.4254 6.26286 39.4419 6.26647 39.4589 6.27019C39.9875 6.38755 40.4435 6.59427 40.9039 6.87598C40.9215 6.88671 40.9392 6.89743 40.9574 6.90849C40.999 6.93459 41.0394 6.96268 41.0795 6.99112C41.0795 7.00778 41.0795 7.02444 41.0795 7.0416C41.0925 7.04732 41.1056 7.05305 41.119 7.05895C41.2034 7.10424 41.2857 7.15515 41.3579 7.21826C41.3579 7.23491 41.3579 7.25157 41.3579 7.26873C41.3746 7.26873 41.3913 7.26873 41.4085 7.26873C41.4169 7.00223 41.4252 6.73572 41.4338 6.46114C42.5447 6.46114 43.6556 6.46114 44.8001 6.46114C44.8012 7.70534 44.8022 8.94954 44.8027 10.1937C44.8028 10.341 44.8028 10.4882 44.8029 10.6355C44.8029 10.6795 44.8029 10.6795 44.8029 10.7243C44.8032 11.1975 44.8036 11.6707 44.804 12.1438C44.8045 12.6302 44.8048 13.1165 44.8049 13.6029C44.8049 13.9024 44.8052 14.202 44.8056 14.5015C44.8058 14.7076 44.8059 14.9136 44.8059 15.1197C44.8058 15.2381 44.8059 15.3566 44.8061 15.4751C44.8071 15.9005 44.8055 16.3248 44.778 16.7495C44.7761 16.7791 44.7742 16.8088 44.7722 16.8393C44.7507 17.1296 44.6955 17.4101 44.6229 17.6917C44.6173 17.7138 44.6117 17.736 44.6059 17.7588C44.4539 18.3455 44.1658 18.9248 43.7624 19.3825C43.7457 19.3825 43.729 19.3825 43.7118 19.3825C43.7118 19.3992 43.7118 19.4159 43.7118 19.433C43.6951 19.433 43.6784 19.433 43.6611 19.433C43.6546 19.4477 43.6481 19.4624 43.6414 19.4776C43.608 19.5385 43.5713 19.5798 43.5219 19.6286C43.5065 19.6441 43.4911 19.6596 43.4753 19.6755C43.4333 19.7106 43.4333 19.7106 43.3827 19.7106C43.3827 19.7273 43.3827 19.7439 43.3827 19.7611C43.366 19.7611 43.3493 19.7611 43.3321 19.7611C43.3321 19.7778 43.3321 19.7944 43.3321 19.8116C43.2903 19.8282 43.2486 19.8449 43.2056 19.8621C43.2056 19.8787 43.2056 19.8954 43.2056 19.9125C42.8884 20.1858 42.4959 20.3945 42.1172 20.5687C42.0901 20.5813 42.0901 20.5813 42.0624 20.5941C41.5243 20.8405 40.9545 20.9824 40.3708 21.0734C40.3425 21.0782 40.3142 21.0829 40.2851 21.0878C39.9272 21.1393 39.5655 21.1325 39.2047 21.1319C39.1281 21.1318 39.0516 21.1319 38.975 21.1324C38.5237 21.1351 38.0835 21.1247 37.6372 21.0482C37.6024 21.0424 37.6024 21.0424 37.5668 21.0364C36.5619 20.8668 35.6238 20.5151 34.8531 19.8368C34.8211 19.81 34.8211 19.81 34.7884 19.7826C34.7701 19.7672 34.7518 19.7518 34.7329 19.7359C34.7173 19.7229 34.7018 19.7098 34.6858 19.6964C34.6506 19.6602 34.6506 19.6602 34.6253 19.5844C34.6086 19.5844 34.5919 19.5844 34.5747 19.5844C34.4481 19.4462 34.4481 19.4462 34.4481 19.3825C34.4314 19.3825 34.4147 19.3825 34.3975 19.3825C34.3663 19.3453 34.3663 19.3453 34.3315 19.2929C34.3187 19.2739 34.3059 19.2548 34.2928 19.2351C34.2726 19.2043 34.2726 19.2043 34.252 19.1728C34.2314 19.1416 34.2314 19.1416 34.2103 19.1097C34.1128 18.9606 34.0224 18.8097 33.9419 18.6507C33.9297 18.6275 33.9174 18.6043 33.9048 18.5805C33.8154 18.4085 33.8154 18.4085 33.8154 18.3226C33.8604 18.3015 33.8604 18.3015 33.9063 18.28C34.1732 18.1547 34.438 18.0262 34.7012 17.8936C34.9156 17.7855 35.1307 17.6797 35.3482 17.5781C35.4923 17.5108 35.6341 17.4411 35.7738 17.3652C35.931 17.28 36.0905 17.2001 36.2515 17.1222C36.2747 17.1108 36.298 17.0993 36.3219 17.0875C36.3437 17.0771 36.3655 17.0666 36.3879 17.0559C36.4074 17.0465 36.4268 17.0371 36.4469 17.0274C36.4983 17.0103 36.4983 17.0103 36.5742 17.0355C36.6232 17.096 36.6232 17.096 36.6754 17.1711C36.7426 17.2686 36.7426 17.2686 36.821 17.3567C36.8526 17.3888 36.8526 17.3888 36.8526 17.4393C36.8693 17.4393 36.886 17.4393 36.9032 17.4393C36.9032 17.4559 36.9032 17.4726 36.9032 17.4898C36.9199 17.4898 36.9366 17.4898 36.9539 17.4898C36.9539 17.5064 36.9539 17.5231 36.9539 17.5402C36.9706 17.5402 36.9873 17.5402 37.0045 17.5402C37.0045 17.5569 37.0045 17.5736 37.0045 17.5907C37.025 17.6005 37.025 17.6005 37.046 17.6104C37.1167 17.6469 37.1837 17.6875 37.2513 17.7295C37.2762 17.7449 37.3011 17.7602 37.3268 17.776C37.3457 17.7898 37.3646 17.8036 37.3841 17.8178C37.3841 17.8345 37.3841 17.8512 37.3841 17.8683C37.3974 17.8711 37.4107 17.8738 37.4244 17.8766C37.5034 17.8986 37.576 17.9309 37.6515 17.963C38.2852 18.2218 39.0987 18.3561 39.7633 18.1459C39.7804 18.1406 39.7974 18.1354 39.815 18.1299C40.3534 17.9605 40.8898 17.6626 41.1807 17.1617C41.3453 16.8229 41.4136 16.4828 41.411 16.1079C41.4109 16.0881 41.4109 16.0682 41.4109 16.0478C41.4107 15.9853 41.4104 15.9229 41.4101 15.8604C41.41 15.8177 41.4098 15.7749 41.4097 15.7322C41.4095 15.6282 41.409 15.5243 41.4085 15.4203C41.3918 15.4203 41.3751 15.4203 41.3579 15.4203C41.3579 15.437 41.3579 15.4536 41.3579 15.4708C41.3412 15.4708 41.3245 15.4708 41.3073 15.4708C41.3073 15.4875 41.3073 15.5041 41.3073 15.5213C40.4266 16.3122 39.0135 16.3482 37.902 16.2907C37.3269 16.2572 36.7902 16.1248 36.2705 15.8746C36.2411 15.8608 36.2118 15.8469 36.1816 15.8327C36.0282 15.7593 35.8844 15.6846 35.7529 15.5759C35.7107 15.5411 35.7107 15.5411 35.6377 15.5213C35.6377 15.5046 35.6377 15.488 35.6377 15.4708C35.6184 15.4635 35.5991 15.4562 35.5792 15.4487C35.5112 15.4203 35.5112 15.4203 35.4352 15.3698C35.4352 15.3532 35.4352 15.3365 35.4352 15.3194C35.4218 15.3139 35.4083 15.3084 35.3944 15.3027C35.3121 15.2566 35.2462 15.1952 35.1774 15.1317C35.1567 15.1131 35.1567 15.1131 35.1355 15.0942C35.0715 15.0356 35.0329 14.9991 35.005 14.9156C34.9714 14.8984 34.9376 14.8816 34.9037 14.8651C34.8551 14.8178 34.8551 14.8178 34.8088 14.7642C34.7933 14.7465 34.7777 14.7288 34.7617 14.7105C34.7265 14.6632 34.7265 14.6632 34.7265 14.6127C34.7098 14.6127 34.6931 14.6127 34.6759 14.6127C34.6592 14.5711 34.6425 14.5295 34.6253 14.4865C34.6086 14.4865 34.5919 14.4865 34.5747 14.4865C34.5333 14.4311 34.4951 14.3758 34.4576 14.3178C34.4464 14.3006 34.4351 14.2834 34.4235 14.2657C34.3893 14.2133 34.3554 14.1607 34.3216 14.108C34.3119 14.0932 34.3023 14.0784 34.2924 14.0631C33.5356 12.8984 33.376 11.3381 33.6586 9.99818C33.7307 9.67972 33.8134 9.36992 33.9597 9.07673C33.9874 9.02058 34.0091 8.96675 34.0289 8.90757C34.0812 8.76352 34.1656 8.63535 34.2456 8.50535C34.2609 8.48048 34.2609 8.48048 34.2765 8.45511C34.3093 8.40184 34.3423 8.34868 34.3754 8.29557C34.3908 8.27068 34.3908 8.27068 34.4066 8.24529C34.4756 8.13542 34.546 8.02773 34.6253 7.9249C34.642 7.9249 34.6587 7.9249 34.6759 7.9249C34.6819 7.91123 34.6879 7.89757 34.6941 7.88349C34.7352 7.80799 34.786 7.74542 34.8404 7.67883C34.8706 7.64155 34.8706 7.64155 34.9013 7.60352C34.9188 7.58465 34.9363 7.56578 34.9543 7.54634C34.971 7.54634 34.9877 7.54634 35.005 7.54634C35.005 7.52968 35.005 7.51303 35.005 7.49586C35.0217 7.49586 35.0384 7.49586 35.0556 7.49586C35.0556 7.47921 35.0556 7.46255 35.0556 7.44539C35.0723 7.44539 35.089 7.44539 35.1062 7.44539C35.1062 7.42873 35.1062 7.41208 35.1062 7.39492C35.149 7.35544 35.1937 7.31786 35.2391 7.28135C35.2637 7.26131 35.2884 7.24127 35.3138 7.22062C35.3707 7.17819 35.4212 7.14554 35.4859 7.11731C35.4859 7.10065 35.4859 7.084 35.4859 7.06683C35.5467 7.02028 35.6074 6.97693 35.6709 6.93434C35.6894 6.92183 35.7079 6.90931 35.727 6.89642C35.8699 6.8008 36.0156 6.71534 36.1692 6.6378C36.198 6.62209 36.198 6.62209 36.2274 6.60606C37.1575 6.11121 38.3907 6.0309 39.409 6.25925ZM37.5751 9.78613C37.4688 9.901 37.4688 9.901 37.4348 10.0448C37.4181 10.0448 37.4014 10.0448 37.3841 10.0448C37.1845 10.4319 37.0788 10.8207 37.0804 11.2562C37.0803 11.2737 37.0803 11.2912 37.0802 11.3093C37.0819 11.7621 37.218 12.1496 37.4348 12.5433C37.4515 12.5433 37.4682 12.5433 37.4854 12.5433C37.494 12.5628 37.494 12.5628 37.5028 12.5827C37.5482 12.6668 37.5993 12.7489 37.6626 12.8209C37.6793 12.8209 37.696 12.8209 37.7132 12.8209C37.7132 12.8376 37.7132 12.8542 37.7132 12.8714C37.7299 12.8714 37.7466 12.8714 37.7638 12.8714C37.7638 12.888 37.7638 12.9047 37.7638 12.9218C38.0361 13.1626 38.3489 13.3117 38.7003 13.4014C38.7334 13.4099 38.7334 13.4099 38.7672 13.4187C39.1562 13.5005 39.61 13.4875 39.9911 13.3761C40.0155 13.369 40.0155 13.369 40.0405 13.3617C40.3146 13.2788 40.5256 13.1466 40.7504 12.9723C40.7755 12.9557 40.8005 12.939 40.8264 12.9218C40.8264 12.9052 40.8264 12.8885 40.8264 12.8714C40.8431 12.8714 40.8598 12.8714 40.877 12.8714C40.877 12.8547 40.877 12.8381 40.877 12.8209C40.8937 12.8209 40.9104 12.8209 40.9276 12.8209C41.3357 12.3715 41.548 11.8105 41.5341 11.2036C41.529 11.1111 41.5208 11.02 41.5097 10.9281C41.5059 10.8939 41.5059 10.8939 41.5019 10.8589C41.464 10.6021 41.3768 10.3261 41.2566 10.0953C41.2399 10.0953 41.2232 10.0953 41.206 10.0953C41.2034 10.0807 41.2007 10.0662 41.198 10.0512C41.178 9.98542 41.1489 9.94567 41.1064 9.89181C41.0612 9.83423 41.019 9.77765 40.9782 9.71673C40.9615 9.71673 40.9448 9.71673 40.9276 9.71673C40.9276 9.70007 40.9276 9.68342 40.9276 9.66626C40.9109 9.66626 40.8942 9.66626 40.877 9.66626C40.877 9.6496 40.877 9.63294 40.877 9.61578C40.8603 9.61578 40.8436 9.61578 40.8264 9.61578C40.8264 9.59913 40.8264 9.58247 40.8264 9.56531C40.5047 9.29098 40.1571 9.10845 39.738 9.03533C39.7152 9.03074 39.6924 9.02616 39.6689 9.02143C38.8697 8.91194 38.1123 9.1866 37.5751 9.78613Z" fill="white"/>
<path d="M31.8653 6.8663C31.9058 6.88861 31.9464 6.91071 31.9871 6.93255C32.0877 6.98797 32.18 7.04776 32.2703 7.11867C32.2703 7.13533 32.2703 7.15198 32.2703 7.16915C32.2837 7.17425 32.297 7.17936 32.3107 7.18462C32.3986 7.23522 32.4635 7.30405 32.5345 7.37577C32.5487 7.38971 32.5628 7.40365 32.5774 7.41802C32.8271 7.66815 32.8271 7.66815 32.8271 7.77484C32.8438 7.77484 32.8605 7.77484 32.8778 7.77484C33.0768 8.03601 33.2001 8.36152 33.2906 8.67391C33.2968 8.69495 33.3029 8.71599 33.3092 8.73767C33.4182 9.13235 33.4162 9.51537 33.415 9.92194C33.415 9.98863 33.415 10.0553 33.415 10.122C33.4151 10.265 33.4149 10.4081 33.4146 10.5511C33.4142 10.7579 33.4141 10.9647 33.414 11.1715C33.4139 11.5071 33.4136 11.8427 33.4131 12.1783C33.4126 12.5041 33.4123 12.8299 33.4121 13.1557C33.412 13.176 33.412 13.1963 33.412 13.2173C33.4119 13.3762 33.4118 13.5352 33.4117 13.6941C33.4112 14.4719 33.4102 15.2496 33.4093 16.0274C32.3151 16.0274 31.2209 16.0274 30.0936 16.0274C30.0924 15.6346 30.0911 15.2419 30.0898 14.8372C30.089 14.5882 30.088 14.3392 30.0871 14.0902C30.0856 13.6951 30.0841 13.2999 30.0829 12.9048C30.0821 12.617 30.0811 12.3292 30.0799 12.0414C30.0792 11.8892 30.0787 11.7369 30.0783 11.5846C30.078 11.441 30.0774 11.2975 30.0767 11.1539C30.0765 11.1014 30.0763 11.049 30.0763 10.9965C30.0755 10.3242 29.9855 9.75479 29.5115 9.23859C29.4412 9.17102 29.3717 9.10581 29.2837 9.06193C29.2837 9.04527 29.2837 9.02862 29.2837 9.01146C29.2539 9.00209 29.2539 9.00209 29.2236 8.99253C29.1287 8.95992 29.0363 8.92322 28.9436 8.88527C28.5998 8.7515 28.1285 8.74013 27.7824 8.87896C27.6907 8.91952 27.6049 8.96569 27.5188 9.01658C27.436 9.06193 27.436 9.06193 27.3601 9.06193C27.3601 9.07859 27.3601 9.09524 27.3601 9.1124C27.3229 9.14425 27.3229 9.14425 27.2715 9.18023C27.0751 9.31219 27.0751 9.31219 26.9298 9.49096C26.9131 9.49096 26.8964 9.49096 26.8792 9.49096C26.8723 9.50566 26.8655 9.52037 26.8584 9.53552C26.8287 9.59164 26.7954 9.63702 26.7558 9.68655C26.4759 10.0564 26.4593 10.4621 26.4608 10.9077C26.4606 10.9634 26.4604 11.0191 26.4601 11.0748C26.4595 11.225 26.4595 11.3753 26.4597 11.5255C26.4597 11.683 26.4591 11.8404 26.4586 11.9978C26.4578 12.2617 26.4573 12.5256 26.4571 12.7896C26.457 13.0612 26.4566 13.3328 26.4561 13.6044C26.456 13.6212 26.456 13.6379 26.456 13.6552C26.4556 13.8383 26.4551 14.0213 26.4547 14.2044C26.4546 14.2365 26.4545 14.2685 26.4544 14.3016C26.4543 14.3655 26.4541 14.4294 26.454 14.4933C26.4535 14.6808 26.4532 14.8682 26.4531 15.0557C26.453 15.1719 26.4528 15.2881 26.4526 15.4042C26.4525 15.4583 26.4525 15.5124 26.4525 15.5665C26.4525 15.6399 26.4524 15.7134 26.4522 15.7869C26.4523 15.8194 26.4523 15.8194 26.4524 15.8526C26.4518 15.9993 26.4518 15.9993 26.4236 16.0274C25.3294 16.0274 24.2352 16.0274 23.1079 16.0274C23.1079 12.871 23.1079 9.71456 23.1079 6.46251C24.2104 6.46251 25.313 6.46251 26.4489 6.46251C26.4572 6.77898 26.4656 7.09545 26.4742 7.42152C26.4993 7.3882 26.5243 7.35489 26.5501 7.32057C26.5668 7.32057 26.5835 7.32057 26.6008 7.32057C26.6008 7.30391 26.6008 7.28725 26.6008 7.27009C26.7139 7.16915 26.7139 7.16915 26.7779 7.16915C26.7779 7.15249 26.7779 7.13583 26.7779 7.11867C26.8282 7.07607 26.8785 7.0364 26.9314 6.99722C26.9465 6.98584 26.9616 6.97447 26.9772 6.96275C27.0203 6.93042 27.0636 6.89833 27.107 6.8663C27.1251 6.85273 27.1433 6.83917 27.162 6.82519C27.5415 6.54776 28.0198 6.33168 28.4769 6.22748C28.4944 6.22346 28.5119 6.21943 28.5299 6.21529C29.6266 5.98495 30.9259 6.28466 31.8653 6.8663Z" fill="white"/>
<path d="M52.9996 6.25931C53.0191 6.26456 53.0387 6.2698 53.0588 6.27521C53.4677 6.38685 53.8335 6.53192 54.1892 6.76405C54.1058 6.9917 53.9955 7.20464 53.8855 7.42022C53.7478 7.69149 53.6145 7.96477 53.4823 8.23871C53.3885 8.43295 53.2941 8.62675 53.1964 8.81904C53.1519 8.90711 53.1089 8.99576 53.067 9.08508C53.0568 9.10669 53.0466 9.12831 53.0362 9.15058C53.0167 9.19233 52.9972 9.23413 52.9779 9.276C52.9256 9.38813 52.8689 9.48967 52.7971 9.59061C52.6342 9.49878 52.6342 9.49878 52.5652 9.45457C52.2468 9.25282 51.9266 9.16275 51.5569 9.11111C51.5291 9.10642 51.5013 9.10174 51.4726 9.09691C50.9342 9.03288 50.4196 9.09441 49.966 9.40498C49.9117 9.43919 49.9117 9.43919 49.8611 9.43919C49.8611 9.45585 49.8611 9.4725 49.8611 9.48966C49.8321 9.5161 49.8018 9.5411 49.771 9.56537C49.412 9.87424 49.1963 10.4395 49.1524 10.9029C49.149 10.9759 49.1485 11.0487 49.1484 11.1217C49.1483 11.1428 49.1482 11.1639 49.148 11.1856C49.1477 11.2558 49.1474 11.326 49.1472 11.3962C49.147 11.4467 49.1467 11.4972 49.1465 11.5477C49.1458 11.6844 49.1453 11.8212 49.1447 11.9579C49.1442 12.101 49.1435 12.244 49.1428 12.3871C49.1416 12.6578 49.1404 12.9285 49.1393 13.1992C49.1378 13.5652 49.1362 13.9311 49.1345 14.2971C49.1319 14.8734 49.1295 15.4497 49.1271 16.0261C48.0246 16.0261 46.9221 16.0261 45.7861 16.0261C45.7861 12.8697 45.7861 9.71326 45.7861 6.46121C46.8887 6.46121 47.9912 6.46121 49.1271 6.46121C49.1355 6.89428 49.1438 7.32735 49.1524 7.77354C49.2025 7.69858 49.2025 7.69858 49.2537 7.62212C49.2704 7.59713 49.2871 7.57215 49.3043 7.5464C49.321 7.5464 49.3377 7.5464 49.3549 7.5464C49.365 7.52404 49.365 7.52404 49.3753 7.50122C49.4062 7.44421 49.438 7.40653 49.4837 7.36077C49.4993 7.34516 49.5148 7.32956 49.5309 7.31347C49.5557 7.28902 49.5557 7.28902 49.5811 7.26406C49.5981 7.24729 49.6151 7.23051 49.6326 7.21323C49.9973 6.85669 49.9973 6.85669 50.1902 6.78929C50.1902 6.77263 50.1902 6.75598 50.1902 6.73882C50.2403 6.72216 50.2904 6.7055 50.342 6.68834C50.342 6.67169 50.342 6.65503 50.342 6.63787C51.1663 6.20311 52.079 6.01159 52.9996 6.25931Z" fill="white"/>
<path d="M62.9975 4.6962C63.0698 4.75932 63.1396 4.82337 63.2 4.8981C63.2 4.91475 63.2 4.93141 63.2 4.94857C63.2167 4.94857 63.2334 4.94857 63.2506 4.94857C63.2506 4.96523 63.2506 4.98188 63.2506 4.99904C63.2673 4.99904 63.284 4.99904 63.3012 4.99904C63.3012 5.0157 63.3012 5.03236 63.3012 5.04952C63.3179 5.04952 63.3346 5.04952 63.3518 5.04952C63.392 5.08925 63.392 5.08925 63.4373 5.14258C63.4531 5.16106 63.4688 5.17954 63.4851 5.19858C63.5182 5.23838 63.5506 5.27869 63.5828 5.31924C63.6301 5.3796 63.6301 5.3796 63.6898 5.43626C63.7524 5.49938 63.8085 5.56403 63.8644 5.63313C63.9258 5.70895 63.9872 5.78471 64.05 5.85937C64.0707 5.88413 64.0914 5.90889 64.1127 5.9344C64.1414 5.96841 64.1414 5.96841 64.1706 6.00311C64.2124 6.059 64.2124 6.059 64.2124 6.10948C64.2291 6.10948 64.2458 6.10948 64.263 6.10948C64.263 6.13446 64.263 6.15945 64.263 6.18519C64.2797 6.18519 64.2964 6.18519 64.3136 6.18519C64.3512 6.23387 64.3857 6.28235 64.4196 6.33346C64.44 6.3636 64.4604 6.39373 64.4808 6.42386C64.4961 6.44648 64.4961 6.44648 64.5116 6.46956C64.5677 6.55172 64.6267 6.6318 64.6854 6.71211C64.7181 6.76481 64.7293 6.80718 64.7439 6.86659C64.7606 6.87492 64.7773 6.88325 64.7945 6.89183C64.8307 6.9403 64.8653 6.98991 64.8989 7.0401C64.9173 7.0671 64.9356 7.0941 64.9545 7.12192C64.997 7.19467 64.997 7.19467 64.997 7.27039C65.0137 7.27039 65.0304 7.27039 65.0476 7.27039C65.0647 7.30236 65.0815 7.33446 65.0983 7.3666C65.1077 7.38446 65.1171 7.40232 65.1267 7.42072C65.1489 7.47228 65.1489 7.47228 65.1489 7.54799C65.1656 7.54799 65.1823 7.54799 65.1995 7.54799C65.3258 7.71717 65.413 7.91852 65.5055 8.10712C65.5289 8.15443 65.5526 8.20155 65.5765 8.24862C65.5844 8.26416 65.5922 8.2797 65.6003 8.29572C65.6221 8.33878 65.644 8.38183 65.6658 8.42489C65.6992 8.49355 65.7301 8.56262 65.7597 8.63294C65.786 8.69375 65.8139 8.75376 65.8417 8.81389C65.9112 8.96587 65.9743 9.12003 66.0363 9.27516C66.047 9.30146 66.0576 9.32776 66.0686 9.35486C66.13 9.50787 66.1861 9.66159 66.2374 9.81824C66.2635 9.89801 66.2906 9.97742 66.3178 10.0568C66.4304 10.3872 66.5354 10.7166 66.6169 11.056C66.6245 11.0866 66.6321 11.1173 66.64 11.1489C66.7005 11.3955 66.7486 11.6425 66.7893 11.893C66.7989 11.9526 66.8088 12.0121 66.8187 12.0716C66.849 12.2542 66.8767 12.4364 66.8953 12.6207C66.9036 12.6785 66.9121 12.7363 66.9206 12.7942C66.9483 12.9987 66.9588 13.2027 66.9676 13.4087C66.9703 13.4606 66.9737 13.5124 66.9774 13.5642C66.9966 13.8315 67.0005 14.0976 66.9999 14.3655C66.9997 14.4383 66.9999 14.5111 67 14.5839C67 14.6309 67 14.6778 66.9999 14.7248C67 14.7462 67 14.7677 67.0001 14.7897C66.9996 14.9187 66.9884 15.0418 66.9712 15.1696C66.9717 15.2021 66.9721 15.2347 66.9725 15.2682C66.9745 15.4391 66.9515 15.6089 66.9322 15.7785C66.9255 15.8375 66.919 15.8966 66.9127 15.9557C66.8254 16.7454 66.6453 17.5268 66.4255 18.2895C66.4184 18.3144 66.4113 18.3392 66.4039 18.3648C66.3631 18.5039 66.3158 18.6377 66.2605 18.7716C66.2287 18.85 66.2029 18.9299 66.1771 19.0104C66.084 19.295 65.9693 19.5684 65.8414 19.8393C65.8116 19.9041 65.7849 19.969 65.7595 20.0356C65.6285 20.3689 65.4444 20.6842 65.2754 20.9994C65.2587 20.9994 65.242 20.9994 65.2248 20.9994C65.2201 21.0205 65.2201 21.0205 65.2153 21.042C65.198 21.1059 65.1744 21.1654 65.1489 21.2265C65.1322 21.2265 65.1155 21.2265 65.0983 21.2265C65.0957 21.2447 65.093 21.263 65.0904 21.2817C65.0712 21.3597 65.0437 21.4137 64.997 21.4789C64.9803 21.4789 64.9636 21.4789 64.9464 21.4789C64.9464 21.5039 64.9464 21.5289 64.9464 21.5546C64.9297 21.5546 64.913 21.5546 64.8958 21.5546C64.8932 21.5681 64.8906 21.5817 64.8879 21.5956C64.8659 21.6713 64.8311 21.7373 64.7945 21.807C64.7778 21.807 64.7611 21.807 64.7439 21.807C64.7379 21.8288 64.7319 21.8507 64.7257 21.8732C64.6895 21.9684 64.6434 22.0306 64.5794 22.1098C64.5565 22.1385 64.5337 22.1673 64.511 22.1961C64.4993 22.2109 64.4876 22.2256 64.4755 22.2409C64.4173 22.316 64.3623 22.3935 64.3073 22.471C64.2864 22.5004 64.2654 22.5298 64.2444 22.5593C64.2255 22.5858 64.2066 22.6124 64.1871 22.6398C64.1578 22.6809 64.1283 22.722 64.0985 22.7628C64.0873 22.7784 64.0761 22.7939 64.0645 22.8099C64.0548 22.8204 64.0452 22.8309 64.0352 22.8417C64.0185 22.8417 64.0018 22.8417 63.9846 22.8417C63.9783 22.8615 63.9721 22.8813 63.9656 22.9016C63.9287 22.9789 63.9067 22.9827 63.8327 23.0184C63.8124 23.0701 63.8124 23.0701 63.8074 23.1193C63.7907 23.1193 63.774 23.1193 63.7568 23.1193C63.7511 23.1328 63.7453 23.1464 63.7394 23.1603C63.6947 23.2411 63.642 23.3033 63.5796 23.3717C63.5629 23.3717 63.5462 23.3717 63.529 23.3717C63.5233 23.3852 63.5175 23.3987 63.5116 23.4127C63.4669 23.4934 63.4142 23.5557 63.3518 23.624C63.3351 23.624 63.3184 23.624 63.3012 23.624C63.2961 23.6373 63.2909 23.6506 63.2856 23.6643C63.235 23.752 63.167 23.8177 63.0956 23.889C63.0749 23.9106 63.0749 23.9106 63.0539 23.9325C62.8973 24.0897 62.722 24.1813 62.4976 24.1856C62.2952 24.1829 62.1544 24.1173 62.0104 23.9774C62.0104 23.9607 62.0104 23.944 62.0104 23.9269C61.9937 23.9269 61.977 23.9269 61.9598 23.9269C61.9598 23.9102 61.9598 23.8936 61.9598 23.8764C61.9347 23.8681 61.9097 23.8598 61.8838 23.8512C61.7704 23.6919 61.7607 23.5097 61.7826 23.3212C61.8014 23.2477 61.8262 23.1887 61.8585 23.1193C61.8658 23.1011 61.8731 23.0829 61.8807 23.0641C61.9225 22.9969 61.9793 22.9476 62.0357 22.8922C62.0575 22.8699 62.0792 22.8476 62.1016 22.8246C62.1232 22.8027 62.1448 22.7807 62.167 22.7581C62.1888 22.7358 62.2105 22.7135 62.2329 22.6906C62.2888 22.6398 62.2888 22.6398 62.3394 22.6398C62.3457 22.62 62.352 22.6002 62.3584 22.5799C62.3956 22.5019 62.4172 22.5001 62.4913 22.4631C62.5084 22.4212 62.5252 22.3791 62.5419 22.3369C62.6052 22.266 62.6052 22.266 62.6685 22.2108C62.6852 22.2108 62.7019 22.2108 62.7191 22.2108C62.7274 22.1775 62.7358 22.1441 62.7444 22.1098C62.7611 22.1098 62.7778 22.1098 62.795 22.1098C62.8034 22.0765 62.8117 22.0432 62.8203 22.0089C62.837 22.0089 62.8537 22.0089 62.8709 22.0089C62.8796 21.9895 62.8796 21.9895 62.8883 21.9698C62.9348 21.8832 62.9911 21.8049 63.0481 21.7249C63.0595 21.7086 63.071 21.6922 63.0827 21.6753C63.1121 21.6341 63.1432 21.5942 63.1747 21.5546C63.1914 21.5546 63.2081 21.5546 63.2253 21.5546C63.2336 21.5213 63.242 21.488 63.2506 21.4536C63.2673 21.4536 63.284 21.4536 63.3012 21.4536C63.3091 21.4339 63.3169 21.4141 63.325 21.3937C63.3518 21.3275 63.3518 21.3275 63.3772 21.277C63.3939 21.277 63.4106 21.277 63.4278 21.277C63.433 21.2562 63.4382 21.2353 63.4436 21.2139C63.4738 21.1373 63.4983 21.0954 63.548 21.0325C63.6245 20.9351 63.6815 20.8335 63.7394 20.7243C63.7875 20.6361 63.839 20.5505 63.8913 20.4647C63.9742 20.3281 64.0548 20.1905 64.1333 20.0514C64.1426 20.0349 64.152 20.0184 64.1616 20.0014C64.2386 19.8642 64.3089 19.7247 64.3738 19.5814C64.4402 19.4347 64.4402 19.4347 64.4675 19.3759C64.5539 19.1888 64.6331 18.9993 64.7107 18.8085C64.723 18.7785 64.7353 18.7485 64.7479 18.7176C64.8168 18.5488 64.8798 18.3805 64.9316 18.2057C64.9582 18.1165 64.9855 18.0276 65.0134 17.9389C65.1148 17.6157 65.2026 17.2921 65.2754 16.9614C65.2819 16.9328 65.2819 16.9328 65.2886 16.9036C65.3553 16.6071 65.401 16.3077 65.4447 16.0072C65.4475 15.9885 65.4502 15.9698 65.453 15.9506C65.4899 15.6989 65.5144 15.449 65.5285 15.1948C65.5319 15.1467 65.5319 15.1467 65.5354 15.0977C65.5533 14.8419 65.56 14.5869 65.5602 14.3305C65.5602 14.3094 65.5602 14.2884 65.5603 14.2667C65.5597 13.5776 65.4927 12.896 65.3767 12.2169C65.3716 12.1867 65.3716 12.1867 65.3664 12.1559C65.1889 11.1173 64.8698 10.055 64.3798 9.119C64.3151 8.99462 64.2693 8.87049 64.2377 8.73414C64.221 8.73414 64.2043 8.73414 64.1871 8.73414C64.1769 8.71296 64.1769 8.71296 64.1665 8.69135C64.0336 8.42014 63.883 8.16006 63.715 7.909C63.6831 7.85468 63.6668 7.81138 63.6556 7.74989C63.6389 7.74989 63.6222 7.74989 63.6049 7.74989C63.529 7.60478 63.529 7.60478 63.529 7.54799C63.5123 7.54799 63.4956 7.54799 63.4784 7.54799C63.4436 7.496 63.4116 7.44434 63.3803 7.39026C63.3211 7.2881 63.2623 7.19955 63.1747 7.11896C63.0987 7.02973 63.0987 7.02973 63.0987 6.9423C63.0737 6.93397 63.0486 6.92565 63.0228 6.91707C62.9928 6.8524 62.9928 6.8524 62.9722 6.79088C62.9555 6.79088 62.9388 6.79088 62.9216 6.79088C62.9216 6.7659 62.9216 6.74091 62.9216 6.71517C62.8965 6.70684 62.8715 6.69851 62.8456 6.68993C62.7444 6.57745 62.7444 6.57745 62.7444 6.51327C62.7193 6.50494 62.6943 6.49662 62.6685 6.48803C62.6294 6.44529 62.5922 6.40085 62.5561 6.35554C62.5369 6.33147 62.5176 6.30739 62.4977 6.28259C62.4605 6.23547 62.4234 6.18826 62.3864 6.14093C62.3417 6.08247 62.3417 6.08247 62.2825 6.04165C62.2679 6.03072 62.2532 6.01979 62.2382 6.00853C62.2382 5.99187 62.2382 5.97522 62.2382 5.95806C62.2215 5.95806 62.2048 5.95806 62.1876 5.95806C62.061 5.81985 62.061 5.81985 62.061 5.75616C62.0443 5.75616 62.0276 5.75616 62.0104 5.75616C62.0104 5.7395 62.0104 5.72285 62.0104 5.70568C61.9853 5.69736 61.9603 5.68903 61.9345 5.68045C61.8132 5.49887 61.7806 5.31389 61.8079 5.09999C61.8244 5.02654 61.8483 4.96441 61.8838 4.8981C61.8919 4.88284 61.8999 4.86758 61.9082 4.85186C62.0116 4.68392 62.1891 4.58366 62.3774 4.53373C62.6214 4.49311 62.8014 4.54797 62.9975 4.6962Z" fill="white"/>
<path d="M60.2687 7.33841C60.4321 7.45635 60.5558 7.61693 60.6775 7.77523C60.7158 7.82814 60.7158 7.82814 60.7702 7.85104C60.7702 7.86769 60.7702 7.88435 60.7702 7.90151C60.7869 7.90151 60.8036 7.90151 60.8208 7.90151C60.852 7.94442 60.8831 7.98745 60.9131 8.03125C60.9491 8.08328 60.9491 8.08328 61.0106 8.13969C61.0779 8.2084 61.1215 8.27807 61.1706 8.35992C61.2002 8.40946 61.2002 8.40946 61.2495 8.45515C61.3317 8.53713 61.3954 8.63414 61.4536 8.73434C61.4536 8.75099 61.4536 8.76765 61.4536 8.78481C61.4703 8.78481 61.487 8.78481 61.5042 8.78481C61.5358 8.82562 61.5358 8.82562 61.5711 8.88261C61.5906 8.91369 61.5906 8.91369 61.6104 8.9454C61.6239 8.96736 61.6374 8.98932 61.6513 9.01195C61.6645 9.03312 61.6777 9.0543 61.6913 9.07612C61.7176 9.11834 61.7438 9.16063 61.7698 9.203C61.7947 9.2431 61.8201 9.28295 61.8459 9.32248C61.8575 9.34024 61.8691 9.35801 61.881 9.37631C61.8965 9.39968 61.8965 9.39968 61.9123 9.42353C61.9345 9.46621 61.9345 9.46621 61.9345 9.54192C61.9512 9.55025 61.9679 9.55858 61.9851 9.56716C62.0201 9.62661 62.0529 9.68589 62.0848 9.74698C62.0936 9.76344 62.1023 9.7799 62.1114 9.79686C62.1677 9.90334 62.2163 10.0115 62.2635 10.1224C62.2874 10.1699 62.3117 10.2172 62.3363 10.2643C62.4051 10.4 62.4613 10.5379 62.5144 10.6804C62.5351 10.7353 62.5578 10.7895 62.5815 10.8432C62.6743 11.0646 62.7399 11.2971 62.8109 11.5262C62.8185 11.5506 62.8261 11.5749 62.834 11.6C62.8758 11.7364 62.9106 11.8716 62.9364 12.0119C62.9458 12.0598 62.9588 12.107 62.9722 12.154C62.9975 12.2423 63.0166 12.3298 63.0338 12.42C63.0441 12.4738 63.0551 12.5275 63.0664 12.5811C63.1212 12.8497 63.1472 13.1176 63.1691 13.3905C63.1743 13.449 63.1807 13.5072 63.1876 13.5655C63.2863 14.433 63.2279 15.3741 63.035 16.225C63.017 16.3067 63.0019 16.3889 62.9864 16.4711C62.947 16.6684 62.8939 16.8607 62.8375 17.0537C62.8205 17.1124 62.8043 17.1712 62.7882 17.2302C62.6383 17.7661 62.4129 18.2824 62.1623 18.7787C62.1496 18.8044 62.1496 18.8044 62.1366 18.8307C62.078 18.949 62.0156 19.0646 61.9503 19.1794C61.9404 19.1968 61.9305 19.2142 61.9203 19.2321C61.8914 19.2829 61.8623 19.3337 61.8332 19.3844C61.8178 19.4115 61.8024 19.4387 61.7865 19.4666C61.7666 19.5009 61.7666 19.5009 61.7462 19.5358C61.7348 19.5556 61.7233 19.5754 61.7115 19.5958C61.7016 19.6093 61.6916 19.6228 61.6814 19.6368C61.6647 19.6368 61.648 19.6368 61.6308 19.6368C61.6237 19.6664 61.6237 19.6664 61.6165 19.6967C61.5652 19.8257 61.4846 19.929 61.403 20.0406C61.3863 20.0656 61.3695 20.0905 61.3523 20.1163C61.3356 20.1163 61.3189 20.1163 61.3017 20.1163C61.2944 20.1355 61.2871 20.1548 61.2796 20.1746C61.2511 20.2425 61.2511 20.2425 61.2005 20.3182C61.1838 20.3182 61.1671 20.3182 61.1499 20.3182C61.1499 20.3432 61.1499 20.3681 61.1499 20.3939C61.1167 20.4281 61.0828 20.4617 61.0486 20.4948C61.0324 20.5193 61.0162 20.5438 60.9996 20.569C60.9465 20.6476 60.8887 20.7064 60.8208 20.7724C60.7979 20.8001 60.7752 20.828 60.7528 20.856C60.7335 20.8784 60.7142 20.9008 60.6943 20.9239C60.6776 20.9239 60.6609 20.9239 60.6436 20.9239C60.6374 20.9426 60.6311 20.9613 60.6247 20.9806C60.5904 21.0559 60.5548 21.098 60.4918 21.151C60.4751 21.151 60.4584 21.151 60.4412 21.151C60.4412 21.1677 60.4412 21.1843 60.4412 21.2015C60.4245 21.2015 60.4077 21.2015 60.3905 21.2015C60.3905 21.2181 60.3905 21.2348 60.3905 21.252C60.3738 21.252 60.3571 21.252 60.3399 21.252C60.3399 21.2686 60.3399 21.2853 60.3399 21.3024C60.3232 21.3024 60.3065 21.3024 60.2893 21.3024C60.2809 21.3274 60.2726 21.3524 60.264 21.3781C60.0728 21.493 59.8768 21.5339 59.6565 21.5043C59.584 21.4847 59.5226 21.4602 59.454 21.4286C59.454 21.412 59.454 21.3953 59.454 21.3781C59.4392 21.3715 59.4244 21.3648 59.4091 21.3579C59.2541 21.2746 59.1514 21.1405 59.0997 20.9743C59.0571 20.7504 59.0995 20.571 59.2009 20.3687C59.2176 20.3687 59.2344 20.3687 59.2516 20.3687C59.2582 20.3535 59.2647 20.3383 59.2715 20.3227C59.3043 20.2638 59.3346 20.236 59.3876 20.1951C59.4491 20.1452 59.4946 20.0999 59.5363 20.0327C59.5806 19.9649 59.5806 19.9649 59.6565 19.9396C59.6736 19.8976 59.6905 19.8556 59.7072 19.8134C59.7578 19.7551 59.7578 19.7551 59.8084 19.7125C59.8251 19.7125 59.8418 19.7125 59.859 19.7125C59.8674 19.6792 59.8757 19.6459 59.8843 19.6115C59.901 19.6115 59.9177 19.6115 59.9349 19.6115C59.9451 19.5905 59.9451 19.5905 59.9555 19.5689C59.9883 19.5052 60.0216 19.444 60.0615 19.3844C60.0782 19.3844 60.0949 19.3844 60.1121 19.3844C60.1121 19.3594 60.1121 19.3344 60.1121 19.3087C60.1288 19.3087 60.1455 19.3087 60.1627 19.3087C60.1627 19.292 60.1627 19.2754 60.1627 19.2582C60.1794 19.2582 60.1962 19.2582 60.2134 19.2582C60.2217 19.2166 60.2301 19.1749 60.2387 19.132C60.2554 19.132 60.2721 19.132 60.2893 19.132C60.2956 19.1149 60.3018 19.0977 60.3083 19.08C60.346 18.9915 60.3923 18.9121 60.4412 18.8292C60.4579 18.8292 60.4746 18.8292 60.4918 18.8292C60.498 18.8125 60.5043 18.7959 60.5108 18.7787C60.5505 18.6837 60.5967 18.5927 60.6436 18.5011C60.6603 18.5011 60.6771 18.5011 60.6943 18.5011C60.7084 18.4535 60.7084 18.4535 60.7227 18.4049C60.7624 18.2859 60.8185 18.1824 60.8799 18.0734C61.1007 17.6697 61.2807 17.2279 61.403 16.785C61.4115 16.7544 61.42 16.7239 61.4288 16.6924C61.4843 16.4888 61.5342 16.2843 61.5801 16.0783C61.584 16.0629 61.5878 16.0474 61.5917 16.0314C61.6318 15.8641 61.6543 15.695 61.6764 15.5245C61.6829 15.4744 61.6896 15.4244 61.6963 15.3743C61.7086 15.2809 61.7204 15.1875 61.732 15.0941C61.7348 15.072 61.7376 15.05 61.7405 15.0273C61.762 14.8412 61.7622 14.655 61.762 14.4679C61.7621 14.4506 61.7621 14.4332 61.7621 14.4154C61.7623 14.1184 61.7474 13.8241 61.7225 13.5282C61.7201 13.4995 61.7177 13.4709 61.7153 13.4414C61.713 13.4162 61.7108 13.3911 61.7085 13.3652C61.7067 13.3023 61.7067 13.3023 61.732 13.2265C61.7153 13.2265 61.6986 13.2265 61.6814 13.2265C61.6792 13.206 61.677 13.1854 61.6747 13.1641C61.6031 12.5617 61.4535 11.9472 61.2258 11.3842C61.2174 11.3634 61.209 11.3426 61.2004 11.3211C61.0839 11.0329 60.9663 10.749 60.813 10.478C60.7449 10.3565 60.7449 10.3565 60.7449 10.2738C60.7282 10.2738 60.7115 10.2738 60.6943 10.2738C60.6812 10.2462 60.6682 10.2186 60.6547 10.1902C60.5418 9.9655 60.3936 9.75976 60.2514 9.55287C60.2134 9.49145 60.2134 9.49145 60.2134 9.44098C60.1967 9.44098 60.18 9.44098 60.1627 9.44098C60.0615 9.3044 60.0615 9.3044 60.0615 9.23908C60.0448 9.23908 60.0281 9.23908 60.0109 9.23908C59.9528 9.17444 59.9349 9.15126 59.9349 9.06242C59.9099 9.05409 59.8848 9.04576 59.859 9.03718C59.859 9.02053 59.859 9.00387 59.859 8.98671C59.8214 8.97422 59.8214 8.97422 59.7831 8.96147C59.7794 8.94534 59.7758 8.9292 59.772 8.91257C59.7673 8.8954 59.7626 8.87822 59.7578 8.86052C59.7349 8.84925 59.7349 8.84925 59.7115 8.83775C59.6486 8.80606 59.6177 8.77229 59.5727 8.71856C59.5499 8.69177 59.5499 8.69177 59.5267 8.66444C59.5111 8.64587 59.4955 8.62729 59.4794 8.60815C59.4478 8.57179 59.4162 8.53551 59.3844 8.49932C59.3705 8.48328 59.3565 8.46724 59.3421 8.45072C59.3033 8.40634 59.3033 8.40634 59.2625 8.36869C59.1482 8.24847 59.1177 8.09892 59.1139 7.93779C59.1187 7.80237 59.1359 7.69265 59.2009 7.57343C59.213 7.55059 59.213 7.55059 59.2253 7.52729C59.3157 7.38018 59.4674 7.2826 59.6306 7.22888C59.8549 7.19046 60.0729 7.21986 60.2687 7.33841Z" fill="white"/>
<path d="M54.9239 12.6709C55.0293 12.7591 55.1289 12.8532 55.2276 12.9485C55.243 12.9627 55.2584 12.9769 55.2743 12.9915C55.3036 13.0243 55.3036 13.0243 55.3036 13.0747C55.3203 13.0747 55.337 13.0747 55.3542 13.0747C55.3542 13.0997 55.3542 13.1247 55.3542 13.1504C55.3709 13.1504 55.3876 13.1504 55.4048 13.1504C55.6878 13.5051 55.7994 13.9613 55.7956 14.406C55.7954 14.437 55.7952 14.468 55.795 14.4999C55.7876 14.918 55.671 15.2654 55.4554 15.6237C55.4387 15.6237 55.422 15.6237 55.4048 15.6237C55.4001 15.6403 55.3954 15.657 55.3906 15.6742C55.3388 15.7819 55.2638 15.8695 55.177 15.9518C55.1603 15.9518 55.1436 15.9518 55.1264 15.9518C55.1264 15.9684 55.1264 15.9851 55.1264 16.0022C55.1097 16.0022 55.093 16.0022 55.0758 16.0022C55.0758 16.0189 55.0758 16.0355 55.0758 16.0527C54.9882 16.1284 54.9882 16.1284 54.9239 16.1284C54.9239 16.1451 54.9239 16.1617 54.9239 16.1789C54.7631 16.2975 54.5757 16.379 54.3924 16.4565C54.3728 16.4648 54.3532 16.4731 54.333 16.4817C54.1136 16.5643 53.8805 16.566 53.6489 16.5653C53.6203 16.5657 53.5917 16.5662 53.5623 16.5666C53.0131 16.5669 52.5386 16.3522 52.1431 15.9806C51.9373 15.7743 51.9373 15.7743 51.9373 15.6994C51.9206 15.6994 51.9039 15.6994 51.8867 15.6994C51.535 15.2647 51.4314 14.6759 51.487 14.1331C51.5512 13.6489 51.7787 13.2469 52.1145 12.8981C52.1298 12.8818 52.1451 12.8655 52.1609 12.8487C52.1948 12.8135 52.2304 12.7798 52.2663 12.7466C52.283 12.7466 52.2997 12.7466 52.3169 12.7466C52.3169 12.73 52.3169 12.7133 52.3169 12.6962C53.0215 12.0813 54.2016 12.1328 54.9239 12.6709Z" fill="white"/>
<path d="M57.5302 9.99427C57.5302 10.0109 57.5302 10.0276 57.5302 10.0447C57.5469 10.0447 57.5636 10.0447 57.5809 10.0447C57.5809 10.0614 57.5809 10.0781 57.5809 10.0952C57.5951 10.1012 57.6093 10.1072 57.624 10.1134C57.6952 10.153 57.7449 10.2016 57.8023 10.2593C57.8225 10.2793 57.8428 10.2993 57.8636 10.32C57.9099 10.3728 57.9099 10.3728 57.9099 10.4233C57.9349 10.4316 57.96 10.44 57.9858 10.4485C58.0265 10.4934 58.0265 10.4934 58.0665 10.5479C58.0799 10.5658 58.0933 10.5838 58.1071 10.6022C58.1377 10.6504 58.1377 10.6504 58.1377 10.7009C58.1544 10.7009 58.1711 10.7009 58.1883 10.7009C58.1883 10.7259 58.1883 10.7509 58.1883 10.7766C58.205 10.7766 58.2217 10.7766 58.2389 10.7766C58.3473 10.9089 58.4343 11.0567 58.5173 11.2057C58.5394 11.2399 58.5615 11.2741 58.5838 11.3082C58.6354 11.3892 58.6647 11.4676 58.6945 11.559C58.7057 11.5691 58.717 11.5791 58.7285 11.5895C58.7906 11.6564 58.8207 11.7364 58.8559 11.8192C58.8636 11.8371 58.8713 11.855 58.8792 11.8734C58.9517 12.0437 59.0146 12.2166 59.0742 12.3918C59.0846 12.4215 59.0846 12.4215 59.0952 12.4518C59.1808 12.6997 59.2533 12.9494 59.292 13.209C59.2985 13.2524 59.3062 13.2958 59.3151 13.3389C59.3314 13.4224 59.338 13.5059 59.3455 13.5906C59.3516 13.6536 59.3516 13.6536 59.3651 13.7147C59.4336 14.0645 59.4099 14.438 59.3921 14.7925C59.3911 14.8125 59.3902 14.8325 59.3891 14.8532C59.3832 14.9599 59.3722 15.0627 59.3526 15.1679C59.3458 15.208 59.3391 15.2481 59.3324 15.2882C59.2243 15.916 59.0484 16.5252 58.7452 17.089C58.7192 17.1376 58.6937 17.1865 58.6683 17.2356C58.4568 17.6414 58.4568 17.6414 58.3402 17.7925C58.3235 17.7925 58.3068 17.7925 58.2895 17.7925C58.2828 17.8108 58.276 17.829 58.269 17.8477C58.239 17.9187 58.2067 17.9814 58.163 18.0449C58.1463 18.0449 58.1296 18.0449 58.1124 18.0449C58.1054 18.0598 58.0985 18.0747 58.0914 18.09C58.0628 18.144 58.0325 18.1852 57.9928 18.2314C57.9793 18.2472 57.9658 18.2629 57.9519 18.2791C57.9375 18.2955 57.9231 18.3119 57.9083 18.3288C57.8936 18.3457 57.8788 18.3626 57.8636 18.3799C57.6687 18.5999 57.4882 18.8015 57.179 18.8241C56.9349 18.8359 56.8134 18.7785 56.6334 18.6183C56.5937 18.5749 56.5937 18.5749 56.5684 18.4992C56.5517 18.4992 56.535 18.4992 56.5178 18.4992C56.396 18.3132 56.3941 18.1367 56.4166 17.9187C56.4618 17.7186 56.6056 17.5819 56.7456 17.4392C56.7651 17.4192 56.7651 17.4192 56.785 17.3988C56.831 17.3523 56.8783 17.3073 56.9259 17.2626C56.9957 17.1883 57.0396 17.1034 57.0889 17.0149C57.1009 16.9967 57.1129 16.9785 57.1253 16.9597C57.142 16.9597 57.1587 16.9597 57.1759 16.9597C57.1832 16.9363 57.1905 16.9129 57.198 16.8887C57.2265 16.8083 57.2265 16.8083 57.2771 16.7326C57.2938 16.7326 57.3105 16.7326 57.3277 16.7326C57.3341 16.7119 57.3404 16.6912 57.3469 16.6699C57.3834 16.567 57.4289 16.471 57.4764 16.373C57.7881 15.7194 57.9463 15.0498 57.9463 14.3256C57.9463 14.306 57.9464 14.2865 57.9464 14.2663C57.946 13.9 57.8998 13.5549 57.8086 13.1994C57.8016 13.1708 57.8016 13.1708 57.7943 13.1417C57.7469 12.9529 57.6854 12.7714 57.6062 12.5937C57.599 12.5776 57.5918 12.5615 57.5844 12.5448C57.4967 12.3498 57.4098 12.1594 57.2852 11.9846C57.1506 11.7951 57.1506 11.7951 57.1506 11.7104C57.1339 11.7104 57.1172 11.7104 57.1 11.7104C56.9987 11.6005 56.9987 11.6005 56.9987 11.5085C56.982 11.5085 56.9653 11.5085 56.9481 11.5085C56.9481 11.4835 56.9481 11.4585 56.9481 11.4328C56.9105 11.4203 56.9105 11.4203 56.8722 11.4076C56.8315 11.3682 56.8315 11.3682 56.7915 11.3208C56.7781 11.3052 56.7647 11.2896 56.7508 11.2736C56.7203 11.2309 56.7203 11.2309 56.7203 11.1804C56.7036 11.1804 56.6869 11.1804 56.6697 11.1804C56.6697 11.1638 56.6697 11.1471 56.6697 11.1299C56.653 11.1299 56.6363 11.1299 56.6191 11.1299C56.4633 10.9646 56.4262 10.783 56.4102 10.5637C56.4225 10.3895 56.4921 10.2182 56.6191 10.0952C56.9259 9.88524 57.1881 9.82369 57.5302 9.99427Z" fill="white"/>
</svg>
