<svg width="20" height="21" viewBox="0 0 20 21" fill="none" xmlns="http://www.w3.org/2000/svg">
<path d="M3.7646 1.15894L4.96823 2.75073L10.0573 7.83979L14.6606 3.23659L16.2317 1.15901L9.99757 5.38144L3.7646 1.15894ZM17.6648 2.6994L13.2287 5.70116L10.3161 8.61378L10.0585 8.87257L9.79976 8.61378L6.91155 5.72558L2.44503 2.70311L5.603 7.36991L8.32394 10.0908L8.58151 10.3484L8.32394 10.6072L5.40155 13.5294L2.40476 17.9596L7.12155 14.7686L9.80347 12.0867L10.061 11.828L10.3198 12.0867L13.0371 14.804L17.7062 17.9644L14.6838 13.4978L11.7956 10.6096L11.538 10.3521L11.7956 10.0933L14.4737 7.41503L17.6647 2.6994H17.6648ZM0.86792 4.05448L5.09151 10.2886L0.86792 16.5215L2.95651 14.9419L7.54878 10.3496L2.45355 5.25436L0.86792 4.05448ZM19.2517 4.17772L17.1728 5.74882L12.5707 10.3521L17.6672 15.4485L19.2504 16.646L15.0281 10.4119L19.2516 4.17769L19.2517 4.17772ZM10.061 12.8605L5.46378 17.4578L3.88788 19.5415L10.1221 15.3191L16.355 19.5415L15.1562 17.9558L10.061 12.8606L10.061 12.8605Z" fill="url(#paint0_linear_26527_490)"/>
<defs>
<linearGradient id="paint0_linear_26527_490" x1="10.0598" y1="1.15894" x2="10.0598" y2="19.5415" gradientUnits="userSpaceOnUse">
<stop stop-color="#FF7DD0"/>
<stop offset="1" stop-color="#F7009E"/>
</linearGradient>
</defs>
</svg>
