<svg width="18" height="18" viewBox="0 0 18 18" fill="none" xmlns="http://www.w3.org/2000/svg">
<path d="M15.7501 3.75004L2.25006 3.75004C2.11338 3.75047 1.9794 3.78817 1.86255 3.85908C1.7457 3.92999 1.6504 4.03142 1.58691 4.15246C1.52342 4.2735 1.49414 4.40956 1.50223 4.54601C1.51032 4.68245 1.55546 4.8141 1.63281 4.92679L8.38281 14.6768C8.66256 15.081 9.33606 15.081 9.61656 14.6768L16.3666 4.92679C16.4447 4.81434 16.4905 4.68262 16.499 4.54595C16.5076 4.40928 16.4785 4.27289 16.4149 4.15159C16.3514 4.03029 16.2558 3.92873 16.1386 3.85793C16.0214 3.78714 15.887 3.74983 15.7501 3.75004Z" fill="#F7009E"/>
</svg>
