<svg width="18" height="16" viewBox="0 0 18 16" fill="none" xmlns="http://www.w3.org/2000/svg">
<path d="M11.5 9.04171C11.8797 9.04171 12.196 9.04116 12.4546 9.0588C12.7188 9.07683 12.9687 9.11569 13.2106 9.21586L13.4157 9.31352C13.8802 9.56242 14.2474 9.96503 14.4508 10.4561L14.5151 10.6392C14.5692 10.8239 14.5944 11.0139 14.6079 11.2121C14.6148 11.3131 14.6168 11.4229 14.6193 11.5417H16.5C16.8452 11.5417 17.125 11.8215 17.125 12.1667C17.125 12.5119 16.8452 12.7917 16.5 12.7917H14.6193C14.6168 12.9105 14.6148 13.0204 14.6079 13.1213C14.5944 13.3195 14.5692 13.5095 14.5151 13.6942L14.4508 13.8773C14.2474 14.3684 13.8802 14.771 13.4157 15.0199L13.2106 15.1176C12.9687 15.2177 12.7188 15.2566 12.4546 15.2746C12.196 15.2923 11.8797 15.2917 11.5 15.2917C11.1203 15.2917 10.804 15.2923 10.5454 15.2746C10.3472 15.2611 10.1572 15.2359 9.97249 15.1818L9.78939 15.1176C9.29832 14.9141 8.89571 14.5469 8.64681 14.0824L8.54915 13.8773C8.44898 13.6354 8.41012 13.3855 8.39209 13.1213C8.37445 12.8627 8.375 12.5465 8.375 12.1667C8.375 11.787 8.37445 11.4707 8.39209 11.2121C8.41012 10.9479 8.44898 10.698 8.54915 10.4561L8.64681 10.251C8.89571 9.78655 9.29832 9.41933 9.78939 9.21586L9.97249 9.15157C10.1572 9.09751 10.3472 9.07232 10.5454 9.0588C10.804 9.04116 11.1203 9.04171 11.5 9.04171ZM6.5 11.5417C6.84518 11.5417 7.125 11.8215 7.125 12.1667C7.125 12.5119 6.84518 12.7917 6.5 12.7917H1.5C1.15482 12.7917 0.875 12.5119 0.875 12.1667C0.875 11.8215 1.15482 11.5417 1.5 11.5417H6.5ZM8.375 3.83338C8.375 3.43669 8.3744 3.17043 8.36035 2.96424C8.35007 2.81346 8.33361 2.72065 8.31478 2.65662L8.29606 2.60128C8.20354 2.37794 8.03616 2.19521 7.82487 2.08207L7.7321 2.03731C7.66776 2.01068 7.56967 1.98671 7.36914 1.97302C7.16295 1.95897 6.89669 1.95838 6.5 1.95838C6.10331 1.95838 5.83705 1.95897 5.63086 1.97302C5.48007 1.98331 5.38726 1.99976 5.32324 2.0186L5.2679 2.03731C5.04455 2.12984 4.86183 2.29722 4.7487 2.50851L4.70394 2.60128C4.67731 2.66558 4.65333 2.76365 4.63965 2.96424C4.62559 3.17042 4.625 3.43668 4.625 3.83338C4.625 4.23007 4.62559 4.49633 4.63965 4.70252C4.65333 4.9031 4.67731 5.00117 4.70394 5.06547L4.7487 5.15825C4.86183 5.36953 5.04454 5.53692 5.2679 5.62944L5.32324 5.64815C5.38726 5.66699 5.48007 5.68344 5.63086 5.69373C5.83705 5.70778 6.10331 5.70838 6.5 5.70838C6.89669 5.70838 7.16295 5.70778 7.36914 5.69373C7.56967 5.68005 7.66776 5.65607 7.7321 5.62944L7.82487 5.58468C8.03616 5.47154 8.20354 5.28881 8.29606 5.06547L8.31478 5.01013C8.33361 4.9461 8.35007 4.85329 8.36035 4.70252C8.3744 4.49632 8.375 4.23006 8.375 3.83338ZM16.5 3.20838C16.8452 3.20838 17.125 3.4882 17.125 3.83338C17.125 4.17855 16.8452 4.45838 16.5 4.45838H11.5C11.1548 4.45838 10.875 4.17855 10.875 3.83338C10.875 3.4882 11.1548 3.20838 11.5 3.20838H16.5ZM9.625 12.1667C9.625 12.5634 9.6256 12.8297 9.63965 13.0359C9.65332 13.2363 9.67731 13.3344 9.70394 13.3988L9.7487 13.4916C9.86184 13.7028 10.0446 13.8702 10.2679 13.9628L10.3232 13.9815C10.3873 14.0003 10.4801 14.0168 10.6309 14.0271C10.8371 14.0411 11.1033 14.0417 11.5 14.0417C11.8967 14.0417 12.1629 14.0411 12.3691 14.0271C12.5696 14.0134 12.6677 13.9894 12.7321 13.9628L12.8249 13.918C13.0361 13.8049 13.2035 13.6221 13.2961 13.3988L13.3148 13.3435C13.3336 13.2794 13.3501 13.1866 13.3604 13.0359C13.3744 12.8297 13.375 12.5634 13.375 12.1667C13.375 11.77 13.3744 11.5038 13.3604 11.2976C13.3501 11.1468 13.3336 11.054 13.3148 10.99L13.2961 10.9346C13.2035 10.7113 13.0361 10.5286 12.8249 10.4154L12.7321 10.3706C12.6677 10.344 12.5696 10.32 12.3691 10.3064C12.1629 10.2923 11.8967 10.2917 11.5 10.2917C11.1033 10.2917 10.8371 10.2923 10.6309 10.3064C10.4801 10.3166 10.3873 10.3331 10.3232 10.3519L10.2679 10.3706C10.0446 10.4632 9.86184 10.6306 9.7487 10.8418L9.70394 10.9346C9.67731 10.999 9.65332 11.0971 9.63965 11.2976C9.6256 11.5038 9.625 11.77 9.625 12.1667ZM9.625 3.83338C9.625 4.21311 9.62555 4.52934 9.60791 4.78797C9.59439 4.98617 9.56921 5.1762 9.51514 5.36088L9.45085 5.54399C9.24736 6.03511 8.88014 6.4377 8.41569 6.68657L8.21061 6.78422C7.96865 6.88443 7.71881 6.92325 7.45459 6.94129C7.19595 6.95893 6.87973 6.95838 6.5 6.95838C6.12027 6.95838 5.80405 6.95893 5.54541 6.94129C5.34721 6.92776 5.15718 6.90259 4.97249 6.84851L4.78939 6.78422C4.29829 6.58076 3.89569 6.21355 3.64681 5.74907L3.54915 5.54399C3.44893 5.30203 3.41012 5.05218 3.39209 4.78797C3.3852 4.68703 3.38319 4.57718 3.3807 4.45838H1.5C1.15482 4.45838 0.875 4.17855 0.875 3.83338C0.875 3.4882 1.15482 3.20838 1.5 3.20838H3.3807C3.38319 3.08957 3.3852 2.97972 3.39209 2.87879C3.41012 2.61458 3.44893 2.36472 3.54915 2.12276L3.64681 1.91769C3.89569 1.4532 4.29829 1.08599 4.78939 0.88253L4.97249 0.818239C5.15718 0.764159 5.34721 0.738993 5.54541 0.725466C5.80405 0.707819 6.12027 0.708376 6.5 0.708376C6.87973 0.708376 7.19595 0.707819 7.45459 0.725466C7.71881 0.743499 7.96865 0.782322 8.21061 0.88253L8.41569 0.980186C8.88014 1.22906 9.24736 1.63164 9.45085 2.12276L9.51514 2.30587C9.56921 2.49056 9.59439 2.68058 9.60791 2.87879C9.62555 3.13742 9.625 3.45364 9.625 3.83338Z" fill="#F8FAFC"/>
</svg>
