<svg width="44" height="34" viewBox="0 0 44 34" fill="none" xmlns="http://www.w3.org/2000/svg">
<path d="M4.93368 31.02V30.0419H5.52019V30.1469H5.05213V30.4774H5.47625V30.5825H5.05213V31.02H4.93368Z" fill="#615E83"/>
<path d="M12.5375 30.0417V31.0199H12.419V30.1659H12.4133L12.1745 30.3245V30.2041L12.419 30.0417H12.5375ZM12.8995 31.0199V30.9339L13.2224 30.5805C13.2602 30.5391 13.2915 30.5031 13.316 30.4725C13.3405 30.4417 13.3586 30.4127 13.3704 30.3856C13.3825 30.3582 13.3886 30.3296 13.3886 30.2997C13.3886 30.2653 13.3803 30.2355 13.3637 30.2103C13.3475 30.1852 13.3252 30.1658 13.2969 30.1521C13.2685 30.1384 13.2367 30.1315 13.2013 30.1315C13.1638 30.1315 13.131 30.1393 13.103 30.1549C13.0752 30.1702 13.0538 30.1917 13.0385 30.2194C13.0235 30.2471 13.016 30.2796 13.016 30.3168H12.9033C12.9033 30.2595 12.9165 30.2092 12.9429 30.1659C12.9694 30.1226 13.0054 30.0889 13.0509 30.0647C13.0967 30.0405 13.1482 30.0284 13.2052 30.0284C13.2625 30.0284 13.3133 30.0405 13.3575 30.0647C13.4018 30.0889 13.4365 30.1215 13.4616 30.1626C13.4868 30.2037 13.4994 30.2493 13.4994 30.2997C13.4994 30.3356 13.4928 30.3708 13.4798 30.4052C13.4671 30.4393 13.4448 30.4773 13.4129 30.5194C13.3814 30.5611 13.3376 30.612 13.2816 30.6722L13.0619 30.9072V30.9148H13.5166V31.0199H12.8995ZM13.8786 30.8948C13.855 30.8948 13.8348 30.8863 13.8179 30.8694C13.801 30.8526 13.7926 30.8324 13.7926 30.8088C13.7926 30.7852 13.801 30.765 13.8179 30.7481C13.8348 30.7313 13.855 30.7228 13.8786 30.7228C13.9021 30.7228 13.9224 30.7313 13.9392 30.7481C13.9561 30.765 13.9646 30.7852 13.9646 30.8088C13.9646 30.8244 13.9606 30.8387 13.9526 30.8518C13.945 30.8648 13.9346 30.8753 13.9216 30.8833C13.9088 30.8909 13.8945 30.8948 13.8786 30.8948ZM13.8786 30.4C13.855 30.4 13.8348 30.3915 13.8179 30.3746C13.801 30.3578 13.7926 30.3375 13.7926 30.314C13.7926 30.2904 13.801 30.2702 13.8179 30.2533C13.8348 30.2364 13.855 30.228 13.8786 30.228C13.9021 30.228 13.9224 30.2364 13.9392 30.2533C13.9561 30.2702 13.9646 30.2904 13.9646 30.314C13.9646 30.3296 13.9606 30.3439 13.9526 30.357C13.945 30.37 13.9346 30.3805 13.9216 30.3885C13.9088 30.3961 13.8945 30.4 13.8786 30.4ZM14.5647 31.0333C14.4927 31.0333 14.4314 31.0137 14.3808 30.9745C14.3301 30.935 14.2915 30.8779 14.2647 30.8031C14.238 30.7279 14.2246 30.6372 14.2246 30.5308C14.2246 30.4251 14.238 30.3348 14.2647 30.26C14.2918 30.1849 14.3306 30.1275 14.3813 30.0881C14.4322 30.0483 14.4933 30.0284 14.5647 30.0284C14.636 30.0284 14.697 30.0483 14.7476 30.0881C14.7985 30.1275 14.8374 30.1849 14.8641 30.26C14.8912 30.3348 14.9047 30.4251 14.9047 30.5308C14.9047 30.6372 14.8913 30.7279 14.8646 30.8031C14.8379 30.8779 14.7992 30.935 14.7485 30.9745C14.6979 31.0137 14.6366 31.0333 14.5647 31.0333ZM14.5647 30.9282C14.636 30.9282 14.6914 30.8938 14.7309 30.825C14.7704 30.7563 14.7901 30.6582 14.7901 30.5308C14.7901 30.4461 14.781 30.374 14.7629 30.3145C14.745 30.2549 14.7192 30.2095 14.6855 30.1783C14.6521 30.1471 14.6118 30.1315 14.5647 30.1315C14.494 30.1315 14.4387 30.1664 14.3989 30.2361C14.3591 30.3055 14.3392 30.4038 14.3392 30.5308C14.3392 30.6155 14.3481 30.6875 14.366 30.7467C14.3838 30.8059 14.4094 30.851 14.4429 30.8819C14.4766 30.9128 14.5172 30.9282 14.5647 30.9282ZM13.5386 33.0333C13.4667 33.0333 13.4054 33.0137 13.3548 32.9745C13.3041 32.935 13.2655 32.8779 13.2387 32.8031C13.212 32.7279 13.1986 32.6372 13.1986 32.5308C13.1986 32.4251 13.212 32.3348 13.2387 32.26C13.2658 32.1849 13.3046 32.1275 13.3552 32.0881C13.4062 32.0483 13.4673 32.0284 13.5386 32.0284C13.61 32.0284 13.6709 32.0483 13.7216 32.0881C13.7725 32.1275 13.8114 32.1849 13.8381 32.26C13.8652 32.3348 13.8787 32.4251 13.8787 32.5308C13.8787 32.6372 13.8653 32.7279 13.8386 32.8031C13.8118 32.8779 13.7732 32.935 13.7225 32.9745C13.6719 33.0137 13.6106 33.0333 13.5386 33.0333ZM13.5386 32.9282C13.61 32.9282 13.6654 32.8938 13.7049 32.825C13.7443 32.7563 13.7641 32.6582 13.7641 32.5308C13.7641 32.4461 13.755 32.374 13.7369 32.3145C13.719 32.2549 13.6932 32.2095 13.6595 32.1783C13.6261 32.1471 13.5858 32.1315 13.5386 32.1315C13.468 32.1315 13.4127 32.1664 13.3729 32.2361C13.3331 32.3055 13.3132 32.4038 13.3132 32.5308C13.3132 32.6155 13.3221 32.6875 13.34 32.7467C13.3578 32.8059 13.3834 32.851 13.4169 32.8819C13.4506 32.9128 13.4912 32.9282 13.5386 32.9282Z" fill="#615E83"/>
<path d="M20.8733 30.0417V31.0199H20.7548V30.1659H20.7491L20.5103 30.3245V30.2041L20.7548 30.0417H20.8733ZM21.2124 30.8193V30.7219L21.6422 30.0417H21.7129V30.1927H21.6651L21.3404 30.7066V30.7142H21.9192V30.8193H21.2124ZM21.6728 31.0199V30.7897V30.7443V30.0417H21.7855V31.0199H21.6728ZM22.263 30.8948C22.2394 30.8948 22.2192 30.8863 22.2023 30.8694C22.1855 30.8526 22.177 30.8324 22.177 30.8088C22.177 30.7852 22.1855 30.765 22.2023 30.7481C22.2192 30.7313 22.2394 30.7228 22.263 30.7228C22.2866 30.7228 22.3068 30.7313 22.3236 30.7481C22.3405 30.765 22.349 30.7852 22.349 30.8088C22.349 30.8244 22.345 30.8387 22.337 30.8518C22.3294 30.8648 22.319 30.8753 22.306 30.8833C22.2932 30.8909 22.2789 30.8948 22.263 30.8948ZM22.263 30.4C22.2394 30.4 22.2192 30.3915 22.2023 30.3746C22.1855 30.3578 22.177 30.3375 22.177 30.314C22.177 30.2904 22.1855 30.2702 22.2023 30.2533C22.2192 30.2364 22.2394 30.228 22.263 30.228C22.2866 30.228 22.3068 30.2364 22.3236 30.2533C22.3405 30.2702 22.349 30.2904 22.349 30.314C22.349 30.3296 22.345 30.3439 22.337 30.357C22.3294 30.37 22.319 30.3805 22.306 30.3885C22.2932 30.3961 22.2789 30.4 22.263 30.4ZM22.9491 31.0333C22.8771 31.0333 22.8158 31.0137 22.7652 30.9745C22.7146 30.935 22.6759 30.8779 22.6491 30.8031C22.6224 30.7279 22.609 30.6372 22.609 30.5308C22.609 30.4251 22.6224 30.3348 22.6491 30.26C22.6762 30.1849 22.715 30.1275 22.7657 30.0881C22.8166 30.0483 22.8777 30.0284 22.9491 30.0284C23.0204 30.0284 23.0814 30.0483 23.132 30.0881C23.1829 30.1275 23.2218 30.1849 23.2485 30.26C23.2756 30.3348 23.2891 30.4251 23.2891 30.5308C23.2891 30.6372 23.2758 30.7279 23.249 30.8031C23.2223 30.8779 23.1836 30.935 23.1329 30.9745C23.0823 31.0137 23.021 31.0333 22.9491 31.0333ZM22.9491 30.9282C23.0204 30.9282 23.0758 30.8938 23.1153 30.825C23.1548 30.7563 23.1745 30.6582 23.1745 30.5308C23.1745 30.4461 23.1654 30.374 23.1473 30.3145C23.1294 30.2549 23.1037 30.2095 23.0699 30.1783C23.0365 30.1471 22.9962 30.1315 22.9491 30.1315C22.8784 30.1315 22.8231 30.1664 22.7833 30.2361C22.7435 30.3055 22.7236 30.4038 22.7236 30.5308C22.7236 30.6155 22.7325 30.6875 22.7504 30.7467C22.7682 30.8059 22.7938 30.851 22.8273 30.8819C22.861 30.9128 22.9016 30.9282 22.9491 30.9282ZM21.8988 33.0333C21.8268 33.0333 21.7655 33.0137 21.7149 32.9745C21.6642 32.935 21.6256 32.8779 21.5988 32.8031C21.5721 32.7279 21.5587 32.6372 21.5587 32.5308C21.5587 32.4251 21.5721 32.3348 21.5988 32.26C21.6259 32.1849 21.6647 32.1275 21.7153 32.0881C21.7663 32.0483 21.8274 32.0284 21.8988 32.0284C21.9701 32.0284 22.0311 32.0483 22.0817 32.0881C22.1326 32.1275 22.1715 32.1849 22.1982 32.26C22.2253 32.3348 22.2388 32.4251 22.2388 32.5308C22.2388 32.6372 22.2254 32.7279 22.1987 32.8031C22.172 32.8779 22.1333 32.935 22.0826 32.9745C22.032 33.0137 21.9707 33.0333 21.8988 33.0333ZM21.8988 32.9282C21.9701 32.9282 22.0255 32.8938 22.065 32.825C22.1044 32.7563 22.1242 32.6582 22.1242 32.5308C22.1242 32.4461 22.1151 32.374 22.097 32.3145C22.0791 32.2549 22.0533 32.2095 22.0196 32.1783C21.9862 32.1471 21.9459 32.1315 21.8988 32.1315C21.8281 32.1315 21.7728 32.1664 21.733 32.2361C21.6932 32.3055 21.6733 32.4038 21.6733 32.5308C21.6733 32.6155 21.6822 32.6875 21.7001 32.7467C21.7179 32.8059 21.7435 32.851 21.777 32.8819C21.8107 32.9128 21.8513 32.9282 21.8988 32.9282Z" fill="#615E83"/>
<path d="M29.3282 30.0417V31.0199H29.2098V30.1659H29.204L28.9652 30.3245V30.2041L29.2098 30.0417H29.3282ZM30.015 31.0333C29.9749 31.0326 29.9348 31.025 29.8947 31.0103C29.8545 30.9957 29.8179 30.971 29.7848 30.9363C29.7517 30.9013 29.7251 30.854 29.705 30.7945C29.685 30.7346 29.6749 30.6595 29.6749 30.569C29.6749 30.4824 29.6831 30.4057 29.6993 30.3388C29.7155 30.2716 29.7391 30.2151 29.77 30.1693C29.8009 30.1231 29.8381 30.0881 29.8818 30.0642C29.9257 30.0403 29.9752 30.0284 30.0303 30.0284C30.0851 30.0284 30.1338 30.0393 30.1764 30.0613C30.2194 30.083 30.2545 30.1132 30.2815 30.1521C30.3086 30.1909 30.3261 30.2357 30.3341 30.2863H30.2175C30.2067 30.2423 30.1857 30.2059 30.1545 30.1769C30.1233 30.1479 30.0819 30.1334 30.0303 30.1334C29.9545 30.1334 29.8948 30.1664 29.8512 30.2323C29.8079 30.2982 29.7861 30.3907 29.7858 30.5098H29.7934C29.8112 30.4827 29.8324 30.4597 29.8569 30.4405C29.8818 30.4211 29.9091 30.4062 29.9391 30.3957C29.969 30.3851 30.0007 30.3799 30.0341 30.3799C30.0902 30.3799 30.1414 30.3939 30.1879 30.4219C30.2344 30.4496 30.2716 30.488 30.2997 30.537C30.3277 30.5857 30.3417 30.6416 30.3417 30.7047C30.3417 30.7652 30.3282 30.8206 30.3011 30.8709C30.274 30.9209 30.236 30.9607 30.187 30.9903C30.1382 31.0196 30.0809 31.0339 30.015 31.0333ZM30.015 30.9282C30.0551 30.9282 30.0911 30.9182 30.123 30.8981C30.1551 30.878 30.1804 30.8511 30.1989 30.8174C30.2177 30.7836 30.2271 30.7461 30.2271 30.7047C30.2271 30.6642 30.218 30.6275 30.1998 30.5943C30.182 30.5609 30.1573 30.5343 30.1258 30.5146C30.0946 30.4948 30.059 30.485 30.0188 30.485C29.9886 30.485 29.9604 30.491 29.9343 30.5031C29.9082 30.5149 29.8853 30.5311 29.8655 30.5518C29.8461 30.5725 29.8308 30.5963 29.8197 30.623C29.8085 30.6494 29.8029 30.6773 29.8029 30.7066C29.8029 30.7454 29.812 30.7817 29.8302 30.8155C29.8486 30.8492 29.8738 30.8765 29.9056 30.8971C29.9378 30.9178 29.9743 30.9282 30.015 30.9282ZM30.6943 30.8948C30.6707 30.8948 30.6505 30.8863 30.6336 30.8694C30.6167 30.8526 30.6083 30.8324 30.6083 30.8088C30.6083 30.7852 30.6167 30.765 30.6336 30.7481C30.6505 30.7313 30.6707 30.7228 30.6943 30.7228C30.7178 30.7228 30.7381 30.7313 30.7549 30.7481C30.7718 30.765 30.7803 30.7852 30.7803 30.8088C30.7803 30.8244 30.7763 30.8387 30.7683 30.8518C30.7607 30.8648 30.7503 30.8753 30.7373 30.8833C30.7245 30.8909 30.7102 30.8948 30.6943 30.8948ZM30.6943 30.4C30.6707 30.4 30.6505 30.3915 30.6336 30.3746C30.6167 30.3578 30.6083 30.3375 30.6083 30.314C30.6083 30.2904 30.6167 30.2702 30.6336 30.2533C30.6505 30.2364 30.6707 30.228 30.6943 30.228C30.7178 30.228 30.7381 30.2364 30.7549 30.2533C30.7718 30.2702 30.7803 30.2904 30.7803 30.314C30.7803 30.3296 30.7763 30.3439 30.7683 30.357C30.7607 30.37 30.7503 30.3805 30.7373 30.3885C30.7245 30.3961 30.7102 30.4 30.6943 30.4ZM31.3804 31.0333C31.3084 31.0333 31.2471 31.0137 31.1965 30.9745C31.1458 30.935 31.1072 30.8779 31.0804 30.8031C31.0537 30.7279 31.0403 30.6372 31.0403 30.5308C31.0403 30.4251 31.0537 30.3348 31.0804 30.26C31.1075 30.1849 31.1463 30.1275 31.197 30.0881C31.2479 30.0483 31.309 30.0284 31.3804 30.0284C31.4517 30.0284 31.5127 30.0483 31.5633 30.0881C31.6142 30.1275 31.6531 30.1849 31.6798 30.26C31.7069 30.3348 31.7204 30.4251 31.7204 30.5308C31.7204 30.6372 31.707 30.7279 31.6803 30.8031C31.6536 30.8779 31.6149 30.935 31.5642 30.9745C31.5136 31.0137 31.4523 31.0333 31.3804 31.0333ZM31.3804 30.9282C31.4517 30.9282 31.5071 30.8938 31.5466 30.825C31.5861 30.7563 31.6058 30.6582 31.6058 30.5308C31.6058 30.4461 31.5967 30.374 31.5786 30.3145C31.5607 30.2549 31.5349 30.2095 31.5012 30.1783C31.4678 30.1471 31.4275 30.1315 31.3804 30.1315C31.3097 30.1315 31.2544 30.1664 31.2146 30.2361C31.1748 30.3055 31.1549 30.4038 31.1549 30.5308C31.1549 30.6155 31.1638 30.6875 31.1817 30.7467C31.1995 30.8059 31.2251 30.851 31.2586 30.8819C31.2923 30.9128 31.3329 30.9282 31.3804 30.9282ZM30.3419 33.0333C30.2699 33.0333 30.2086 33.0137 30.158 32.9745C30.1074 32.935 30.0687 32.8779 30.0419 32.8031C30.0152 32.7279 30.0018 32.6372 30.0018 32.5308C30.0018 32.4251 30.0152 32.3348 30.0419 32.26C30.069 32.1849 30.1078 32.1275 30.1585 32.0881C30.2094 32.0483 30.2705 32.0284 30.3419 32.0284C30.4132 32.0284 30.4742 32.0483 30.5248 32.0881C30.5757 32.1275 30.6146 32.1849 30.6413 32.26C30.6684 32.3348 30.6819 32.4251 30.6819 32.5308C30.6819 32.6372 30.6686 32.7279 30.6418 32.8031C30.6151 32.8779 30.5764 32.935 30.5258 32.9745C30.4751 33.0137 30.4138 33.0333 30.3419 33.0333ZM30.3419 32.9282C30.4132 32.9282 30.4686 32.8938 30.5081 32.825C30.5476 32.7563 30.5673 32.6582 30.5673 32.5308C30.5673 32.4461 30.5582 32.374 30.5401 32.3145C30.5222 32.2549 30.4965 32.2095 30.4627 32.1783C30.4293 32.1471 30.389 32.1315 30.3419 32.1315C30.2712 32.1315 30.2159 32.1664 30.1761 32.2361C30.1363 32.3055 30.1164 32.4038 30.1164 32.5308C30.1164 32.6155 30.1254 32.6875 30.1432 32.7467C30.161 32.8059 30.1866 32.851 30.2201 32.8819C30.2538 32.9128 30.2944 32.9282 30.3419 32.9282Z" fill="#615E83"/>
<path d="M37.6941 30.0417V31.0199H37.5756V30.1659H37.5699L37.3311 30.3245V30.2041L37.5756 30.0417H37.6941ZM38.3694 31.0333C38.3038 31.0333 38.2459 31.0216 38.1955 30.9984C38.1456 30.9748 38.1065 30.9425 38.0785 30.9014C38.0505 30.8601 38.0367 30.8129 38.037 30.7601C38.0367 30.7187 38.0448 30.6805 38.0613 30.6454C38.0779 30.6101 38.1005 30.5806 38.1292 30.5571C38.1581 30.5332 38.1904 30.5181 38.2261 30.5117V30.506C38.1793 30.4939 38.1421 30.4676 38.1143 30.4272C38.0866 30.3864 38.073 30.3401 38.0733 30.2882C38.073 30.2385 38.0855 30.1941 38.111 30.1549C38.1365 30.1158 38.1715 30.0849 38.2161 30.0623C38.261 30.0397 38.3121 30.0284 38.3694 30.0284C38.4261 30.0284 38.4767 30.0397 38.5213 30.0623C38.5659 30.0849 38.6009 30.1158 38.6264 30.1549C38.6521 30.1941 38.6652 30.2385 38.6655 30.2882C38.6652 30.3401 38.651 30.3864 38.623 30.4272C38.5953 30.4676 38.5585 30.4939 38.5127 30.506V30.5117C38.548 30.5181 38.5799 30.5332 38.6082 30.5571C38.6365 30.5806 38.6592 30.6101 38.676 30.6454C38.6929 30.6805 38.7015 30.7187 38.7018 30.7601C38.7015 30.8129 38.6872 30.8601 38.6588 30.9014C38.6308 30.9425 38.5918 30.9748 38.5418 30.9984C38.4921 31.0216 38.4347 31.0333 38.3694 31.0333ZM38.3694 30.9282C38.4137 30.9282 38.4519 30.921 38.484 30.9067C38.5162 30.8924 38.541 30.8722 38.5585 30.846C38.576 30.8199 38.585 30.7894 38.5853 30.7543C38.585 30.7174 38.5754 30.6848 38.5566 30.6564C38.5378 30.6281 38.5122 30.6058 38.4797 30.5896C38.4476 30.5733 38.4108 30.5652 38.3694 30.5652C38.3277 30.5652 38.2904 30.5733 38.2576 30.5896C38.2252 30.6058 38.1995 30.6281 38.1807 30.6564C38.1623 30.6848 38.1532 30.7174 38.1535 30.7543C38.1532 30.7894 38.1616 30.8199 38.1788 30.846C38.1963 30.8722 38.2213 30.8924 38.2538 30.9067C38.2863 30.921 38.3248 30.9282 38.3694 30.9282ZM38.3694 30.464C38.4044 30.464 38.4355 30.4569 38.4625 30.4429C38.4899 30.4289 38.5114 30.4093 38.527 30.3842C38.5426 30.359 38.5506 30.3296 38.5509 30.2958C38.5506 30.2627 38.5428 30.2339 38.5275 30.2094C38.5122 30.1845 38.491 30.1654 38.464 30.1521C38.4369 30.1384 38.4054 30.1315 38.3694 30.1315C38.3328 30.1315 38.3008 30.1384 38.2734 30.1521C38.246 30.1654 38.2248 30.1845 38.2099 30.2094C38.1949 30.2339 38.1876 30.2627 38.1879 30.2958C38.1876 30.3296 38.1951 30.359 38.2104 30.3842C38.226 30.4093 38.2474 30.4289 38.2748 30.4429C38.3022 30.4569 38.3337 30.464 38.3694 30.464ZM39.0496 30.8948C39.0261 30.8948 39.0058 30.8863 38.989 30.8694C38.9721 30.8526 38.9637 30.8324 38.9637 30.8088C38.9637 30.7852 38.9721 30.765 38.989 30.7481C39.0058 30.7313 39.0261 30.7228 39.0496 30.7228C39.0732 30.7228 39.0934 30.7313 39.1103 30.7481C39.1272 30.765 39.1356 30.7852 39.1356 30.8088C39.1356 30.8244 39.1316 30.8387 39.1237 30.8518C39.116 30.8648 39.1057 30.8753 39.0926 30.8833C39.0799 30.8909 39.0655 30.8948 39.0496 30.8948ZM39.0496 30.4C39.0261 30.4 39.0058 30.3915 38.989 30.3746C38.9721 30.3578 38.9637 30.3375 38.9637 30.314C38.9637 30.2904 38.9721 30.2702 38.989 30.2533C39.0058 30.2364 39.0261 30.228 39.0496 30.228C39.0732 30.228 39.0934 30.2364 39.1103 30.2533C39.1272 30.2702 39.1356 30.2904 39.1356 30.314C39.1356 30.3296 39.1316 30.3439 39.1237 30.357C39.116 30.37 39.1057 30.3805 39.0926 30.3885C39.0799 30.3961 39.0655 30.4 39.0496 30.4ZM39.7357 31.0333C39.6637 31.0333 39.6024 31.0137 39.5518 30.9745C39.5012 30.935 39.4625 30.8779 39.4358 30.8031C39.409 30.7279 39.3956 30.6372 39.3956 30.5308C39.3956 30.4251 39.409 30.3348 39.4358 30.26C39.4628 30.1849 39.5017 30.1275 39.5523 30.0881C39.6032 30.0483 39.6644 30.0284 39.7357 30.0284C39.807 30.0284 39.868 30.0483 39.9186 30.0881C39.9696 30.1275 40.0084 30.1849 40.0352 30.26C40.0622 30.3348 40.0758 30.4251 40.0758 30.5308C40.0758 30.6372 40.0624 30.7279 40.0356 30.8031C40.0089 30.8779 39.9702 30.935 39.9196 30.9745C39.869 31.0137 39.8077 31.0333 39.7357 31.0333ZM39.7357 30.9282C39.807 30.9282 39.8624 30.8938 39.9019 30.825C39.9414 30.7563 39.9611 30.6582 39.9611 30.5308C39.9611 30.4461 39.9521 30.374 39.9339 30.3145C39.9161 30.2549 39.8903 30.2095 39.8565 30.1783C39.8231 30.1471 39.7828 30.1315 39.7357 30.1315C39.665 30.1315 39.6098 30.1664 39.57 30.2361C39.5302 30.3055 39.5103 30.4038 39.5103 30.5308C39.5103 30.6155 39.5192 30.6875 39.537 30.7467C39.5548 30.8059 39.5805 30.851 39.6139 30.8819C39.6477 30.9128 39.6883 30.9282 39.7357 30.9282ZM38.7025 33.0333C38.6305 33.0333 38.5692 33.0137 38.5186 32.9745C38.468 32.935 38.4293 32.8779 38.4025 32.8031C38.3758 32.7279 38.3624 32.6372 38.3624 32.5308C38.3624 32.4251 38.3758 32.3348 38.4025 32.26C38.4296 32.1849 38.4684 32.1275 38.5191 32.0881C38.57 32.0483 38.6311 32.0284 38.7025 32.0284C38.7738 32.0284 38.8348 32.0483 38.8854 32.0881C38.9363 32.1275 38.9752 32.1849 39.0019 32.26C39.029 32.3348 39.0425 32.4251 39.0425 32.5308C39.0425 32.6372 39.0292 32.7279 39.0024 32.8031C38.9757 32.8779 38.937 32.935 38.8863 32.9745C38.8357 33.0137 38.7744 33.0333 38.7025 33.0333ZM38.7025 32.9282C38.7738 32.9282 38.8292 32.8938 38.8687 32.825C38.9082 32.7563 38.9279 32.6582 38.9279 32.5308C38.9279 32.4461 38.9188 32.374 38.9007 32.3145C38.8828 32.2549 38.8571 32.2095 38.8233 32.1783C38.7899 32.1471 38.7496 32.1315 38.7025 32.1315C38.6318 32.1315 38.5765 32.1664 38.5367 32.2361C38.4969 32.3055 38.477 32.4038 38.477 32.5308C38.477 32.6155 38.4859 32.6875 38.5038 32.7467C38.5216 32.8059 38.5472 32.851 38.5807 32.8819C38.6144 32.9128 38.655 32.9282 38.7025 32.9282Z" fill="#615E83"/>
<line x1="12.6267" y1="27.9574" x2="12.6267" y2="8.86268" stroke="#E5E5EF" stroke-width="0.144104" stroke-linecap="round" stroke-dasharray="0.38 0.67"/>
<line x1="21.7817" y1="27.9574" x2="21.7817" y2="8.86268" stroke="#E5E5EF" stroke-width="0.144104" stroke-linecap="round" stroke-dasharray="0.38 0.67"/>
<line x1="30.9367" y1="27.9574" x2="30.9367" y2="8.86268" stroke="#E5E5EF" stroke-width="0.144104" stroke-linecap="round" stroke-dasharray="0.38 0.67"/>
<g style="mix-blend-mode:multiply" opacity="0.33">
<path d="M1.51397 23.8279C1.27817 23.7841 0.875321 23.9923 0.703369 24.1019L0.703369 34H43V22.6593C42.7973 22.6593 42.8342 22.6593 42.5026 22.294C42.171 21.9288 42.0789 21.7645 41.5262 22.0384C40.9736 22.3123 40.8999 22.0384 40.5314 21.5454C40.163 21.0523 39.9788 21.1984 39.5366 21.3627C39.0945 21.5271 39.0208 20.8514 38.5507 20.3949C38.0805 19.9384 37.8787 20.9427 37.6945 21.6549C37.5114 22.3628 37.0917 23.0165 36.7067 23.6161L36.6997 23.6271C36.3128 24.2297 35.7417 23.3897 35.5575 23.0245C35.3733 22.6593 35.318 22.6045 34.7654 22.6593C34.2127 22.714 34.0469 22.4766 33.8627 22.0384C33.6785 21.6001 33.7153 21.7097 33.2916 21.3627C32.8679 21.0158 32.6653 21.2532 32.4258 21.1984C32.1863 21.1436 31.91 20.5045 31.7258 20.1393C31.5416 19.7741 31.56 19.5184 31.0073 19.6828C30.4626 19.8447 30.3474 19.6519 30.062 19.1743L30.0494 19.1532C29.7546 18.6602 29.552 18.5141 28.9625 18.2584C28.373 18.0028 28.5572 18.1123 28.1151 18.2584C27.673 18.4045 27.4519 18.2037 27.1756 17.8567C26.8993 17.5097 26.9914 16.8158 26.2361 17.0898C25.4808 17.3637 25.315 16.7063 25.1492 16.0124C24.9834 15.3185 24.5228 15.3185 24.0623 15.4645C23.6018 15.6106 23.3991 14.6063 23.3623 13.9124C23.3254 13.2185 23.2886 12.9446 22.7543 12.9446C22.2201 12.9446 22.257 14.0402 22.0543 15.4645C21.8517 16.8889 21.9622 16.9254 21.3543 16.9802C20.7464 17.035 20.7464 17.035 20.4148 18.1123C20.0832 19.1897 19.9542 19.1532 19.3647 19.1532C18.7752 19.1532 18.5542 20.0114 18.3515 20.9062C18.1513 21.7904 17.7172 21.5513 17.0671 21.1931L17.0436 21.1801C16.3804 20.8149 16.233 20.9062 15.8093 19.6097C15.3856 18.3132 14.8514 18.9158 14.6119 19.7193C14.3724 20.5228 14.2435 20.6323 13.8382 20.9062C13.4329 21.1801 13.0276 21.2532 12.8802 21.7462C12.7329 22.2393 12.2355 22.641 11.8118 22.3488C11.3881 22.0566 11.0749 22.1297 10.8354 22.641C10.5959 23.1523 10.3564 23.134 10.0801 23.1888C9.80379 23.2436 9.21429 23.1888 8.91954 23.7001C8.62479 24.2114 8.21951 24.1019 7.99845 23.9923C7.77739 23.8827 7.31684 23.8279 7.16947 23.9923C7.02209 24.1566 6.57997 24.741 6.09145 23.8279C5.60294 22.9149 5.05096 23.5175 4.94042 23.7001L4.936 23.7074C4.82311 23.8941 4.56668 24.3181 4.16671 24.1019C3.76143 23.8827 3.42983 23.8279 3.11666 24.1019C2.80349 24.3758 2.50874 24.4853 2.28768 24.321C2.06662 24.1566 1.80871 23.8827 1.51397 23.8279Z" fill="url(#paint0_linear_25391_6197)"/>
</g>
<path d="M0.869385 24.0115C1.04 23.9028 1.43971 23.6962 1.67367 23.7397C1.96612 23.7941 2.22202 24.0658 2.44136 24.2289C2.66071 24.392 2.95316 24.2833 3.26389 24.0115C3.57463 23.7397 3.90364 23.7941 4.30577 24.0115C4.70789 24.2289 4.96379 23.7941 5.07346 23.6129C5.18313 23.4317 5.73082 22.8338 6.21553 23.7397C6.70025 24.6456 7.13893 24.0658 7.28516 23.9028C7.43138 23.7397 7.88835 23.794 8.10769 23.9028C8.32703 24.0115 8.72916 24.1202 9.02161 23.6129C9.31407 23.1055 9.89898 23.1599 10.1732 23.1055C10.4473 23.0512 10.685 23.0693 10.9226 22.562C11.1602 22.0547 11.4709 21.9822 11.8913 22.2721C12.3117 22.562 12.8053 22.1634 12.9515 21.6742C13.0977 21.185 13.4998 21.1125 13.902 20.8407C14.3041 20.5689 14.432 20.4602 14.6697 19.663C14.9073 18.8658 15.4374 18.2679 15.8578 19.5543C16.2782 20.8407 16.4244 20.7501 17.0824 21.1125C17.7404 21.4749 18.1791 21.7285 18.3802 20.8407C18.5812 19.9529 18.8006 19.1013 19.3855 19.1013C19.9704 19.1013 20.0984 19.1376 20.4274 18.0686C20.7564 16.9996 20.7564 16.9996 21.3596 16.9452C21.9628 16.8909 21.8531 16.8546 22.0542 15.4414C22.2552 14.0281 22.2187 12.941 22.7487 12.941C23.2788 12.941 23.3154 13.2128 23.3519 13.9013C23.3885 14.5898 23.5895 15.5863 24.0465 15.4414C24.5035 15.2965 24.9604 15.2965 25.1249 15.985C25.2894 16.6735 25.454 17.3257 26.2034 17.0539C26.9528 16.7822 26.8614 17.4707 27.1356 17.8149C27.4097 18.1592 27.6291 18.3585 28.0678 18.2135C28.5065 18.0686 28.3237 17.9599 28.9086 18.2135C29.4935 18.4672 29.6946 18.6121 29.987 19.1013C30.2795 19.5905 30.3891 19.7898 30.9375 19.6268C31.4858 19.4637 31.4676 19.7174 31.6504 20.0797C31.8331 20.4421 32.1073 21.0763 32.3449 21.1306C32.5826 21.185 32.7836 20.9494 33.204 21.2937C33.6244 21.6379 33.5879 21.5292 33.7707 21.9641C33.9534 22.3989 34.1179 22.6345 34.6663 22.5801C35.2147 22.5257 35.2695 22.5801 35.4523 22.9425C35.6351 23.3048 36.2017 24.1383 36.5855 23.5404C36.9694 22.9425 37.3898 22.2902 37.5726 21.5836C37.7554 20.877 37.9556 19.8804 38.4221 20.3334C38.8886 20.7864 38.9617 21.4568 39.4004 21.2937C39.8391 21.1306 40.0219 20.9857 40.3875 21.4749C40.753 21.9641 40.8261 22.2359 41.3745 21.9641C41.9228 21.6923 42.0142 21.8554 42.3433 22.2177C42.6723 22.5801 42.6357 22.5801 42.8368 22.5801" stroke="#52C41A" stroke-width="0.384277" stroke-linecap="round"/>
<line x1="3.45142" y1="8.74176" x2="40.2335" y2="8.74176" stroke="#E5E5EF" stroke-width="0.0960692"/>
<defs>
<linearGradient id="paint0_linear_25391_6197" x1="21.8517" y1="12.9446" x2="21.8517" y2="31.9966" gradientUnits="userSpaceOnUse">
<stop stop-color="#765DFF"/>
<stop offset="0.46679" stop-color="#CFCAFF"/>
<stop offset="1" stop-color="white"/>
</linearGradient>
</defs>
</svg>
