<svg width="25" height="25" viewBox="0 0 25 25" fill="none" xmlns="http://www.w3.org/2000/svg">
<g clip-path="url(#clip0_26208_835)">
<path d="M11.621 2.77295C14.1143 2.77295 14.7181 2.84561 15.6317 2.95482C15.8745 2.98389 16.1473 3.01717 16.4787 3.05139L16.5162 3.05514C16.7599 3.08108 17.0001 3.13358 17.2324 3.2117L17.2793 3.22764L17.3149 3.24076H17.3206L17.3266 3.24311C17.8479 3.43361 18.3137 3.75077 18.6819 4.16605C19.0501 4.58132 19.3093 5.08166 19.436 5.62201L19.4801 6.04389C19.5931 7.13326 19.6831 8.77623 19.7295 10.6869C19.7362 10.9755 19.8558 11.2501 20.0626 11.4516C20.2694 11.6532 20.5469 11.7657 20.8357 11.765C20.9904 11.7644 21.1435 11.7332 21.2861 11.6732C21.4288 11.6133 21.5581 11.5257 21.6668 11.4156C21.7755 11.3055 21.8613 11.175 21.9194 11.0316C21.9775 10.8882 22.0067 10.7347 22.0052 10.58C21.9832 7.67373 21.7456 5.81232 21.7456 5.81232C21.6376 4.76984 21.2392 3.77858 20.5958 2.95131C19.9523 2.12404 19.0896 1.49397 18.1057 1.13279C18.0537 1.11357 18.0016 1.09482 17.9492 1.07654C17.5602 0.945814 17.1581 0.858256 16.7501 0.815449L16.7112 0.81123C15.1535 0.651387 14.9037 0.522949 11.621 0.522949C8.33977 0.522949 7.80868 0.651387 6.25196 0.813105L6.21306 0.817324C5.78471 0.862317 5.363 0.956693 4.95634 1.09857V1.07701C3.94219 1.42178 3.04819 2.05017 2.38037 2.88765C1.71255 3.72513 1.29891 4.73657 1.18852 5.80201C0.993525 7.67701 0.89415 9.48498 0.89415 12.3851C0.89415 15.2853 0.993525 17.0937 1.18852 18.9687C1.32175 20.2482 1.89091 21.443 2.80055 22.3526C3.71018 23.2623 4.90496 23.8314 6.18446 23.9647L6.22337 23.9684C7.57946 24.109 7.94368 24.2253 10.1866 24.2525C10.3344 24.2543 10.4811 24.2269 10.6183 24.172C10.7555 24.1171 10.8806 24.0357 10.9863 23.9324C11.0921 23.8292 11.1764 23.7061 11.2346 23.5702C11.2927 23.4344 11.3235 23.2884 11.3252 23.1406C11.3285 22.8442 11.2146 22.5584 11.0084 22.3454C10.8021 22.1325 10.5201 22.0096 10.2237 22.0034C8.76352 21.9734 7.87993 21.8951 7.30149 21.8258C7.05915 21.7967 6.78587 21.7639 6.45493 21.7297L6.41743 21.7254C5.65132 21.6459 4.9359 21.3052 4.39126 20.7605C3.84662 20.2159 3.50592 19.5005 3.42634 18.7344C3.25712 17.1083 3.14509 15.4062 3.14509 12.3837C3.14509 9.36123 3.25806 7.65967 3.42634 6.03357C3.4854 5.46146 3.69096 4.91424 4.02318 4.44474C4.35539 3.97524 4.80304 3.59932 5.3229 3.35326L5.69415 3.22389C5.93688 3.13915 6.18852 3.08253 6.44415 3.05514L6.48446 3.05139C6.73759 3.02467 6.95931 2.99982 7.17352 2.97592C8.26056 2.85357 8.97868 2.77295 11.6206 2.77295" fill="#94A3B8"/>
<path d="M17.2924 24.5229C13.9029 24.5229 11.1457 21.7658 11.1457 18.3767C11.1475 16.747 11.7956 15.1846 12.948 14.0322C14.1003 12.8799 15.6628 12.2317 17.2924 12.23C20.6815 12.23 23.4392 14.9872 23.4392 18.3767C23.4392 21.7662 20.6815 24.5229 17.2924 24.5229ZM17.2924 14.48C16.5217 14.48 15.7684 14.7085 15.1275 15.1367C14.4867 15.5649 13.9873 16.1735 13.6923 16.8855C13.3974 17.5975 13.3202 18.381 13.4706 19.1369C13.621 19.8928 13.9921 20.5871 14.537 21.1321C15.082 21.6771 15.7763 22.0482 16.5322 22.1985C17.2881 22.3489 18.0716 22.2717 18.7836 21.9768C19.4957 21.6819 20.1043 21.1824 20.5324 20.5416C20.9606 19.9008 21.1892 19.1474 21.1892 18.3767C21.188 17.3436 20.7771 16.3531 20.0466 15.6225C19.3161 14.892 18.3256 14.4811 17.2924 14.48Z" fill="#94A3B8"/>
<path d="M6.33681 6.76416H16.5677C16.86 6.77015 17.1382 6.89044 17.3428 7.09923C17.5473 7.30802 17.6619 7.58866 17.6619 7.88096C17.6619 8.17325 17.5473 8.4539 17.3428 8.66269C17.1382 8.87147 16.86 8.99177 16.5677 8.99775H6.33681C6.04458 8.99177 5.76634 8.87147 5.56178 8.66269C5.35723 8.4539 5.24266 8.17325 5.24266 7.88096C5.24266 7.58866 5.35723 7.30802 5.56178 7.09923C5.76634 6.89044 6.04458 6.77015 6.33681 6.76416Z" fill="#94A3B8"/>
<path d="M6.33681 13.7756C6.04068 13.7756 5.75668 13.658 5.54728 13.4486C5.33788 13.2392 5.22025 12.9552 5.22025 12.659C5.22025 12.3629 5.33788 12.0789 5.54728 11.8695C5.75668 11.6601 6.04068 11.5425 6.33681 11.5425H12.1709C12.467 11.5425 12.751 11.6601 12.9604 11.8695C13.1698 12.0789 13.2874 12.3629 13.2874 12.659C13.2874 12.9552 13.1698 13.2392 12.9604 13.4486C12.751 13.658 12.467 13.7756 12.1709 13.7756H6.33681Z" fill="#94A3B8"/>
<path d="M19.2828 19.5312H17.1926C16.9223 19.531 16.6631 19.4235 16.472 19.2324C16.2808 19.0412 16.1733 18.782 16.1731 18.5117V16.0039C16.1731 15.7335 16.2805 15.4742 16.4717 15.283C16.6629 15.0918 16.9222 14.9844 17.1926 14.9844C17.463 14.9844 17.7223 15.0918 17.9135 15.283C18.1047 15.4742 18.2121 15.7335 18.2121 16.0039V17.4922H19.2828C19.5531 17.4922 19.8125 17.5996 20.0037 17.7908C20.1949 17.982 20.3023 18.2413 20.3023 18.5117C20.3023 18.7821 20.1949 19.0414 20.0037 19.2326C19.8125 19.4238 19.5531 19.5312 19.2828 19.5312Z" fill="#94A3B8"/>
</g>
<defs>
<clipPath id="clip0_26208_835">
<rect width="24" height="24" fill="white" transform="translate(0.166656 0.5)"/>
</clipPath>
</defs>
</svg>
