<svg width="24" height="24" viewBox="0 0 24 24" fill="none" xmlns="http://www.w3.org/2000/svg">
<path d="M10.4107 19.9677C7.58942 17.858 2 13.0348 2 8.69444C2 5.82563 4.10526 3.5 7 3.5C8.5 3.5 10 4 12 6C14 4 15.5 3.5 17 3.5C19.8947 3.5 22 5.82563 22 8.69444C22 13.0348 16.4106 17.858 13.5893 19.9677C12.6399 20.6776 11.3601 20.6776 10.4107 19.9677Z" fill="url(#paint0_linear_25401_8854)"/>
<path d="M21.25 8.69434C21.25 6.19913 19.4409 4.25 17 4.25C15.7398 4.25 14.4215 4.63909 12.5303 6.53027C12.2374 6.82317 11.7626 6.82317 11.4697 6.53027C9.57854 4.63909 8.26018 4.25 7 4.25C4.55903 4.25 2.75005 6.19913 2.75 8.69434C2.75 10.576 3.98382 12.6878 5.71289 14.6758C7.41433 16.632 9.47094 18.3289 10.8594 19.3672L10.9902 19.457C11.656 19.8761 12.5002 19.8461 13.1406 19.3672L13.6904 18.9473C15.0374 17.9002 16.7984 16.3874 18.2871 14.6758C20.0162 12.6878 21.25 10.576 21.25 8.69434ZM22.75 8.69434C22.75 11.153 21.1899 13.624 19.4189 15.6602C17.8453 17.4694 16.0032 19.0501 14.6074 20.1348L14.0381 20.5684C12.8984 21.4204 11.3812 21.474 10.1943 20.7285L9.96191 20.5684C8.52908 19.4969 6.37954 17.7279 4.58105 15.6602C2.8101 13.624 1.25 11.153 1.25 8.69434C1.25005 5.45202 3.65156 2.75 7 2.75C8.59184 2.75 10.1338 3.26268 12 4.96484C13.8662 3.26268 15.4082 2.75 17 2.75C20.3484 2.75 22.7499 5.45202 22.75 8.69434Z" fill="url(#paint1_linear_25401_8854)"/>
<defs>
<linearGradient id="paint0_linear_25401_8854" x1="12" y1="3.5" x2="12" y2="20.5001" gradientUnits="userSpaceOnUse">
<stop stop-color="#FF7DD0"/>
<stop offset="1" stop-color="#F7009E"/>
</linearGradient>
<linearGradient id="paint1_linear_25401_8854" x1="12" y1="2.75" x2="12" y2="21.2502" gradientUnits="userSpaceOnUse">
<stop stop-color="#FF7DD0"/>
<stop offset="1" stop-color="#F7009E"/>
</linearGradient>
</defs>
</svg>
