<svg width="22" height="20" viewBox="0 0 22 20" fill="none" xmlns="http://www.w3.org/2000/svg">
<path d="M20.25 6.69434C20.25 4.19913 18.4409 2.25 16 2.25C14.7398 2.25 13.4215 2.63909 11.5303 4.53027C11.2374 4.82317 10.7626 4.82317 10.4697 4.53027C8.57854 2.63909 7.26018 2.25 6 2.25C3.55903 2.25 1.75005 4.19913 1.75 6.69434C1.75 8.576 2.98382 10.6878 4.71289 12.6758C6.41433 14.632 8.47094 16.3289 9.85938 17.3672L9.99023 17.457C10.656 17.8761 11.5002 17.8461 12.1406 17.3672L12.6904 16.9473C14.0374 15.9002 15.7984 14.3874 17.2871 12.6758C19.0162 10.6878 20.25 8.576 20.25 6.69434ZM21.75 6.69434C21.75 9.15303 20.1899 11.624 18.4189 13.6602C16.8453 15.4694 15.0032 17.0501 13.6074 18.1348L13.0381 18.5684C11.8984 19.4204 10.3812 19.474 9.19434 18.7285L8.96191 18.5684C7.52908 17.4969 5.37954 15.7279 3.58105 13.6602C1.8101 11.624 0.25 9.15303 0.25 6.69434C0.250051 3.45202 2.65156 0.75 6 0.75C7.59184 0.75 9.13382 1.26268 11 2.96484C12.8662 1.26268 14.4082 0.75 16 0.75C19.3484 0.75 21.7499 3.45202 21.75 6.69434Z" fill="url(#paint0_linear_26497_381)"/>
<defs>
<linearGradient id="paint0_linear_26497_381" x1="11" y1="0.75" x2="11" y2="19.2502" gradientUnits="userSpaceOnUse">
<stop stop-color="#FF7DD0"/>
<stop offset="1" stop-color="#F7009E"/>
</linearGradient>
</defs>
</svg>
