<svg width="33" height="32" viewBox="0 0 33 32" fill="none" xmlns="http://www.w3.org/2000/svg">
<g clip-path="url(#clip0_25401_8840)">
<path fill-rule="evenodd" clip-rule="evenodd" d="M26.8865 5.985V26.015C26.8789 26.7369 26.4828 27.3988 25.8501 27.7466C25.2174 28.0944 24.4463 28.0742 23.8327 27.6938L8.88647 18.3463V27C8.88647 27.5523 8.43876 28 7.88647 28C7.33419 28 6.88647 27.5523 6.88647 27V5C6.88647 4.44772 7.33419 4 7.88647 4C8.43876 4 8.88647 4.44772 8.88647 5V13.6538L23.8327 4.30625C24.4457 3.92147 25.219 3.89906 25.8532 4.2477C26.4874 4.59635 26.8829 5.26129 26.8865 5.985Z" fill="white"/>
</g>
<defs>
<clipPath id="clip0_25401_8840">
<rect width="32" height="32" fill="white" transform="translate(0.886475)"/>
</clipPath>
</defs>
</svg>
