<svg width="25" height="25" viewBox="0 0 25 25" fill="none" xmlns="http://www.w3.org/2000/svg">
<path fill-rule="evenodd" clip-rule="evenodd" d="M20.7395 3.46299C19.9223 2.55506 18.8725 2.13932 17.5485 1.94153C16.2678 1.75021 14.6308 1.75022 12.5625 1.75024H12.4375C10.3692 1.75023 8.7322 1.75021 7.45146 1.94153C6.12746 2.13932 5.07768 2.55506 4.26054 3.46299C3.45358 4.35961 3.09337 5.49246 2.92017 6.92379C2.74997 8.33039 2.74998 10.1352 2.74999 12.4481C2.74998 14.7609 2.74997 16.6701 2.92017 18.0767C3.09337 19.508 3.45358 20.6409 4.26054 21.5375C5.07768 22.4454 6.12746 22.8611 7.45146 23.0589C8.7322 23.2502 10.3692 23.2502 12.4375 23.2502H12.5625C14.6308 23.2502 16.2678 23.2502 17.5485 23.0589C18.8725 22.8611 19.9223 22.4454 20.7395 21.5375C21.5464 20.6409 21.9066 19.508 22.0798 18.0767C22.25 16.6701 22.25 14.7609 22.25 12.448C22.25 10.1352 22.25 8.33038 22.0798 6.92379C21.9066 5.49246 21.5464 4.3596 20.7395 3.46299ZM12.5 3.46123C13.789 3.46123 14.8541 3.46194 15.75 3.50002V10.3262C15.75 10.9742 15.7353 11.4547 15.6963 11.7289C15.5492 11.6806 15.3404 11.5703 15.0969 11.4038C14.5648 10.9872 13.4352 10.128 13.1737 10.0246C12.9908 9.93137 12.7686 9.84839 12.5 9.84839C12.2314 9.84839 12.0092 9.93137 11.8263 10.0246C11.5564 10.1303 10.4317 10.9881 9.90311 11.4038C9.6596 11.5703 9.46191 11.677 9.31476 11.7253C9.27577 11.4511 9.24999 10.9742 9.24999 10.3262V3.50002C10.1459 3.46194 11.211 3.46123 12.5 3.46123Z" stroke="#94A3B8" stroke-width="1.5"/>
</svg>
