<svg width="21" height="20" viewBox="0 0 21 20" fill="none" xmlns="http://www.w3.org/2000/svg">
<path d="M17.0662 9.58329C17.0662 5.55622 13.7646 2.29163 9.69192 2.29163C5.61921 2.29163 2.31763 5.55622 2.31763 9.58329C2.31763 13.6104 5.61921 16.875 9.69192 16.875C13.7646 16.875 17.0662 13.6104 17.0662 9.58329ZM18.3304 9.58329C18.3304 14.3007 14.4628 18.125 9.69192 18.125C4.92103 18.125 1.05347 14.3007 1.05347 9.58329C1.05347 4.86586 4.92103 1.04163 9.69192 1.04163C14.4628 1.04163 18.3304 4.86586 18.3304 9.58329Z" fill="#F8FAFC"/>
<path d="M16.4086 16.2247C16.6401 15.9959 17.0064 15.9813 17.2547 16.1816L17.3024 16.2247L18.988 17.8914L19.0316 17.9386C19.2341 18.1841 19.2194 18.5463 18.988 18.7752C18.7565 19.004 18.3902 19.0186 18.1419 18.8183L18.0942 18.7752L16.4086 17.1085L16.365 17.0613C16.1625 16.8158 16.1772 16.4535 16.4086 16.2247Z" fill="#F8FAFC"/>
</svg>
