<svg width="20" height="20" viewBox="0 0 20 20" fill="none" xmlns="http://www.w3.org/2000/svg">
<path d="M7.375 1.99997C7.54076 1.99997 7.69973 2.06582 7.81694 2.18303C7.93415 2.30024 8 2.45921 8 2.62497C8 2.79073 7.93415 2.9497 7.81694 3.06691C7.69973 3.18412 7.54076 3.24997 7.375 3.24997H3.625C2.99511 3.24997 2.39102 3.50019 1.94562 3.94559C1.50022 4.39099 1.25 4.99508 1.25 5.62497V16.375C1.25 16.6869 1.31143 16.9957 1.43079 17.2838C1.55014 17.572 1.72508 17.8338 1.94562 18.0543C2.16616 18.2749 2.42798 18.4498 2.71613 18.5692C3.00428 18.6885 3.31311 18.75 3.625 18.75H14.375C14.6869 18.75 14.9957 18.6885 15.2839 18.5692C15.572 18.4498 15.8338 18.2749 16.0544 18.0543C16.2749 17.8338 16.4499 17.572 16.5692 17.2838C16.6886 16.9957 16.75 16.6869 16.75 16.375V13.125C16.75 12.9592 16.8158 12.8002 16.9331 12.683C17.0503 12.5658 17.2092 12.5 17.375 12.5C17.5408 12.5 17.6997 12.5658 17.8169 12.683C17.9342 12.8002 18 12.9592 18 13.125V16.375C18 17.3364 17.6181 18.2584 16.9383 18.9382C16.2584 19.6181 15.3364 20 14.375 20H3.625C2.66359 20 1.74156 19.6181 1.06174 18.9382C0.381919 18.2584 0 17.3364 0 16.375V5.62497C0 4.66356 0.381919 3.74153 1.06174 3.06171C1.74156 2.38189 2.66359 1.99997 3.625 1.99997H7.375ZM11.861 0.0579689C11.9691 0.00780744 12.0892 -0.0104186 12.2073 0.00543825C12.3254 0.0212951 12.4365 0.0705743 12.5275 0.147469L19.7775 6.27247C19.8454 6.32984 19.9003 6.40102 19.9385 6.48128C19.9767 6.56154 19.9973 6.64903 19.999 6.7379C20.0007 6.82676 19.9834 6.91498 19.9484 6.99664C19.9133 7.0783 19.8611 7.15154 19.7955 7.21147L12.5455 13.8365C12.456 13.9182 12.3447 13.9722 12.2251 13.9918C12.1054 14.0114 11.9827 13.9958 11.8718 13.9469C11.7609 13.8979 11.6666 13.8178 11.6004 13.7163C11.5342 13.6148 11.499 13.4962 11.499 13.375V10.514C10.4715 10.563 9.488 10.749 8.48 11.2475C7.34 11.8105 6.1225 12.795 4.771 14.52L4.499 14.875C4.42737 14.9706 4.32985 15.0436 4.21799 15.0855C4.10613 15.1274 3.98461 15.1363 3.86782 15.1113C3.75102 15.0862 3.64385 15.0283 3.559 14.9442C3.47414 14.8601 3.41514 14.7535 3.389 14.637L3.3755 14.5415C3.2425 12.5455 3.77 9.82147 5.1375 7.58047C6.431 5.46147 8.5075 3.73397 11.499 3.52197V0.624969C11.499 0.381469 11.64 0.160469 11.861 0.0579689Z" fill="white"/>
</svg>
