<svg width="24" height="24" viewBox="0 0 24 24" fill="none" xmlns="http://www.w3.org/2000/svg">
<path d="M2.25 6C2.05109 6 1.86032 6.07902 1.71967 6.21967C1.57902 6.36032 1.5 6.55109 1.5 6.75C1.5 6.94891 1.57902 7.13968 1.71967 7.28033C1.86032 7.42098 2.05109 7.5 2.25 7.5H3.75C4.59379 7.49394 5.42961 7.6635 6.20432 7.99792C6.97903 8.33234 7.67569 8.82429 8.25 9.4425L9.195 10.5C9.26579 10.5763 9.35169 10.6371 9.44724 10.6784C9.54279 10.7197 9.6459 10.7407 9.75 10.74C9.93948 10.7393 10.1217 10.667 10.26 10.5375C10.3328 10.4703 10.3916 10.3893 10.4329 10.2993C10.4742 10.2092 10.4973 10.1118 10.5008 10.0128C10.5043 9.91379 10.4881 9.81506 10.4532 9.72232C10.4183 9.62958 10.3654 9.54467 10.2975 9.4725L9.3225 8.43C8.61099 7.66314 7.74878 7.05149 6.78989 6.63334C5.831 6.2152 4.79609 5.99958 3.75 6H2.25Z" fill="#F8FAFC"/>
<path d="M19.845 3.78752C19.7015 3.66465 19.517 3.60045 19.3282 3.60774C19.1395 3.61503 18.9604 3.69328 18.8268 3.82685C18.6933 3.96042 18.615 4.13947 18.6077 4.32823C18.6004 4.51699 18.6646 4.70154 18.7875 4.84502L19.9425 6.00002H19.5C18.4582 6.00174 17.428 6.21767 16.4732 6.63442C15.5184 7.05116 14.6596 7.6598 13.95 8.42252L8.25 14.5575C7.67569 15.1757 6.97903 15.6677 6.20432 16.0021C5.42961 16.3365 4.59379 16.5061 3.75 16.5H2.25C2.05109 16.5 1.86032 16.579 1.71967 16.7197C1.57902 16.8603 1.5 17.0511 1.5 17.25C1.5 17.4489 1.57902 17.6397 1.71967 17.7804C1.86032 17.921 2.05109 18 2.25 18H3.75C4.79175 17.9983 5.82202 17.7824 6.77679 17.3656C7.73155 16.9489 8.59042 16.3402 9.3 15.5775L15 9.44252C15.5743 8.82431 16.271 8.33236 17.0457 7.99794C17.8204 7.66352 18.6562 7.49396 19.5 7.50002H19.965L18.81 8.65502C18.6703 8.79554 18.5919 8.98563 18.5919 9.18377C18.5919 9.38191 18.6703 9.572 18.81 9.71252C18.8801 9.78203 18.9632 9.83703 19.0546 9.87435C19.1459 9.91167 19.2438 9.93059 19.3425 9.93002C19.5393 9.92919 19.7278 9.85108 19.8675 9.71252L22.305 7.28252C22.3753 7.2128 22.4311 7.12985 22.4692 7.03845C22.5072 6.94706 22.5268 6.84903 22.5268 6.75002C22.5268 6.65101 22.5072 6.55298 22.4692 6.46159C22.4311 6.37019 22.3753 6.28724 22.305 6.21752L19.845 3.78752Z" fill="#F8FAFC"/>
<path d="M19.845 14.2876C19.7016 14.1647 19.517 14.1005 19.3282 14.1078C19.1395 14.1151 18.9604 14.1933 18.8269 14.3269C18.6933 14.4605 18.615 14.6395 18.6078 14.8283C18.6005 15.017 18.6647 15.2016 18.7875 15.3451L19.9425 16.5001H19.5C18.6562 16.5061 17.8204 16.3366 17.0457 16.0022C16.271 15.6677 15.5743 15.1758 15 14.5576L14.0475 13.5001C13.907 13.3604 13.7169 13.282 13.5188 13.282C13.3206 13.282 13.1306 13.3604 12.99 13.5001C12.9172 13.5673 12.8585 13.6483 12.8171 13.7383C12.7758 13.8284 12.7527 13.9257 12.7492 14.0248C12.7458 14.1238 12.7619 14.2225 12.7968 14.3153C12.8317 14.408 12.8846 14.4929 12.9525 14.5651L13.9275 15.6076C14.6423 16.3676 15.506 16.9723 16.4647 17.3839C17.4235 17.7956 18.4567 18.0053 19.5 18.0001H19.965L18.81 19.1551C18.6703 19.2956 18.5919 19.4857 18.5919 19.6838C18.5919 19.882 18.6703 20.0721 18.81 20.2126C18.8801 20.2821 18.9632 20.3371 19.0546 20.3744C19.146 20.4117 19.2438 20.4306 19.3425 20.4301C19.5393 20.4292 19.7278 20.3511 19.8675 20.2126L22.305 17.7826C22.3753 17.7129 22.4311 17.6299 22.4692 17.5385C22.5073 17.4471 22.5269 17.3491 22.5269 17.2501C22.5269 17.1511 22.5073 17.053 22.4692 16.9616C22.4311 16.8702 22.3753 16.7873 22.305 16.7176L19.845 14.2876Z" fill="#F8FAFC"/>
</svg>
