<svg width="18" height="18" viewBox="0 0 18 18" fill="none" xmlns="http://www.w3.org/2000/svg">
<path d="M2.24994 14.25H15.7499C15.8866 14.2495 16.0206 14.2118 16.1374 14.1409C16.2543 14.07 16.3496 13.9686 16.4131 13.8475C16.4766 13.7265 16.5059 13.5904 16.4978 13.454C16.4897 13.3176 16.4445 13.1859 16.3672 13.0732L9.61719 3.32321C9.33744 2.91896 8.66394 2.91896 8.38344 3.32321L1.63344 13.0732C1.55531 13.1857 1.50949 13.3174 1.50097 13.4541C1.49244 13.5907 1.52153 13.7271 1.58508 13.8484C1.64863 13.9697 1.7442 14.0713 1.86142 14.1421C1.97863 14.2129 2.11301 14.2502 2.24994 14.25Z" fill="#52C41A"/>
</svg>
